<ttFont>
    <TTGlyph name=".notdef" xMin="32" yMin="0" xMax="440" yMax="780">
      <contour>
        <pt x="32" y="0" on="1"/>
        <pt x="32" y="780" on="1"/>
        <pt x="440" y="780" on="1"/>
        <pt x="440" y="0" on="1"/>
      </contour>
      <contour>
        <pt x="100" y="68" on="1"/>
        <pt x="372" y="68" on="1"/>
        <pt x="372" y="712" on="1"/>
        <pt x="100" y="712" on="1"/>
      </contour>
    </TTGlyph>
    <TTGlyph name="A" xMin="22" yMin="0" xMax="627" yMax="698">
      <contour>
        <pt x="525" y="0" on="1"/>
        <pt x="459" y="197" on="1"/>
        <pt x="187" y="197" on="1"/>
        <pt x="120" y="0" on="1"/>
        <pt x="22" y="0" on="1"/>
        <pt x="264" y="698" on="1"/>
        <pt x="386" y="698" on="1"/>
        <pt x="627" y="0" on="1"/>
      </contour>
      <contour>
        <pt x="325" y="609" on="1"/>
        <pt x="320" y="609" on="1"/>
        <pt x="210" y="283" on="1"/>
        <pt x="435" y="283" on="1"/>
      </contour>
    </TTGlyph>
    <TTGlyph name="AE" xMin="3" yMin="0" xMax="856" yMax="698">
      <contour>
        <pt x="421" y="198" on="1"/>
        <pt x="199" y="198" on="1"/>
        <pt x="102" y="0" on="1"/>
        <pt x="3" y="0" on="1"/>
        <pt x="357" y="698" on="1"/>
        <pt x="856" y="698" on="1"/>
        <pt x="856" y="612" on="1"/>
        <pt x="518" y="612" on="1"/>
        <pt x="518" y="396" on="1"/>
        <pt x="831" y="396" on="1"/>
        <pt x="831" y="310" on="1"/>
        <pt x="518" y="310" on="1"/>
        <pt x="518" y="86" on="1"/>
        <pt x="856" y="86" on="1"/>
        <pt x="856" y="0" on="1"/>
        <pt x="421" y="0" on="1"/>
      </contour>
      <contour>
        <pt x="406" y="612" on="1"/>
        <pt x="239" y="282" on="1"/>
        <pt x="421" y="282" on="1"/>
        <pt x="421" y="612" on="1"/>
      </contour>
    </TTGlyph>
    <TTGlyph name="AEacute" xMin="3" yMin="0" xMax="856" yMax="954">
      <component glyphName="AE" x="0" y="0" flags="0x204"/>
      <component glyphName="acute.case" x="306" y="0" flags="0x4"/>
    </TTGlyph>
    <TTGlyph name="Aacute" xMin="22" yMin="0" xMax="627" yMax="954">
      <component glyphName="A" x="0" y="0" flags="0x204"/>
      <component glyphName="acute.case" x="25" y="0" flags="0x4"/>
    </TTGlyph>
    <TTGlyph name="Abreve" xMin="22" yMin="0" xMax="627" yMax="920">
      <component glyphName="A" x="0" y="0" flags="0x204"/>
      <component glyphName="breve.case" x="25" y="0" flags="0x4"/>
    </TTGlyph>
    <TTGlyph name="Acircumflex" xMin="22" yMin="0" xMax="627" yMax="939">
      <component glyphName="A" x="0" y="0" flags="0x204"/>
      <component glyphName="circumflex.case" x="25" y="0" flags="0x4"/>
    </TTGlyph>
    <TTGlyph name="Adieresis" xMin="22" yMin="0" xMax="627" yMax="897">
      <component glyphName="A" x="0" y="0" flags="0x204"/>
      <component glyphName="dieresis.case" x="25" y="0" flags="0x4"/>
    </TTGlyph>
    <TTGlyph name="Agrave" xMin="22" yMin="0" xMax="627" yMax="954">
      <component glyphName="A" x="0" y="0" flags="0x204"/>
      <component glyphName="grave.case" x="25" y="0" flags="0x4"/>
    </TTGlyph>
    <TTGlyph name="Alpha" xMin="22" yMin="0" xMax="627" yMax="698">
      <component glyphName="A" x="0" y="0" flags="0x204"/>
    </TTGlyph>
    <TTGlyph name="Alphatonos" xMin="22" yMin="0" xMax="627" yMax="787">
      <component glyphName="A" x="0" y="0" flags="0x204"/>
      <component glyphName="tonos.case" x="-239" y="0" flags="0x4"/>
    </TTGlyph>
    <TTGlyph name="Amacron" xMin="22" yMin="0" xMax="627" yMax="877">
      <component glyphName="A" x="0" y="0" flags="0x204"/>
      <component glyphName="macron.case" x="25" y="0" flags="0x4"/>
    </TTGlyph>
    <TTGlyph name="Aogonek" xMin="22" yMin="-208" xMax="650" yMax="698">
      <contour>
        <pt x="264" y="698" on="1"/>
        <pt x="386" y="698" on="1"/>
        <pt x="627" y="0" on="1"/>
        <pt x="594" y="-28" on="0"/>
        <pt x="554" y="-66" on="0"/>
        <pt x="533" y="-93" on="0"/>
        <pt x="526" y="-111" on="0"/>
        <pt x="526" y="-120" on="1"/>
        <pt x="526" y="-137" on="0"/>
        <pt x="544" y="-150" on="0"/>
        <pt x="558" y="-150" on="1"/>
        <pt x="588" y="-150" on="0"/>
        <pt x="607" y="-125" on="1"/>
        <pt x="650" y="-167" on="1"/>
        <pt x="640" y="-184" on="0"/>
        <pt x="593" y="-208" on="0"/>
        <pt x="555" y="-208" on="1"/>
        <pt x="514" y="-208" on="0"/>
        <pt x="455" y="-171" on="0"/>
        <pt x="455" y="-130" on="1"/>
        <pt x="455" y="-91" on="0"/>
        <pt x="515" y="-33" on="0"/>
        <pt x="559" y="-4" on="1"/>
        <pt x="558" y="0" on="1"/>
        <pt x="525" y="0" on="1"/>
        <pt x="459" y="197" on="1"/>
        <pt x="187" y="197" on="1"/>
        <pt x="120" y="0" on="1"/>
        <pt x="22" y="0" on="1"/>
      </contour>
      <contour>
        <pt x="325" y="609" on="1"/>
        <pt x="320" y="609" on="1"/>
        <pt x="210" y="283" on="1"/>
        <pt x="435" y="283" on="1"/>
      </contour>
    </TTGlyph>
    <TTGlyph name="Aring" xMin="22" yMin="0" xMax="627" yMax="982">
      <component glyphName="A" x="0" y="0" flags="0x204"/>
      <component glyphName="ring.case" x="25" y="0" flags="0x4"/>
    </TTGlyph>
    <TTGlyph name="Aringacute" xMin="22" yMin="0" xMax="627" yMax="1125">
      <component glyphName="A" x="0" y="0" flags="0x204"/>
      <component glyphName="ringacute.case" x="25" y="0" flags="0x4"/>
    </TTGlyph>
    <TTGlyph name="Atilde" xMin="22" yMin="0" xMax="627" yMax="900">
      <component glyphName="A" x="0" y="0" flags="0x204"/>
      <component glyphName="tilde.case" x="25" y="0" flags="0x4"/>
    </TTGlyph>
    <TTGlyph name="B" xMin="90" yMin="0" xMax="598" yMax="698">
      <contour>
        <pt x="90" y="698" on="1"/>
        <pt x="387" y="698" on="1"/>
        <pt x="474" y="698" on="0"/>
        <pt x="574" y="600" on="0"/>
        <pt x="574" y="518" on="1"/>
        <pt x="574" y="479" on="0"/>
        <pt x="551" y="425" on="0"/>
        <pt x="517" y="390" on="0"/>
        <pt x="475" y="372" on="0"/>
        <pt x="456" y="370" on="1"/>
        <pt x="456" y="364" on="1"/>
        <pt x="476" y="363" on="0"/>
        <pt x="525" y="345" on="0"/>
        <pt x="569" y="306" on="0"/>
        <pt x="598" y="245" on="0"/>
        <pt x="598" y="201" on="1"/>
        <pt x="598" y="158" on="0"/>
        <pt x="570" y="85" on="0"/>
        <pt x="522" y="31" on="0"/>
        <pt x="456" y="0" on="0"/>
        <pt x="417" y="0" on="1"/>
        <pt x="90" y="0" on="1"/>
      </contour>
      <contour>
        <pt x="187" y="84" on="1"/>
        <pt x="388" y="84" on="1"/>
        <pt x="438" y="84" on="0"/>
        <pt x="494" y="134" on="0"/>
        <pt x="494" y="183" on="1"/>
        <pt x="494" y="218" on="1"/>
        <pt x="494" y="267" on="0"/>
        <pt x="438" y="317" on="0"/>
        <pt x="388" y="317" on="1"/>
        <pt x="187" y="317" on="1"/>
      </contour>
      <contour>
        <pt x="187" y="399" on="1"/>
        <pt x="372" y="399" on="1"/>
        <pt x="418" y="399" on="0"/>
        <pt x="470" y="446" on="0"/>
        <pt x="470" y="490" on="1"/>
        <pt x="470" y="523" on="1"/>
        <pt x="470" y="567" on="0"/>
        <pt x="418" y="614" on="0"/>
        <pt x="372" y="614" on="1"/>
        <pt x="187" y="614" on="1"/>
      </contour>
    </TTGlyph>
    <TTGlyph name="Beta" xMin="90" yMin="0" xMax="598" yMax="698">
      <component glyphName="B" x="0" y="0" flags="0x204"/>
    </TTGlyph>
    <TTGlyph name="C" xMin="56" yMin="-12" xMax="591" yMax="710">
      <contour>
        <pt x="343" y="-12" on="1"/>
        <pt x="209" y="-12" on="0"/>
        <pt x="56" y="173" on="0"/>
        <pt x="56" y="349" on="1"/>
        <pt x="56" y="525" on="0"/>
        <pt x="209" y="710" on="0"/>
        <pt x="343" y="710" on="1"/>
        <pt x="432" y="710" on="0"/>
        <pt x="553" y="630" on="0"/>
        <pt x="587" y="555" on="1"/>
        <pt x="507" y="509" on="1"/>
        <pt x="487" y="561" on="0"/>
        <pt x="406" y="623" on="0"/>
        <pt x="343" y="623" on="1"/>
        <pt x="257" y="623" on="0"/>
        <pt x="160" y="505" on="0"/>
        <pt x="160" y="402" on="1"/>
        <pt x="160" y="296" on="1"/>
        <pt x="160" y="193" on="0"/>
        <pt x="257" y="75" on="0"/>
        <pt x="343" y="75" on="1"/>
        <pt x="408" y="75" on="0"/>
        <pt x="493" y="142" on="0"/>
        <pt x="513" y="196" on="1"/>
        <pt x="591" y="149" on="1"/>
        <pt x="557" y="74" on="0"/>
        <pt x="432" y="-12" on="0"/>
      </contour>
    </TTGlyph>
    <TTGlyph name="Cacute" xMin="56" yMin="-12" xMax="591" yMax="954">
      <component glyphName="C" x="0" y="0" flags="0x204"/>
      <component glyphName="acute.case" x="41" y="0" flags="0x4"/>
    </TTGlyph>
    <TTGlyph name="Ccaron" xMin="56" yMin="-12" xMax="591" yMax="947">
      <component glyphName="C" x="0" y="0" flags="0x204"/>
      <component glyphName="caron.case" x="41" y="0" flags="0x4"/>
    </TTGlyph>
    <TTGlyph name="Ccedilla" xMin="56" yMin="-208" xMax="591" yMax="710">
      <contour>
        <pt x="343" y="623" on="1"/>
        <pt x="257" y="623" on="0"/>
        <pt x="160" y="505" on="0"/>
        <pt x="160" y="402" on="1"/>
        <pt x="160" y="296" on="1"/>
        <pt x="160" y="193" on="0"/>
        <pt x="257" y="75" on="0"/>
        <pt x="343" y="75" on="1"/>
        <pt x="408" y="75" on="0"/>
        <pt x="493" y="142" on="0"/>
        <pt x="513" y="196" on="1"/>
        <pt x="591" y="149" on="1"/>
        <pt x="559" y="77" on="0"/>
        <pt x="443" y="-6" on="0"/>
        <pt x="362" y="-11" on="1"/>
        <pt x="352" y="-60" on="1"/>
        <pt x="355" y="-63" on="1"/>
        <pt x="376" y="-57" on="0"/>
        <pt x="396" y="-57" on="1"/>
        <pt x="425" y="-57" on="0"/>
        <pt x="465" y="-90" on="0"/>
        <pt x="465" y="-123" on="1"/>
        <pt x="465" y="-146" on="0"/>
        <pt x="446" y="-178" on="0"/>
        <pt x="414" y="-198" on="0"/>
        <pt x="372" y="-208" on="0"/>
        <pt x="350" y="-208" on="1"/>
        <pt x="307" y="-208" on="0"/>
        <pt x="257" y="-181" on="0"/>
        <pt x="246" y="-166" on="1"/>
        <pt x="285" y="-123" on="1"/>
        <pt x="295" y="-134" on="0"/>
        <pt x="325" y="-151" on="0"/>
        <pt x="347" y="-151" on="1"/>
        <pt x="366" y="-151" on="0"/>
        <pt x="391" y="-136" on="0"/>
        <pt x="391" y="-121" on="1"/>
        <pt x="391" y="-107" on="0"/>
        <pt x="365" y="-86" on="0"/>
        <pt x="322" y="-80" on="1"/>
        <pt x="295" y="-76" on="1"/>
        <pt x="309" y="-10" on="1"/>
        <pt x="190" y="1" on="0"/>
        <pt x="56" y="184" on="0"/>
        <pt x="56" y="349" on="1"/>
        <pt x="56" y="525" on="0"/>
        <pt x="209" y="710" on="0"/>
        <pt x="343" y="710" on="1"/>
        <pt x="432" y="710" on="0"/>
        <pt x="553" y="630" on="0"/>
        <pt x="587" y="555" on="1"/>
        <pt x="507" y="509" on="1"/>
        <pt x="487" y="561" on="0"/>
        <pt x="406" y="623" on="0"/>
      </contour>
    </TTGlyph>
    <TTGlyph name="Ccircumflex" xMin="56" yMin="-12" xMax="591" yMax="939">
      <component glyphName="C" x="0" y="0" flags="0x204"/>
      <component glyphName="circumflex.case" x="41" y="0" flags="0x4"/>
    </TTGlyph>
    <TTGlyph name="Cdotaccent" xMin="56" yMin="-12" xMax="591" yMax="904">
      <component glyphName="C" x="0" y="0" flags="0x204"/>
      <component glyphName="dotaccent.case" x="41" y="0" flags="0x4"/>
    </TTGlyph>
    <TTGlyph name="Chi" xMin="22" yMin="0" xMax="602" yMax="698">
      <component glyphName="X" x="0" y="0" flags="0x204"/>
    </TTGlyph>
    <TTGlyph name="D" xMin="90" yMin="0" xMax="620" yMax="698">
      <contour>
        <pt x="90" y="698" on="1"/>
        <pt x="329" y="698" on="1"/>
        <pt x="395" y="698" on="0"/>
        <pt x="503" y="654" on="0"/>
        <pt x="579" y="567" on="0"/>
        <pt x="620" y="436" on="0"/>
        <pt x="620" y="349" on="1"/>
        <pt x="620" y="262" on="0"/>
        <pt x="579" y="131" on="0"/>
        <pt x="503" y="44" on="0"/>
        <pt x="395" y="0" on="0"/>
        <pt x="329" y="0" on="1"/>
        <pt x="90" y="0" on="1"/>
      </contour>
      <contour>
        <pt x="329" y="86" on="1"/>
        <pt x="371" y="86" on="0"/>
        <pt x="439" y="113" on="0"/>
        <pt x="489" y="166" on="0"/>
        <pt x="516" y="243" on="0"/>
        <pt x="516" y="293" on="1"/>
        <pt x="516" y="405" on="1"/>
        <pt x="516" y="455" on="0"/>
        <pt x="489" y="532" on="0"/>
        <pt x="439" y="585" on="0"/>
        <pt x="371" y="612" on="0"/>
        <pt x="329" y="612" on="1"/>
        <pt x="187" y="612" on="1"/>
        <pt x="187" y="86" on="1"/>
      </contour>
    </TTGlyph>
    <TTGlyph name="Dcaron" xMin="90" yMin="0" xMax="620" yMax="947">
      <component glyphName="D" x="0" y="0" flags="0x204"/>
      <component glyphName="caron.case" x="10" y="0" flags="0x4"/>
    </TTGlyph>
    <TTGlyph name="Dcroat" xMin="15" yMin="0" xMax="623" yMax="698">
      <contour>
        <pt x="93" y="329" on="1"/>
        <pt x="15" y="329" on="1"/>
        <pt x="15" y="403" on="1"/>
        <pt x="93" y="403" on="1"/>
        <pt x="93" y="698" on="1"/>
        <pt x="332" y="698" on="1"/>
        <pt x="398" y="698" on="0"/>
        <pt x="506" y="654" on="0"/>
        <pt x="582" y="567" on="0"/>
        <pt x="623" y="436" on="0"/>
        <pt x="623" y="349" on="1"/>
        <pt x="623" y="262" on="0"/>
        <pt x="582" y="131" on="0"/>
        <pt x="506" y="44" on="0"/>
        <pt x="398" y="0" on="0"/>
        <pt x="332" y="0" on="1"/>
        <pt x="93" y="0" on="1"/>
      </contour>
      <contour>
        <pt x="332" y="86" on="1"/>
        <pt x="374" y="86" on="0"/>
        <pt x="442" y="113" on="0"/>
        <pt x="492" y="166" on="0"/>
        <pt x="519" y="243" on="0"/>
        <pt x="519" y="293" on="1"/>
        <pt x="519" y="405" on="1"/>
        <pt x="519" y="455" on="0"/>
        <pt x="492" y="532" on="0"/>
        <pt x="442" y="585" on="0"/>
        <pt x="374" y="612" on="0"/>
        <pt x="332" y="612" on="1"/>
        <pt x="190" y="612" on="1"/>
        <pt x="190" y="403" on="1"/>
        <pt x="324" y="403" on="1"/>
        <pt x="324" y="329" on="1"/>
        <pt x="190" y="329" on="1"/>
        <pt x="190" y="86" on="1"/>
      </contour>
    </TTGlyph>
    <TTGlyph name="Delta" xMin="45" yMin="0" xMax="606" yMax="698">
      <contour>
        <pt x="45" y="84" on="1"/>
        <pt x="264" y="698" on="1"/>
        <pt x="387" y="698" on="1"/>
        <pt x="606" y="84" on="1"/>
        <pt x="606" y="0" on="1"/>
        <pt x="45" y="0" on="1"/>
      </contour>
      <contour>
        <pt x="326" y="609" on="1"/>
        <pt x="321" y="609" on="1"/>
        <pt x="143" y="85" on="1"/>
        <pt x="503" y="85" on="1"/>
      </contour>
    </TTGlyph>
    <TTGlyph name="E" xMin="90" yMin="0" xMax="525" yMax="698">
      <contour>
        <pt x="90" y="0" on="1"/>
        <pt x="90" y="698" on="1"/>
        <pt x="525" y="698" on="1"/>
        <pt x="525" y="612" on="1"/>
        <pt x="187" y="612" on="1"/>
        <pt x="187" y="396" on="1"/>
        <pt x="500" y="396" on="1"/>
        <pt x="500" y="310" on="1"/>
        <pt x="187" y="310" on="1"/>
        <pt x="187" y="86" on="1"/>
        <pt x="525" y="86" on="1"/>
        <pt x="525" y="0" on="1"/>
      </contour>
    </TTGlyph>
    <TTGlyph name="Eacute" xMin="90" yMin="0" xMax="525" yMax="954">
      <component glyphName="E" x="0" y="0" flags="0x204"/>
      <component glyphName="acute.case" x="6" y="0" flags="0x4"/>
    </TTGlyph>
    <TTGlyph name="Ebreve" xMin="90" yMin="0" xMax="525" yMax="920">
      <component glyphName="E" x="0" y="0" flags="0x204"/>
      <component glyphName="breve.case" x="6" y="0" flags="0x4"/>
    </TTGlyph>
    <TTGlyph name="Ecaron" xMin="90" yMin="0" xMax="525" yMax="947">
      <component glyphName="E" x="0" y="0" flags="0x204"/>
      <component glyphName="caron.case" x="6" y="0" flags="0x4"/>
    </TTGlyph>
    <TTGlyph name="Ecircumflex" xMin="90" yMin="0" xMax="525" yMax="939">
      <component glyphName="E" x="0" y="0" flags="0x204"/>
      <component glyphName="circumflex.case" x="6" y="0" flags="0x4"/>
    </TTGlyph>
    <TTGlyph name="Edieresis" xMin="90" yMin="0" xMax="525" yMax="897">
      <component glyphName="E" x="0" y="0" flags="0x204"/>
      <component glyphName="dieresis.case" x="6" y="0" flags="0x4"/>
    </TTGlyph>
    <TTGlyph name="Edotaccent" xMin="90" yMin="0" xMax="525" yMax="904">
      <component glyphName="E" x="0" y="0" flags="0x204"/>
      <component glyphName="dotaccent.case" x="6" y="0" flags="0x4"/>
    </TTGlyph>
    <TTGlyph name="Egrave" xMin="90" yMin="0" xMax="525" yMax="954">
      <component glyphName="E" x="0" y="0" flags="0x204"/>
      <component glyphName="grave.case" x="6" y="0" flags="0x4"/>
    </TTGlyph>
    <TTGlyph name="Emacron" xMin="90" yMin="0" xMax="525" yMax="877">
      <component glyphName="E" x="0" y="0" flags="0x204"/>
      <component glyphName="macron.case" x="6" y="0" flags="0x4"/>
    </TTGlyph>
    <TTGlyph name="Eng" xMin="90" yMin="-200" xMax="620" yMax="698">
      <contour>
        <pt x="90" y="0" on="1"/>
        <pt x="90" y="698" on="1"/>
        <pt x="198" y="698" on="1"/>
        <pt x="427" y="316" on="1"/>
        <pt x="523" y="141" on="1"/>
        <pt x="526" y="141" on="1"/>
        <pt x="526" y="698" on="1"/>
        <pt x="620" y="698" on="1"/>
        <pt x="620" y="-71" on="1"/>
        <pt x="620" y="-130" on="0"/>
        <pt x="562" y="-200" on="0"/>
        <pt x="500" y="-200" on="1"/>
        <pt x="440" y="-200" on="1"/>
        <pt x="440" y="-118" on="1"/>
        <pt x="526" y="-118" on="1"/>
        <pt x="526" y="0" on="1"/>
        <pt x="512" y="0" on="1"/>
        <pt x="283" y="382" on="1"/>
        <pt x="187" y="557" on="1"/>
        <pt x="184" y="557" on="1"/>
        <pt x="184" y="0" on="1"/>
      </contour>
    </TTGlyph>
    <TTGlyph name="Eogonek" xMin="90" yMin="-208" xMax="548" yMax="698">
      <contour>
        <pt x="90" y="698" on="1"/>
        <pt x="525" y="698" on="1"/>
        <pt x="525" y="612" on="1"/>
        <pt x="187" y="612" on="1"/>
        <pt x="187" y="396" on="1"/>
        <pt x="500" y="396" on="1"/>
        <pt x="500" y="310" on="1"/>
        <pt x="187" y="310" on="1"/>
        <pt x="187" y="86" on="1"/>
        <pt x="525" y="86" on="1"/>
        <pt x="525" y="0" on="1"/>
        <pt x="492" y="-28" on="0"/>
        <pt x="453" y="-66" on="0"/>
        <pt x="431" y="-93" on="0"/>
        <pt x="424" y="-111" on="0"/>
        <pt x="424" y="-120" on="1"/>
        <pt x="424" y="-137" on="0"/>
        <pt x="442" y="-150" on="0"/>
        <pt x="456" y="-150" on="1"/>
        <pt x="486" y="-150" on="0"/>
        <pt x="505" y="-125" on="1"/>
        <pt x="548" y="-167" on="1"/>
        <pt x="538" y="-184" on="0"/>
        <pt x="490" y="-208" on="0"/>
        <pt x="453" y="-208" on="1"/>
        <pt x="412" y="-208" on="0"/>
        <pt x="353" y="-171" on="0"/>
        <pt x="353" y="-130" on="1"/>
        <pt x="353" y="-91" on="0"/>
        <pt x="413" y="-32" on="0"/>
        <pt x="458" y="-5" on="1"/>
        <pt x="457" y="0" on="1"/>
        <pt x="90" y="0" on="1"/>
      </contour>
    </TTGlyph>
    <TTGlyph name="Epsilon" xMin="90" yMin="0" xMax="525" yMax="698">
      <component glyphName="E" x="0" y="0" flags="0x204"/>
    </TTGlyph>
    <TTGlyph name="Epsilontonos" xMin="-22" yMin="0" xMax="564" yMax="787">
      <component glyphName="E" x="39" y="0" flags="0x4"/>
      <component glyphName="tonos.case" x="-297" y="0" flags="0x4"/>
    </TTGlyph>
    <TTGlyph name="Eta" xMin="90" yMin="0" xMax="620" yMax="698">
      <component glyphName="H" x="0" y="0" flags="0x204"/>
    </TTGlyph>
    <TTGlyph name="Etatonos" xMin="-22" yMin="0" xMax="659" yMax="787">
      <component glyphName="H" x="39" y="0" flags="0x4"/>
      <component glyphName="tonos.case" x="-297" y="0" flags="0x4"/>
    </TTGlyph>
    <TTGlyph name="Eth" xMin="15" yMin="0" xMax="623" yMax="698">
      <component glyphName="Dcroat" x="0" y="0" flags="0x204"/>
    </TTGlyph>
    <TTGlyph name="Euro" xMin="56" yMin="-12" xMax="584" yMax="710">
      <contour>
        <pt x="341" y="-12" on="1"/>
        <pt x="275" y="-12" on="0"/>
        <pt x="169" y="36" on="0"/>
        <pt x="95" y="127" on="0"/>
        <pt x="56" y="262" on="0"/>
        <pt x="56" y="349" on="1"/>
        <pt x="56" y="436" on="0"/>
        <pt x="95" y="571" on="0"/>
        <pt x="169" y="662" on="0"/>
        <pt x="275" y="710" on="0"/>
        <pt x="341" y="710" on="1"/>
        <pt x="431" y="710" on="0"/>
        <pt x="545" y="630" on="0"/>
        <pt x="578" y="563" on="1"/>
        <pt x="504" y="516" on="1"/>
        <pt x="483" y="567" on="0"/>
        <pt x="401" y="627" on="0"/>
        <pt x="341" y="627" on="1"/>
        <pt x="266" y="627" on="0"/>
        <pt x="174" y="539" on="0"/>
        <pt x="162" y="466" on="1"/>
        <pt x="413" y="466" on="1"/>
        <pt x="413" y="395" on="1"/>
        <pt x="157" y="395" on="1"/>
        <pt x="157" y="303" on="1"/>
        <pt x="413" y="303" on="1"/>
        <pt x="413" y="232" on="1"/>
        <pt x="162" y="232" on="1"/>
        <pt x="176" y="158" on="0"/>
        <pt x="266" y="71" on="0"/>
        <pt x="341" y="71" on="1"/>
        <pt x="403" y="71" on="0"/>
        <pt x="487" y="136" on="0"/>
        <pt x="510" y="190" on="1"/>
        <pt x="584" y="140" on="1"/>
        <pt x="568" y="108" on="0"/>
        <pt x="524" y="52" on="0"/>
        <pt x="465" y="11" on="0"/>
        <pt x="389" y="-12" on="0"/>
      </contour>
    </TTGlyph>
    <TTGlyph name="F" xMin="90" yMin="0" xMax="515" yMax="698">
      <contour>
        <pt x="90" y="0" on="1"/>
        <pt x="90" y="698" on="1"/>
        <pt x="515" y="698" on="1"/>
        <pt x="515" y="612" on="1"/>
        <pt x="187" y="612" on="1"/>
        <pt x="187" y="396" on="1"/>
        <pt x="483" y="396" on="1"/>
        <pt x="483" y="310" on="1"/>
        <pt x="187" y="310" on="1"/>
        <pt x="187" y="0" on="1"/>
      </contour>
    </TTGlyph>
    <TTGlyph name="G" xMin="56" yMin="-12" xMax="627" yMax="710">
      <contour>
        <pt x="540" y="104" on="1"/>
        <pt x="536" y="104" on="1"/>
        <pt x="525" y="54" on="0"/>
        <pt x="425" y="-12" on="0"/>
        <pt x="345" y="-12" on="1"/>
        <pt x="282" y="-12" on="0"/>
        <pt x="175" y="35" on="0"/>
        <pt x="99" y="126" on="0"/>
        <pt x="56" y="260" on="0"/>
        <pt x="56" y="348" on="1"/>
        <pt x="56" y="435" on="0"/>
        <pt x="99" y="570" on="0"/>
        <pt x="178" y="662" on="0"/>
        <pt x="289" y="710" on="0"/>
        <pt x="357" y="710" on="1"/>
        <pt x="451" y="710" on="0"/>
        <pt x="579" y="626" on="0"/>
        <pt x="614" y="555" on="1"/>
        <pt x="534" y="508" on="1"/>
        <pt x="511" y="561" on="0"/>
        <pt x="422" y="623" on="0"/>
        <pt x="357" y="623" on="1"/>
        <pt x="313" y="623" on="0"/>
        <pt x="240" y="593" on="0"/>
        <pt x="188" y="537" on="0"/>
        <pt x="160" y="456" on="0"/>
        <pt x="160" y="406" on="1"/>
        <pt x="160" y="293" on="1"/>
        <pt x="160" y="243" on="0"/>
        <pt x="188" y="162" on="0"/>
        <pt x="241" y="105" on="0"/>
        <pt x="316" y="75" on="0"/>
        <pt x="363" y="75" on="1"/>
        <pt x="398" y="75" on="0"/>
        <pt x="460" y="93" on="0"/>
        <pt x="506" y="128" on="0"/>
        <pt x="533" y="182" on="0"/>
        <pt x="533" y="218" on="1"/>
        <pt x="533" y="281" on="1"/>
        <pt x="384" y="281" on="1"/>
        <pt x="384" y="365" on="1"/>
        <pt x="627" y="365" on="1"/>
        <pt x="627" y="0" on="1"/>
        <pt x="540" y="0" on="1"/>
      </contour>
    </TTGlyph>
    <TTGlyph name="Gamma" xMin="90" yMin="0" xMax="476" yMax="698">
      <component glyphName="uni0413" x="0" y="0" flags="0x204"/>
    </TTGlyph>
    <TTGlyph name="Gbreve" xMin="56" yMin="-12" xMax="627" yMax="920">
      <component glyphName="G" x="0" y="0" flags="0x204"/>
      <component glyphName="breve.case" x="55" y="0" flags="0x4"/>
    </TTGlyph>
    <TTGlyph name="Gcircumflex" xMin="56" yMin="-12" xMax="627" yMax="939">
      <component glyphName="G" x="0" y="0" flags="0x204"/>
      <component glyphName="circumflex.case" x="55" y="0" flags="0x4"/>
    </TTGlyph>
    <TTGlyph name="Gcommaaccent" xMin="56" yMin="-251" xMax="627" yMax="710">
      <component glyphName="G" x="0" y="0" flags="0x204"/>
      <component glyphName="uni0326" x="348" y="0" flags="0x4"/>
    </TTGlyph>
    <TTGlyph name="Gdotaccent" xMin="56" yMin="-12" xMax="627" yMax="904">
      <component glyphName="G" x="0" y="0" flags="0x204"/>
      <component glyphName="dotaccent.case" x="55" y="0" flags="0x4"/>
    </TTGlyph>
    <TTGlyph name="H" xMin="90" yMin="0" xMax="620" yMax="698">
      <contour>
        <pt x="523" y="310" on="1"/>
        <pt x="187" y="310" on="1"/>
        <pt x="187" y="0" on="1"/>
        <pt x="90" y="0" on="1"/>
        <pt x="90" y="698" on="1"/>
        <pt x="187" y="698" on="1"/>
        <pt x="187" y="396" on="1"/>
        <pt x="523" y="396" on="1"/>
        <pt x="523" y="698" on="1"/>
        <pt x="620" y="698" on="1"/>
        <pt x="620" y="0" on="1"/>
        <pt x="523" y="0" on="1"/>
      </contour>
    </TTGlyph>
    <TTGlyph name="Hbar" xMin="23" yMin="0" xMax="695" yMax="698">
      <contour>
        <pt x="527" y="310" on="1"/>
        <pt x="191" y="310" on="1"/>
        <pt x="191" y="0" on="1"/>
        <pt x="94" y="0" on="1"/>
        <pt x="94" y="518" on="1"/>
        <pt x="23" y="518" on="1"/>
        <pt x="23" y="590" on="1"/>
        <pt x="94" y="590" on="1"/>
        <pt x="94" y="698" on="1"/>
        <pt x="191" y="698" on="1"/>
        <pt x="191" y="590" on="1"/>
        <pt x="527" y="590" on="1"/>
        <pt x="527" y="698" on="1"/>
        <pt x="624" y="698" on="1"/>
        <pt x="624" y="590" on="1"/>
        <pt x="695" y="590" on="1"/>
        <pt x="695" y="518" on="1"/>
        <pt x="624" y="518" on="1"/>
        <pt x="624" y="0" on="1"/>
        <pt x="527" y="0" on="1"/>
      </contour>
      <contour>
        <pt x="527" y="396" on="1"/>
        <pt x="527" y="518" on="1"/>
        <pt x="191" y="518" on="1"/>
        <pt x="191" y="396" on="1"/>
      </contour>
    </TTGlyph>
    <TTGlyph name="Hcircumflex" xMin="90" yMin="0" xMax="620" yMax="939">
      <component glyphName="H" x="0" y="0" flags="0x204"/>
      <component glyphName="circumflex.case" x="56" y="0" flags="0x4"/>
    </TTGlyph>
    <TTGlyph name="I" xMin="58" yMin="0" xMax="349" yMax="698">
      <contour>
        <pt x="58" y="0" on="1"/>
        <pt x="58" y="82" on="1"/>
        <pt x="155" y="82" on="1"/>
        <pt x="155" y="616" on="1"/>
        <pt x="58" y="616" on="1"/>
        <pt x="58" y="698" on="1"/>
        <pt x="349" y="698" on="1"/>
        <pt x="349" y="616" on="1"/>
        <pt x="252" y="616" on="1"/>
        <pt x="252" y="82" on="1"/>
        <pt x="349" y="82" on="1"/>
        <pt x="349" y="0" on="1"/>
      </contour>
    </TTGlyph>
    <TTGlyph name="IJ" xMin="85" yMin="-12" xMax="562" yMax="698">
      <contour>
        <pt x="562" y="698" on="1"/>
        <pt x="562" y="222" on="1"/>
        <pt x="562" y="168" on="0"/>
        <pt x="529" y="81" on="0"/>
        <pt x="466" y="20" on="0"/>
        <pt x="377" y="-12" on="0"/>
        <pt x="321" y="-12" on="1"/>
        <pt x="270" y="-12" on="0"/>
        <pt x="191" y="14" on="0"/>
        <pt x="134" y="60" on="0"/>
        <pt x="97" y="123" on="0"/>
        <pt x="90" y="160" on="1"/>
        <pt x="179" y="180" on="1"/>
        <pt x="190" y="133" on="0"/>
        <pt x="258" y="75" on="0"/>
        <pt x="324" y="75" on="1"/>
        <pt x="388" y="75" on="0"/>
        <pt x="465" y="140" on="0"/>
        <pt x="465" y="210" on="1"/>
        <pt x="465" y="612" on="1"/>
        <pt x="325" y="612" on="1"/>
        <pt x="325" y="698" on="1"/>
      </contour>
      <contour>
        <pt x="85" y="698" on="1"/>
        <pt x="182" y="698" on="1"/>
        <pt x="182" y="294" on="1"/>
        <pt x="85" y="294" on="1"/>
      </contour>
    </TTGlyph>
    <TTGlyph name="IJacute" xMin="84" yMin="-12" xMax="563" yMax="954">
      <component glyphName="IJ" x="0" y="0" flags="0x204"/>
      <component glyphName="acute.case" x="-166" y="0" flags="0x4"/>
      <component glyphName="acute.case" x="143" y="0" flags="0x4"/>
    </TTGlyph>
    <TTGlyph name="Iacute" xMin="58" yMin="0" xMax="349" yMax="954">
      <component glyphName="I" x="0" y="0" flags="0x204"/>
      <component glyphName="acute.case" x="-96" y="0" flags="0x4"/>
    </TTGlyph>
    <TTGlyph name="Ibreve" xMin="45" yMin="0" xMax="363" yMax="920">
      <component glyphName="I" x="0" y="0" flags="0x204"/>
      <component glyphName="breve.case" x="-96" y="0" flags="0x4"/>
    </TTGlyph>
    <TTGlyph name="Icircumflex" xMin="37" yMin="0" xMax="371" yMax="939">
      <component glyphName="I" x="0" y="0" flags="0x204"/>
      <component glyphName="circumflex.case" x="-96" y="0" flags="0x4"/>
    </TTGlyph>
    <TTGlyph name="Idieresis" xMin="53" yMin="0" xMax="355" yMax="897">
      <component glyphName="I" x="0" y="0" flags="0x204"/>
      <component glyphName="dieresis.case" x="-96" y="0" flags="0x4"/>
    </TTGlyph>
    <TTGlyph name="Idotaccent" xMin="58" yMin="0" xMax="349" yMax="904">
      <component glyphName="I" x="0" y="0" flags="0x204"/>
      <component glyphName="dotaccent.case" x="-96" y="0" flags="0x4"/>
    </TTGlyph>
    <TTGlyph name="Igrave" xMin="58" yMin="0" xMax="349" yMax="954">
      <component glyphName="I" x="0" y="0" flags="0x204"/>
      <component glyphName="grave.case" x="-96" y="0" flags="0x4"/>
    </TTGlyph>
    <TTGlyph name="Imacron" xMin="58" yMin="0" xMax="349" yMax="877">
      <component glyphName="I" x="0" y="0" flags="0x204"/>
      <component glyphName="macron.case" x="-96" y="0" flags="0x4"/>
    </TTGlyph>
    <TTGlyph name="Iogonek" xMin="58" yMin="-208" xMax="372" yMax="698">
      <contour>
        <pt x="58" y="82" on="1"/>
        <pt x="155" y="82" on="1"/>
        <pt x="155" y="616" on="1"/>
        <pt x="58" y="616" on="1"/>
        <pt x="58" y="698" on="1"/>
        <pt x="349" y="698" on="1"/>
        <pt x="349" y="616" on="1"/>
        <pt x="252" y="616" on="1"/>
        <pt x="252" y="82" on="1"/>
        <pt x="349" y="82" on="1"/>
        <pt x="349" y="0" on="1"/>
        <pt x="316" y="-28" on="0"/>
        <pt x="276" y="-66" on="0"/>
        <pt x="255" y="-93" on="0"/>
        <pt x="248" y="-111" on="0"/>
        <pt x="248" y="-120" on="1"/>
        <pt x="248" y="-137" on="0"/>
        <pt x="266" y="-150" on="0"/>
        <pt x="280" y="-150" on="1"/>
        <pt x="310" y="-150" on="0"/>
        <pt x="329" y="-125" on="1"/>
        <pt x="372" y="-167" on="1"/>
        <pt x="362" y="-184" on="0"/>
        <pt x="314" y="-208" on="0"/>
        <pt x="277" y="-208" on="1"/>
        <pt x="236" y="-208" on="0"/>
        <pt x="177" y="-171" on="0"/>
        <pt x="177" y="-130" on="1"/>
        <pt x="177" y="-92" on="0"/>
        <pt x="232" y="-35" on="0"/>
        <pt x="282" y="-5" on="1"/>
        <pt x="281" y="0" on="1"/>
        <pt x="58" y="0" on="1"/>
      </contour>
    </TTGlyph>
    <TTGlyph name="Iota" xMin="58" yMin="0" xMax="349" yMax="698">
      <component glyphName="I" x="0" y="0" flags="0x204"/>
    </TTGlyph>
    <TTGlyph name="Iotadieresis" xMin="54" yMin="0" xMax="356" yMax="897">
      <component glyphName="I" x="0" y="0" flags="0x204"/>
      <component glyphName="dieresis.case" x="-95" y="0" flags="0x4"/>
    </TTGlyph>
    <TTGlyph name="Iotatonos" xMin="-22" yMin="0" xMax="420" yMax="787">
      <component glyphName="I" x="71" y="0" flags="0x4"/>
      <component glyphName="tonos.case" x="-297" y="0" flags="0x4"/>
    </TTGlyph>
    <TTGlyph name="Itilde" xMin="32" yMin="0" xMax="376" yMax="900">
      <component glyphName="I" x="0" y="0" flags="0x204"/>
      <component glyphName="tilde.case" x="-96" y="0" flags="0x4"/>
    </TTGlyph>
    <TTGlyph name="J" xMin="27" yMin="-12" xMax="434" yMax="698">
      <contour>
        <pt x="434" y="698" on="1"/>
        <pt x="434" y="185" on="1"/>
        <pt x="434" y="140" on="0"/>
        <pt x="404" y="67" on="0"/>
        <pt x="350" y="16" on="0"/>
        <pt x="275" y="-12" on="0"/>
        <pt x="229" y="-12" on="1"/>
        <pt x="143" y="-12" on="0"/>
        <pt x="42" y="79" on="0"/>
        <pt x="27" y="154" on="1"/>
        <pt x="116" y="174" on="1"/>
        <pt x="126" y="129" on="0"/>
        <pt x="179" y="75" on="0"/>
        <pt x="230" y="75" on="1"/>
        <pt x="280" y="75" on="0"/>
        <pt x="337" y="135" on="0"/>
        <pt x="337" y="198" on="1"/>
        <pt x="337" y="612" on="1"/>
        <pt x="103" y="612" on="1"/>
        <pt x="103" y="698" on="1"/>
      </contour>
    </TTGlyph>
    <TTGlyph name="Jacute" xMin="27" yMin="-12" xMax="434" yMax="954">
      <component glyphName="J" x="0" y="0" flags="0x204"/>
      <component glyphName="acute.case" x="-28" y="0" flags="0x4"/>
    </TTGlyph>
    <TTGlyph name="Jcircumflex" xMin="27" yMin="-12" xMax="439" yMax="939">
      <component glyphName="J" x="0" y="0" flags="0x204"/>
      <component glyphName="circumflex.case" x="-28" y="0" flags="0x4"/>
    </TTGlyph>
    <TTGlyph name="K" xMin="90" yMin="0" xMax="626" yMax="698">
      <contour>
        <pt x="284" y="336" on="1"/>
        <pt x="187" y="226" on="1"/>
        <pt x="187" y="0" on="1"/>
        <pt x="90" y="0" on="1"/>
        <pt x="90" y="698" on="1"/>
        <pt x="187" y="698" on="1"/>
        <pt x="187" y="334" on="1"/>
        <pt x="191" y="334" on="1"/>
        <pt x="290" y="458" on="1"/>
        <pt x="491" y="698" on="1"/>
        <pt x="607" y="698" on="1"/>
        <pt x="352" y="401" on="1"/>
        <pt x="626" y="0" on="1"/>
        <pt x="507" y="0" on="1"/>
      </contour>
    </TTGlyph>
    <TTGlyph name="Kappa" xMin="90" yMin="0" xMax="626" yMax="698">
      <component glyphName="K" x="0" y="0" flags="0x204"/>
    </TTGlyph>
    <TTGlyph name="Kcommaaccent" xMin="90" yMin="-251" xMax="626" yMax="698">
      <component glyphName="K" x="0" y="0" flags="0x204"/>
      <component glyphName="uni0326" x="342" y="0" flags="0x4"/>
    </TTGlyph>
    <TTGlyph name="L" xMin="90" yMin="0" xMax="478" yMax="698">
      <contour>
        <pt x="90" y="0" on="1"/>
        <pt x="90" y="698" on="1"/>
        <pt x="187" y="698" on="1"/>
        <pt x="187" y="86" on="1"/>
        <pt x="478" y="86" on="1"/>
        <pt x="478" y="0" on="1"/>
      </contour>
    </TTGlyph>
    <TTGlyph name="Lacute" xMin="89" yMin="0" xMax="478" yMax="954">
      <component glyphName="L" x="0" y="0" flags="0x204"/>
      <component glyphName="acute.case" x="-161" y="0" flags="0x4"/>
    </TTGlyph>
    <TTGlyph name="Lambda" xMin="22" yMin="0" xMax="615" yMax="698">
      <contour>
        <pt x="379" y="698" on="1"/>
        <pt x="615" y="0" on="1"/>
        <pt x="513" y="0" on="1"/>
        <pt x="400" y="349" on="1"/>
        <pt x="319" y="607" on="1"/>
        <pt x="314" y="607" on="1"/>
        <pt x="234" y="349" on="1"/>
        <pt x="121" y="0" on="1"/>
        <pt x="22" y="0" on="1"/>
        <pt x="258" y="698" on="1"/>
      </contour>
    </TTGlyph>
    <TTGlyph name="Lcaron" xMin="90" yMin="0" xMax="478" yMax="740">
      <component glyphName="L" x="0" y="0" flags="0x204"/>
      <component glyphName="uni02BC" x="-4" y="0" flags="0x4"/>
    </TTGlyph>
    <TTGlyph name="Lcommaaccent" xMin="90" yMin="-251" xMax="478" yMax="698">
      <component glyphName="L" x="0" y="0" flags="0x204"/>
      <component glyphName="uni0326" x="296" y="0" flags="0x4"/>
    </TTGlyph>
    <TTGlyph name="Ldot" xMin="90" yMin="0" xMax="478" yMax="698">
      <component glyphName="L" x="0" y="0" flags="0x204"/>
      <component glyphName="dotaccent" x="90" y="-314" flags="0x4"/>
    </TTGlyph>
    <TTGlyph name="Lslash" xMin="-7" yMin="0" xMax="481" yMax="698">
      <contour>
        <pt x="481" y="0" on="1"/>
        <pt x="93" y="0" on="1"/>
        <pt x="93" y="266" on="1"/>
        <pt x="-7" y="232" on="1"/>
        <pt x="-7" y="308" on="1"/>
        <pt x="93" y="342" on="1"/>
        <pt x="93" y="698" on="1"/>
        <pt x="190" y="698" on="1"/>
        <pt x="190" y="373" on="1"/>
        <pt x="367" y="432" on="1"/>
        <pt x="367" y="356" on="1"/>
        <pt x="190" y="297" on="1"/>
        <pt x="190" y="86" on="1"/>
        <pt x="481" y="86" on="1"/>
      </contour>
    </TTGlyph>
    <TTGlyph name="M" xMin="90" yMin="0" xMax="722" yMax="698">
      <contour>
        <pt x="628" y="564" on="1"/>
        <pt x="623" y="564" on="1"/>
        <pt x="566" y="449" on="1"/>
        <pt x="406" y="156" on="1"/>
        <pt x="246" y="449" on="1"/>
        <pt x="189" y="564" on="1"/>
        <pt x="184" y="564" on="1"/>
        <pt x="184" y="0" on="1"/>
        <pt x="90" y="0" on="1"/>
        <pt x="90" y="698" on="1"/>
        <pt x="212" y="698" on="1"/>
        <pt x="406" y="331" on="1"/>
        <pt x="410" y="331" on="1"/>
        <pt x="604" y="698" on="1"/>
        <pt x="722" y="698" on="1"/>
        <pt x="722" y="0" on="1"/>
        <pt x="628" y="0" on="1"/>
      </contour>
    </TTGlyph>
    <TTGlyph name="Mu" xMin="90" yMin="0" xMax="722" yMax="698">
      <component glyphName="M" x="0" y="0" flags="0x204"/>
    </TTGlyph>
    <TTGlyph name="N" xMin="90" yMin="0" xMax="620" yMax="698">
      <contour>
        <pt x="283" y="382" on="1"/>
        <pt x="187" y="557" on="1"/>
        <pt x="184" y="557" on="1"/>
        <pt x="184" y="0" on="1"/>
        <pt x="90" y="0" on="1"/>
        <pt x="90" y="698" on="1"/>
        <pt x="198" y="698" on="1"/>
        <pt x="427" y="316" on="1"/>
        <pt x="523" y="141" on="1"/>
        <pt x="526" y="141" on="1"/>
        <pt x="526" y="698" on="1"/>
        <pt x="620" y="698" on="1"/>
        <pt x="620" y="0" on="1"/>
        <pt x="512" y="0" on="1"/>
      </contour>
    </TTGlyph>
    <TTGlyph name="Nacute" xMin="90" yMin="0" xMax="620" yMax="954">
      <component glyphName="N" x="0" y="0" flags="0x204"/>
      <component glyphName="acute.case" x="55" y="0" flags="0x4"/>
    </TTGlyph>
    <TTGlyph name="Ncaron" xMin="90" yMin="0" xMax="620" yMax="947">
      <component glyphName="N" x="0" y="0" flags="0x204"/>
      <component glyphName="caron.case" x="55" y="0" flags="0x4"/>
    </TTGlyph>
    <TTGlyph name="Ncommaaccent" xMin="90" yMin="-251" xMax="620" yMax="698">
      <component glyphName="N" x="0" y="0" flags="0x204"/>
      <component glyphName="uni0326" x="355" y="0" flags="0x4"/>
    </TTGlyph>
    <TTGlyph name="Ntilde" xMin="90" yMin="0" xMax="620" yMax="900">
      <component glyphName="N" x="0" y="0" flags="0x204"/>
      <component glyphName="tilde.case" x="55" y="0" flags="0x4"/>
    </TTGlyph>
    <TTGlyph name="Nu" xMin="90" yMin="0" xMax="620" yMax="698">
      <component glyphName="N" x="0" y="0" flags="0x204"/>
    </TTGlyph>
    <TTGlyph name="O" xMin="56" yMin="-12" xMax="652" yMax="710">
      <contour>
        <pt x="354" y="-12" on="1"/>
        <pt x="286" y="-12" on="0"/>
        <pt x="176" y="35" on="0"/>
        <pt x="98" y="126" on="0"/>
        <pt x="56" y="261" on="0"/>
        <pt x="56" y="349" on="1"/>
        <pt x="56" y="437" on="0"/>
        <pt x="98" y="572" on="0"/>
        <pt x="176" y="663" on="0"/>
        <pt x="286" y="710" on="0"/>
        <pt x="354" y="710" on="1"/>
        <pt x="422" y="710" on="0"/>
        <pt x="532" y="663" on="0"/>
        <pt x="610" y="572" on="0"/>
        <pt x="652" y="437" on="0"/>
        <pt x="652" y="349" on="1"/>
        <pt x="652" y="261" on="0"/>
        <pt x="610" y="126" on="0"/>
        <pt x="532" y="35" on="0"/>
        <pt x="422" y="-12" on="0"/>
      </contour>
      <contour>
        <pt x="354" y="75" on="1"/>
        <pt x="397" y="75" on="0"/>
        <pt x="469" y="105" on="0"/>
        <pt x="520" y="162" on="0"/>
        <pt x="548" y="242" on="0"/>
        <pt x="548" y="292" on="1"/>
        <pt x="548" y="406" on="1"/>
        <pt x="548" y="456" on="0"/>
        <pt x="520" y="536" on="0"/>
        <pt x="469" y="593" on="0"/>
        <pt x="397" y="623" on="0"/>
        <pt x="354" y="623" on="1"/>
        <pt x="310" y="623" on="0"/>
        <pt x="239" y="593" on="0"/>
        <pt x="188" y="536" on="0"/>
        <pt x="160" y="456" on="0"/>
        <pt x="160" y="406" on="1"/>
        <pt x="160" y="292" on="1"/>
        <pt x="160" y="242" on="0"/>
        <pt x="188" y="162" on="0"/>
        <pt x="239" y="105" on="0"/>
        <pt x="310" y="75" on="0"/>
      </contour>
    </TTGlyph>
    <TTGlyph name="OE" xMin="56" yMin="-12" xMax="925" yMax="710">
      <contour>
        <pt x="490" y="0" on="1"/>
        <pt x="464" y="-5" on="0"/>
        <pt x="395" y="-12" on="0"/>
        <pt x="365" y="-12" on="1"/>
        <pt x="293" y="-12" on="0"/>
        <pt x="178" y="35" on="0"/>
        <pt x="99" y="126" on="0"/>
        <pt x="56" y="261" on="0"/>
        <pt x="56" y="349" on="1"/>
        <pt x="56" y="437" on="0"/>
        <pt x="99" y="572" on="0"/>
        <pt x="178" y="663" on="0"/>
        <pt x="293" y="710" on="0"/>
        <pt x="365" y="710" on="1"/>
        <pt x="395" y="710" on="0"/>
        <pt x="464" y="703" on="0"/>
        <pt x="492" y="698" on="1"/>
        <pt x="925" y="698" on="1"/>
        <pt x="925" y="612" on="1"/>
        <pt x="586" y="612" on="1"/>
        <pt x="586" y="396" on="1"/>
        <pt x="900" y="396" on="1"/>
        <pt x="900" y="310" on="1"/>
        <pt x="586" y="310" on="1"/>
        <pt x="586" y="86" on="1"/>
        <pt x="925" y="86" on="1"/>
        <pt x="925" y="0" on="1"/>
      </contour>
      <contour>
        <pt x="373" y="75" on="1"/>
        <pt x="401" y="75" on="0"/>
        <pt x="462" y="83" on="0"/>
        <pt x="489" y="91" on="1"/>
        <pt x="489" y="607" on="1"/>
        <pt x="462" y="615" on="0"/>
        <pt x="401" y="623" on="0"/>
        <pt x="373" y="623" on="1"/>
        <pt x="265" y="623" on="0"/>
        <pt x="160" y="506" on="0"/>
        <pt x="160" y="406" on="1"/>
        <pt x="160" y="292" on="1"/>
        <pt x="160" y="192" on="0"/>
        <pt x="265" y="75" on="0"/>
      </contour>
    </TTGlyph>
    <TTGlyph name="Oacute" xMin="56" yMin="-12" xMax="652" yMax="954">
      <component glyphName="O" x="0" y="0" flags="0x204"/>
      <component glyphName="acute.case" x="54" y="0" flags="0x4"/>
    </TTGlyph>
    <TTGlyph name="Obreve" xMin="56" yMin="-12" xMax="652" yMax="920">
      <component glyphName="O" x="0" y="0" flags="0x204"/>
      <component glyphName="breve.case" x="54" y="0" flags="0x4"/>
    </TTGlyph>
    <TTGlyph name="Ocircumflex" xMin="56" yMin="-12" xMax="652" yMax="939">
      <component glyphName="O" x="0" y="0" flags="0x204"/>
      <component glyphName="circumflex.case" x="54" y="0" flags="0x4"/>
    </TTGlyph>
    <TTGlyph name="Odieresis" xMin="56" yMin="-12" xMax="652" yMax="897">
      <component glyphName="O" x="0" y="0" flags="0x204"/>
      <component glyphName="dieresis.case" x="54" y="0" flags="0x4"/>
    </TTGlyph>
    <TTGlyph name="Ograve" xMin="56" yMin="-12" xMax="652" yMax="954">
      <component glyphName="O" x="0" y="0" flags="0x204"/>
      <component glyphName="grave.case" x="54" y="0" flags="0x4"/>
    </TTGlyph>
    <TTGlyph name="Ohorn" xMin="56" yMin="-12" xMax="661" yMax="811">
      <contour>
        <pt x="661" y="811" on="1"/>
        <pt x="661" y="710" on="1"/>
        <pt x="661" y="678" on="0"/>
        <pt x="633" y="640" on="0"/>
        <pt x="591" y="640" on="1"/>
        <pt x="550" y="640" on="1"/>
        <pt x="605" y="586" on="0"/>
        <pt x="652" y="440" on="0"/>
        <pt x="652" y="349" on="1"/>
        <pt x="652" y="261" on="0"/>
        <pt x="610" y="126" on="0"/>
        <pt x="532" y="35" on="0"/>
        <pt x="422" y="-12" on="0"/>
        <pt x="354" y="-12" on="1"/>
        <pt x="286" y="-12" on="0"/>
        <pt x="176" y="35" on="0"/>
        <pt x="98" y="126" on="0"/>
        <pt x="56" y="261" on="0"/>
        <pt x="56" y="349" on="1"/>
        <pt x="56" y="437" on="0"/>
        <pt x="98" y="572" on="0"/>
        <pt x="176" y="663" on="0"/>
        <pt x="286" y="710" on="0"/>
        <pt x="354" y="710" on="1"/>
        <pt x="403" y="710" on="0"/>
        <pt x="445" y="698" on="1"/>
        <pt x="580" y="698" on="1"/>
        <pt x="580" y="811" on="1"/>
      </contour>
      <contour>
        <pt x="354" y="75" on="1"/>
        <pt x="397" y="75" on="0"/>
        <pt x="469" y="105" on="0"/>
        <pt x="520" y="162" on="0"/>
        <pt x="548" y="242" on="0"/>
        <pt x="548" y="292" on="1"/>
        <pt x="548" y="406" on="1"/>
        <pt x="548" y="456" on="0"/>
        <pt x="520" y="536" on="0"/>
        <pt x="469" y="593" on="0"/>
        <pt x="397" y="623" on="0"/>
        <pt x="354" y="623" on="1"/>
        <pt x="310" y="623" on="0"/>
        <pt x="239" y="593" on="0"/>
        <pt x="188" y="536" on="0"/>
        <pt x="160" y="456" on="0"/>
        <pt x="160" y="406" on="1"/>
        <pt x="160" y="292" on="1"/>
        <pt x="160" y="242" on="0"/>
        <pt x="188" y="162" on="0"/>
        <pt x="239" y="105" on="0"/>
        <pt x="310" y="75" on="0"/>
      </contour>
    </TTGlyph>
    <TTGlyph name="Ohungarumlaut" xMin="56" yMin="-12" xMax="652" yMax="953">
      <component glyphName="O" x="0" y="0" flags="0x204"/>
      <component glyphName="hungarumlaut.case" x="54" y="0" flags="0x4"/>
    </TTGlyph>
    <TTGlyph name="Omacron" xMin="56" yMin="-12" xMax="652" yMax="877">
      <component glyphName="O" x="0" y="0" flags="0x204"/>
      <component glyphName="macron.case" x="54" y="0" flags="0x4"/>
    </TTGlyph>
    <TTGlyph name="Omega" xMin="56" yMin="0" xMax="661" yMax="710">
      <contour>
        <pt x="56" y="86" on="1"/>
        <pt x="215" y="86" on="1"/>
        <pt x="215" y="95" on="1"/>
        <pt x="183" y="112" on="0"/>
        <pt x="127" y="165" on="0"/>
        <pt x="85" y="237" on="0"/>
        <pt x="60" y="328" on="0"/>
        <pt x="60" y="382" on="1"/>
        <pt x="60" y="444" on="0"/>
        <pt x="96" y="562" on="0"/>
        <pt x="170" y="654" on="0"/>
        <pt x="282" y="710" on="0"/>
        <pt x="359" y="710" on="1"/>
        <pt x="435" y="710" on="0"/>
        <pt x="548" y="654" on="0"/>
        <pt x="621" y="562" on="0"/>
        <pt x="657" y="444" on="0"/>
        <pt x="657" y="382" on="1"/>
        <pt x="657" y="328" on="0"/>
        <pt x="632" y="237" on="0"/>
        <pt x="590" y="165" on="0"/>
        <pt x="534" y="112" on="0"/>
        <pt x="502" y="95" on="1"/>
        <pt x="502" y="86" on="1"/>
        <pt x="661" y="86" on="1"/>
        <pt x="661" y="0" on="1"/>
        <pt x="423" y="0" on="1"/>
        <pt x="423" y="129" on="1"/>
        <pt x="447" y="138" on="0"/>
        <pt x="494" y="179" on="0"/>
        <pt x="530" y="237" on="0"/>
        <pt x="553" y="307" on="0"/>
        <pt x="553" y="343" on="1"/>
        <pt x="553" y="431" on="1"/>
        <pt x="553" y="466" on="0"/>
        <pt x="527" y="535" on="0"/>
        <pt x="477" y="590" on="0"/>
        <pt x="405" y="624" on="0"/>
        <pt x="359" y="624" on="1"/>
        <pt x="313" y="624" on="0"/>
        <pt x="241" y="590" on="0"/>
        <pt x="191" y="535" on="0"/>
        <pt x="164" y="466" on="0"/>
        <pt x="164" y="431" on="1"/>
        <pt x="164" y="343" on="1"/>
        <pt x="164" y="307" on="0"/>
        <pt x="187" y="237" on="0"/>
        <pt x="223" y="179" on="0"/>
        <pt x="270" y="138" on="0"/>
        <pt x="294" y="129" on="1"/>
        <pt x="294" y="0" on="1"/>
        <pt x="56" y="0" on="1"/>
      </contour>
    </TTGlyph>
    <TTGlyph name="Omegatonos" xMin="-22" yMin="0" xMax="670" yMax="787">
      <component glyphName="Omega" x="9" y="0" flags="0x4"/>
      <component glyphName="tonos.case" x="-297" y="0" flags="0x4"/>
    </TTGlyph>
    <TTGlyph name="Omicron" xMin="56" yMin="-12" xMax="652" yMax="710">
      <component glyphName="O" x="0" y="0" flags="0x204"/>
    </TTGlyph>
    <TTGlyph name="Omicrontonos" xMin="-22" yMin="-12" xMax="663" yMax="787">
      <component glyphName="O" x="11" y="0" flags="0x4"/>
      <component glyphName="tonos.case" x="-297" y="0" flags="0x4"/>
    </TTGlyph>
    <TTGlyph name="Oslash" xMin="56" yMin="-47" xMax="652" yMax="745">
      <contour>
        <pt x="354" y="-12" on="1"/>
        <pt x="255" y="-12" on="0"/>
        <pt x="185" y="37" on="1"/>
        <pt x="126" y="-47" on="1"/>
        <pt x="63" y="-6" on="1"/>
        <pt x="129" y="91" on="1"/>
        <pt x="94" y="136" on="0"/>
        <pt x="56" y="265" on="0"/>
        <pt x="56" y="349" on="1"/>
        <pt x="56" y="437" on="0"/>
        <pt x="98" y="572" on="0"/>
        <pt x="176" y="663" on="0"/>
        <pt x="286" y="710" on="0"/>
        <pt x="354" y="710" on="1"/>
        <pt x="453" y="710" on="0"/>
        <pt x="523" y="661" on="1"/>
        <pt x="582" y="745" on="1"/>
        <pt x="645" y="704" on="1"/>
        <pt x="579" y="607" on="1"/>
        <pt x="614" y="562" on="0"/>
        <pt x="652" y="433" on="0"/>
        <pt x="652" y="349" on="1"/>
        <pt x="652" y="261" on="0"/>
        <pt x="610" y="126" on="0"/>
        <pt x="532" y="35" on="0"/>
        <pt x="422" y="-12" on="0"/>
      </contour>
      <contour>
        <pt x="160" y="292" on="1"/>
        <pt x="160" y="257" on="0"/>
        <pt x="174" y="196" on="0"/>
        <pt x="187" y="171" on="1"/>
        <pt x="472" y="585" on="1"/>
        <pt x="423" y="623" on="0"/>
        <pt x="354" y="623" on="1"/>
        <pt x="310" y="623" on="0"/>
        <pt x="239" y="593" on="0"/>
        <pt x="188" y="536" on="0"/>
        <pt x="160" y="456" on="0"/>
        <pt x="160" y="406" on="1"/>
      </contour>
      <contour>
        <pt x="548" y="406" on="1"/>
        <pt x="548" y="441" on="0"/>
        <pt x="534" y="502" on="0"/>
        <pt x="521" y="527" on="1"/>
        <pt x="236" y="113" on="1"/>
        <pt x="285" y="75" on="0"/>
        <pt x="354" y="75" on="1"/>
        <pt x="397" y="75" on="0"/>
        <pt x="469" y="105" on="0"/>
        <pt x="520" y="162" on="0"/>
        <pt x="548" y="242" on="0"/>
        <pt x="548" y="292" on="1"/>
      </contour>
    </TTGlyph>
    <TTGlyph name="Oslashacute" xMin="56" yMin="-47" xMax="652" yMax="954">
      <component glyphName="Oslash" x="0" y="0" flags="0x204"/>
      <component glyphName="acute.case" x="54" y="0" flags="0x4"/>
    </TTGlyph>
    <TTGlyph name="Otilde" xMin="56" yMin="-12" xMax="652" yMax="900">
      <component glyphName="O" x="0" y="0" flags="0x204"/>
      <component glyphName="tilde.case" x="54" y="0" flags="0x4"/>
    </TTGlyph>
    <TTGlyph name="P" xMin="90" yMin="0" xMax="576" yMax="698">
      <contour>
        <pt x="90" y="0" on="1"/>
        <pt x="90" y="698" on="1"/>
        <pt x="378" y="698" on="1"/>
        <pt x="425" y="698" on="0"/>
        <pt x="499" y="669" on="0"/>
        <pt x="550" y="615" on="0"/>
        <pt x="576" y="539" on="0"/>
        <pt x="576" y="493" on="1"/>
        <pt x="576" y="446" on="0"/>
        <pt x="550" y="371" on="0"/>
        <pt x="499" y="317" on="0"/>
        <pt x="425" y="288" on="0"/>
        <pt x="378" y="288" on="1"/>
        <pt x="187" y="288" on="1"/>
        <pt x="187" y="0" on="1"/>
      </contour>
      <contour>
        <pt x="187" y="374" on="1"/>
        <pt x="374" y="374" on="1"/>
        <pt x="421" y="374" on="0"/>
        <pt x="473" y="423" on="0"/>
        <pt x="473" y="468" on="1"/>
        <pt x="473" y="518" on="1"/>
        <pt x="473" y="563" on="0"/>
        <pt x="421" y="612" on="0"/>
        <pt x="374" y="612" on="1"/>
        <pt x="187" y="612" on="1"/>
      </contour>
    </TTGlyph>
    <TTGlyph name="Phi" xMin="51" yMin="-32" xMax="800" yMax="728">
      <contour>
        <pt x="377" y="31" on="1"/>
        <pt x="360" y="31" on="1"/>
        <pt x="286" y="31" on="0"/>
        <pt x="171" y="80" on="0"/>
        <pt x="92" y="166" on="0"/>
        <pt x="51" y="284" on="0"/>
        <pt x="51" y="354" on="1"/>
        <pt x="51" y="424" on="0"/>
        <pt x="92" y="542" on="0"/>
        <pt x="171" y="628" on="0"/>
        <pt x="286" y="677" on="0"/>
        <pt x="360" y="677" on="1"/>
        <pt x="377" y="677" on="1"/>
        <pt x="377" y="728" on="1"/>
        <pt x="474" y="728" on="1"/>
        <pt x="474" y="677" on="1"/>
        <pt x="491" y="677" on="1"/>
        <pt x="565" y="677" on="0"/>
        <pt x="680" y="628" on="0"/>
        <pt x="759" y="542" on="0"/>
        <pt x="800" y="424" on="0"/>
        <pt x="800" y="354" on="1"/>
        <pt x="800" y="284" on="0"/>
        <pt x="759" y="166" on="0"/>
        <pt x="680" y="80" on="0"/>
        <pt x="565" y="31" on="0"/>
        <pt x="491" y="31" on="1"/>
        <pt x="474" y="31" on="1"/>
        <pt x="474" y="-32" on="1"/>
        <pt x="377" y="-32" on="1"/>
      </contour>
      <contour>
        <pt x="379" y="596" on="1"/>
        <pt x="361" y="596" on="1"/>
        <pt x="314" y="596" on="0"/>
        <pt x="238" y="564" on="0"/>
        <pt x="184" y="508" on="0"/>
        <pt x="154" y="431" on="0"/>
        <pt x="154" y="385" on="1"/>
        <pt x="154" y="323" on="1"/>
        <pt x="154" y="277" on="0"/>
        <pt x="184" y="200" on="0"/>
        <pt x="238" y="144" on="0"/>
        <pt x="314" y="112" on="0"/>
        <pt x="361" y="112" on="1"/>
        <pt x="379" y="112" on="1"/>
      </contour>
      <contour>
        <pt x="490" y="112" on="1"/>
        <pt x="536" y="112" on="0"/>
        <pt x="613" y="144" on="0"/>
        <pt x="667" y="200" on="0"/>
        <pt x="697" y="277" on="0"/>
        <pt x="697" y="323" on="1"/>
        <pt x="697" y="385" on="1"/>
        <pt x="697" y="431" on="0"/>
        <pt x="667" y="508" on="0"/>
        <pt x="613" y="564" on="0"/>
        <pt x="536" y="596" on="0"/>
        <pt x="490" y="596" on="1"/>
        <pt x="472" y="596" on="1"/>
        <pt x="472" y="112" on="1"/>
      </contour>
    </TTGlyph>
    <TTGlyph name="Pi" xMin="90" yMin="0" xMax="606" yMax="698">
      <component glyphName="uni041F" x="0" y="0" flags="0x204"/>
    </TTGlyph>
    <TTGlyph name="Psi" xMin="68" yMin="0" xMax="731" yMax="698">
      <contour>
        <pt x="351" y="198" on="1"/>
        <pt x="286" y="198" on="0"/>
        <pt x="181" y="231" on="0"/>
        <pt x="108" y="299" on="0"/>
        <pt x="68" y="400" on="0"/>
        <pt x="68" y="468" on="1"/>
        <pt x="68" y="698" on="1"/>
        <pt x="165" y="698" on="1"/>
        <pt x="165" y="468" on="1"/>
        <pt x="165" y="415" on="0"/>
        <pt x="193" y="342" on="0"/>
        <pt x="243" y="297" on="0"/>
        <pt x="311" y="278" on="0"/>
        <pt x="351" y="278" on="1"/>
        <pt x="351" y="698" on="1"/>
        <pt x="448" y="698" on="1"/>
        <pt x="448" y="278" on="1"/>
        <pt x="488" y="278" on="0"/>
        <pt x="556" y="297" on="0"/>
        <pt x="606" y="342" on="0"/>
        <pt x="634" y="415" on="0"/>
        <pt x="634" y="468" on="1"/>
        <pt x="634" y="698" on="1"/>
        <pt x="731" y="698" on="1"/>
        <pt x="731" y="468" on="1"/>
        <pt x="731" y="400" on="0"/>
        <pt x="691" y="299" on="0"/>
        <pt x="618" y="231" on="0"/>
        <pt x="513" y="198" on="0"/>
        <pt x="448" y="198" on="1"/>
        <pt x="448" y="0" on="1"/>
        <pt x="351" y="0" on="1"/>
      </contour>
    </TTGlyph>
    <TTGlyph name="Q" xMin="56" yMin="-168" xMax="652" yMax="710">
      <contour>
        <pt x="514" y="-168" on="1"/>
        <pt x="413" y="-168" on="1"/>
        <pt x="364" y="-168" on="0"/>
        <pt x="315" y="-116" on="0"/>
        <pt x="315" y="-73" on="1"/>
        <pt x="315" y="-10" on="1"/>
        <pt x="255" y="-4" on="0"/>
        <pt x="160" y="49" on="0"/>
        <pt x="92" y="139" on="0"/>
        <pt x="56" y="267" on="0"/>
        <pt x="56" y="349" on="1"/>
        <pt x="56" y="437" on="0"/>
        <pt x="98" y="572" on="0"/>
        <pt x="176" y="663" on="0"/>
        <pt x="286" y="710" on="0"/>
        <pt x="354" y="710" on="1"/>
        <pt x="422" y="710" on="0"/>
        <pt x="532" y="663" on="0"/>
        <pt x="610" y="572" on="0"/>
        <pt x="652" y="437" on="0"/>
        <pt x="652" y="349" on="1"/>
        <pt x="652" y="190" on="0"/>
        <pt x="519" y="8" on="0"/>
        <pt x="405" y="-8" on="1"/>
        <pt x="405" y="-88" on="1"/>
        <pt x="514" y="-88" on="1"/>
      </contour>
      <contour>
        <pt x="354" y="75" on="1"/>
        <pt x="397" y="75" on="0"/>
        <pt x="469" y="105" on="0"/>
        <pt x="520" y="162" on="0"/>
        <pt x="548" y="242" on="0"/>
        <pt x="548" y="292" on="1"/>
        <pt x="548" y="406" on="1"/>
        <pt x="548" y="456" on="0"/>
        <pt x="520" y="536" on="0"/>
        <pt x="469" y="593" on="0"/>
        <pt x="397" y="623" on="0"/>
        <pt x="354" y="623" on="1"/>
        <pt x="310" y="623" on="0"/>
        <pt x="239" y="593" on="0"/>
        <pt x="188" y="536" on="0"/>
        <pt x="160" y="456" on="0"/>
        <pt x="160" y="406" on="1"/>
        <pt x="160" y="292" on="1"/>
        <pt x="160" y="242" on="0"/>
        <pt x="188" y="162" on="0"/>
        <pt x="239" y="105" on="0"/>
        <pt x="310" y="75" on="0"/>
      </contour>
    </TTGlyph>
    <TTGlyph name="R" xMin="90" yMin="0" xMax="594" yMax="698">
      <contour>
        <pt x="187" y="0" on="1"/>
        <pt x="90" y="0" on="1"/>
        <pt x="90" y="698" on="1"/>
        <pt x="378" y="698" on="1"/>
        <pt x="471" y="698" on="0"/>
        <pt x="576" y="590" on="0"/>
        <pt x="576" y="493" on="1"/>
        <pt x="576" y="417" on="0"/>
        <pt x="507" y="317" on="0"/>
        <pt x="439" y="300" on="1"/>
        <pt x="594" y="0" on="1"/>
        <pt x="485" y="0" on="1"/>
        <pt x="340" y="290" on="1"/>
        <pt x="187" y="290" on="1"/>
      </contour>
      <contour>
        <pt x="374" y="374" on="1"/>
        <pt x="421" y="374" on="0"/>
        <pt x="473" y="423" on="0"/>
        <pt x="473" y="468" on="1"/>
        <pt x="473" y="518" on="1"/>
        <pt x="473" y="563" on="0"/>
        <pt x="421" y="612" on="0"/>
        <pt x="374" y="612" on="1"/>
        <pt x="187" y="612" on="1"/>
        <pt x="187" y="374" on="1"/>
      </contour>
    </TTGlyph>
    <TTGlyph name="Racute" xMin="90" yMin="0" xMax="594" yMax="954">
      <component glyphName="R" x="0" y="0" flags="0x204"/>
      <component glyphName="acute.case" x="10" y="0" flags="0x4"/>
    </TTGlyph>
    <TTGlyph name="Rcaron" xMin="90" yMin="0" xMax="594" yMax="947">
      <component glyphName="R" x="0" y="0" flags="0x204"/>
      <component glyphName="caron.case" x="10" y="0" flags="0x4"/>
    </TTGlyph>
    <TTGlyph name="Rcommaaccent" xMin="90" yMin="-251" xMax="594" yMax="698">
      <component glyphName="R" x="0" y="0" flags="0x204"/>
      <component glyphName="uni0326" x="330" y="0" flags="0x4"/>
    </TTGlyph>
    <TTGlyph name="Rho" xMin="90" yMin="0" xMax="576" yMax="698">
      <component glyphName="P" x="0" y="0" flags="0x204"/>
    </TTGlyph>
    <TTGlyph name="S" xMin="41" yMin="-12" xMax="537" yMax="710">
      <contour>
        <pt x="291" y="-12" on="1"/>
        <pt x="205" y="-12" on="0"/>
        <pt x="83" y="52" on="0"/>
        <pt x="41" y="108" on="1"/>
        <pt x="110" y="170" on="1"/>
        <pt x="147" y="122" on="0"/>
        <pt x="236" y="73" on="0"/>
        <pt x="295" y="73" on="1"/>
        <pt x="367" y="73" on="0"/>
        <pt x="441" y="140" on="0"/>
        <pt x="441" y="196" on="1"/>
        <pt x="441" y="242" on="0"/>
        <pt x="387" y="294" on="0"/>
        <pt x="321" y="308" on="1"/>
        <pt x="262" y="320" on="1"/>
        <pt x="163" y="340" on="0"/>
        <pt x="62" y="433" on="0"/>
        <pt x="62" y="515" on="1"/>
        <pt x="62" y="561" on="0"/>
        <pt x="96" y="634" on="0"/>
        <pt x="158" y="684" on="0"/>
        <pt x="245" y="710" on="0"/>
        <pt x="299" y="710" on="1"/>
        <pt x="378" y="710" on="0"/>
        <pt x="492" y="653" on="0"/>
        <pt x="532" y="599" on="1"/>
        <pt x="461" y="542" on="1"/>
        <pt x="433" y="580" on="0"/>
        <pt x="354" y="625" on="0"/>
        <pt x="294" y="625" on="1"/>
        <pt x="230" y="625" on="0"/>
        <pt x="158" y="571" on="0"/>
        <pt x="158" y="519" on="1"/>
        <pt x="158" y="472" on="0"/>
        <pt x="217" y="425" on="0"/>
        <pt x="280" y="411" on="1"/>
        <pt x="339" y="399" on="1"/>
        <pt x="442" y="376" on="0"/>
        <pt x="537" y="282" on="0"/>
        <pt x="537" y="201" on="1"/>
        <pt x="537" y="153" on="0"/>
        <pt x="504" y="74" on="0"/>
        <pt x="441" y="18" on="0"/>
        <pt x="349" y="-12" on="0"/>
      </contour>
    </TTGlyph>
    <TTGlyph name="Sacute" xMin="41" yMin="-12" xMax="537" yMax="954">
      <component glyphName="S" x="0" y="0" flags="0x204"/>
      <component glyphName="acute.case" x="-8" y="0" flags="0x4"/>
    </TTGlyph>
    <TTGlyph name="Scaron" xMin="41" yMin="-12" xMax="537" yMax="947">
      <component glyphName="S" x="0" y="0" flags="0x204"/>
      <component glyphName="caron.case" x="-8" y="0" flags="0x4"/>
    </TTGlyph>
    <TTGlyph name="Scedilla" xMin="41" yMin="-208" xMax="537" yMax="710">
      <contour>
        <pt x="294" y="625" on="1"/>
        <pt x="230" y="625" on="0"/>
        <pt x="158" y="571" on="0"/>
        <pt x="158" y="519" on="1"/>
        <pt x="158" y="472" on="0"/>
        <pt x="217" y="425" on="0"/>
        <pt x="280" y="411" on="1"/>
        <pt x="339" y="399" on="1"/>
        <pt x="442" y="376" on="0"/>
        <pt x="537" y="282" on="0"/>
        <pt x="537" y="201" on="1"/>
        <pt x="537" y="109" on="0"/>
        <pt x="420" y="-5" on="0"/>
        <pt x="314" y="-11" on="1"/>
        <pt x="305" y="-60" on="1"/>
        <pt x="308" y="-63" on="1"/>
        <pt x="318" y="-60" on="0"/>
        <pt x="339" y="-57" on="0"/>
        <pt x="348" y="-57" on="1"/>
        <pt x="378" y="-57" on="0"/>
        <pt x="417" y="-90" on="0"/>
        <pt x="417" y="-123" on="1"/>
        <pt x="417" y="-146" on="0"/>
        <pt x="398" y="-178" on="0"/>
        <pt x="367" y="-198" on="0"/>
        <pt x="325" y="-208" on="0"/>
        <pt x="302" y="-208" on="1"/>
        <pt x="259" y="-208" on="0"/>
        <pt x="210" y="-181" on="0"/>
        <pt x="199" y="-166" on="1"/>
        <pt x="238" y="-123" on="1"/>
        <pt x="247" y="-134" on="0"/>
        <pt x="278" y="-151" on="0"/>
        <pt x="300" y="-151" on="1"/>
        <pt x="319" y="-151" on="0"/>
        <pt x="344" y="-136" on="0"/>
        <pt x="344" y="-121" on="1"/>
        <pt x="344" y="-107" on="0"/>
        <pt x="318" y="-86" on="0"/>
        <pt x="275" y="-80" on="1"/>
        <pt x="248" y="-76" on="1"/>
        <pt x="261" y="-11" on="1"/>
        <pt x="187" y="-6" on="0"/>
        <pt x="79" y="57" on="0"/>
        <pt x="41" y="108" on="1"/>
        <pt x="110" y="170" on="1"/>
        <pt x="147" y="122" on="0"/>
        <pt x="236" y="73" on="0"/>
        <pt x="295" y="73" on="1"/>
        <pt x="367" y="73" on="0"/>
        <pt x="441" y="140" on="0"/>
        <pt x="441" y="196" on="1"/>
        <pt x="441" y="242" on="0"/>
        <pt x="387" y="294" on="0"/>
        <pt x="321" y="308" on="1"/>
        <pt x="262" y="320" on="1"/>
        <pt x="163" y="340" on="0"/>
        <pt x="62" y="433" on="0"/>
        <pt x="62" y="515" on="1"/>
        <pt x="62" y="561" on="0"/>
        <pt x="96" y="634" on="0"/>
        <pt x="158" y="684" on="0"/>
        <pt x="245" y="710" on="0"/>
        <pt x="299" y="710" on="1"/>
        <pt x="378" y="710" on="0"/>
        <pt x="492" y="653" on="0"/>
        <pt x="532" y="599" on="1"/>
        <pt x="461" y="542" on="1"/>
        <pt x="433" y="580" on="0"/>
        <pt x="354" y="625" on="0"/>
      </contour>
    </TTGlyph>
    <TTGlyph name="Scircumflex" xMin="41" yMin="-12" xMax="537" yMax="939">
      <component glyphName="S" x="0" y="0" flags="0x204"/>
      <component glyphName="circumflex.case" x="-8" y="0" flags="0x4"/>
    </TTGlyph>
    <TTGlyph name="Scommaaccent" xMin="41" yMin="-251" xMax="537" yMax="710">
      <component glyphName="S" x="0" y="0" flags="0x204"/>
      <component glyphName="uni0326" x="290" y="0" flags="0x4"/>
    </TTGlyph>
    <TTGlyph name="Sigma" xMin="41" yMin="0" xMax="519" yMax="698">
      <contour>
        <pt x="41" y="0" on="1"/>
        <pt x="41" y="87" on="1"/>
        <pt x="284" y="352" on="1"/>
        <pt x="49" y="611" on="1"/>
        <pt x="49" y="698" on="1"/>
        <pt x="519" y="698" on="1"/>
        <pt x="519" y="613" on="1"/>
        <pt x="165" y="613" on="1"/>
        <pt x="400" y="354" on="1"/>
        <pt x="153" y="85" on="1"/>
        <pt x="519" y="85" on="1"/>
        <pt x="519" y="0" on="1"/>
      </contour>
    </TTGlyph>
    <TTGlyph name="T" xMin="23" yMin="0" xMax="552" yMax="698">
      <contour>
        <pt x="336" y="612" on="1"/>
        <pt x="336" y="0" on="1"/>
        <pt x="239" y="0" on="1"/>
        <pt x="239" y="612" on="1"/>
        <pt x="23" y="612" on="1"/>
        <pt x="23" y="698" on="1"/>
        <pt x="552" y="698" on="1"/>
        <pt x="552" y="612" on="1"/>
      </contour>
    </TTGlyph>
    <TTGlyph name="Tau" xMin="23" yMin="0" xMax="552" yMax="698">
      <component glyphName="T" x="0" y="0" flags="0x204"/>
    </TTGlyph>
    <TTGlyph name="Tbar" xMin="28" yMin="0" xMax="557" yMax="698">
      <contour>
        <pt x="341" y="326" on="1"/>
        <pt x="341" y="0" on="1"/>
        <pt x="244" y="0" on="1"/>
        <pt x="244" y="326" on="1"/>
        <pt x="84" y="326" on="1"/>
        <pt x="84" y="399" on="1"/>
        <pt x="244" y="399" on="1"/>
        <pt x="244" y="612" on="1"/>
        <pt x="28" y="612" on="1"/>
        <pt x="28" y="698" on="1"/>
        <pt x="557" y="698" on="1"/>
        <pt x="557" y="612" on="1"/>
        <pt x="341" y="612" on="1"/>
        <pt x="341" y="399" on="1"/>
        <pt x="501" y="399" on="1"/>
        <pt x="501" y="326" on="1"/>
      </contour>
    </TTGlyph>
    <TTGlyph name="Tcaron" xMin="23" yMin="0" xMax="552" yMax="947">
      <component glyphName="T" x="0" y="0" flags="0x204"/>
      <component glyphName="caron.case" x="-11" y="0" flags="0x4"/>
    </TTGlyph>
    <TTGlyph name="Theta" xMin="56" yMin="-12" xMax="655" yMax="710">
      <contour>
        <pt x="356" y="-12" on="1"/>
        <pt x="287" y="-12" on="0"/>
        <pt x="176" y="35" on="0"/>
        <pt x="98" y="126" on="0"/>
        <pt x="56" y="261" on="0"/>
        <pt x="56" y="349" on="1"/>
        <pt x="56" y="437" on="0"/>
        <pt x="98" y="572" on="0"/>
        <pt x="176" y="663" on="0"/>
        <pt x="287" y="710" on="0"/>
        <pt x="356" y="710" on="1"/>
        <pt x="424" y="710" on="0"/>
        <pt x="535" y="663" on="0"/>
        <pt x="613" y="572" on="0"/>
        <pt x="655" y="437" on="0"/>
        <pt x="655" y="349" on="1"/>
        <pt x="655" y="261" on="0"/>
        <pt x="613" y="126" on="0"/>
        <pt x="535" y="35" on="0"/>
        <pt x="424" y="-12" on="0"/>
      </contour>
      <contour>
        <pt x="356" y="74" on="1"/>
        <pt x="399" y="74" on="0"/>
        <pt x="471" y="105" on="0"/>
        <pt x="523" y="162" on="0"/>
        <pt x="551" y="242" on="0"/>
        <pt x="551" y="292" on="1"/>
        <pt x="551" y="406" on="1"/>
        <pt x="551" y="456" on="0"/>
        <pt x="523" y="536" on="0"/>
        <pt x="471" y="593" on="0"/>
        <pt x="399" y="624" on="0"/>
        <pt x="356" y="624" on="1"/>
        <pt x="312" y="624" on="0"/>
        <pt x="240" y="593" on="0"/>
        <pt x="188" y="536" on="0"/>
        <pt x="160" y="456" on="0"/>
        <pt x="160" y="406" on="1"/>
        <pt x="160" y="292" on="1"/>
        <pt x="160" y="242" on="0"/>
        <pt x="188" y="162" on="0"/>
        <pt x="240" y="105" on="0"/>
        <pt x="312" y="74" on="0"/>
      </contour>
      <contour>
        <pt x="215" y="310" on="1"/>
        <pt x="215" y="396" on="1"/>
        <pt x="496" y="396" on="1"/>
        <pt x="496" y="310" on="1"/>
      </contour>
    </TTGlyph>
    <TTGlyph name="Thorn" xMin="90" yMin="0" xMax="577" yMax="698">
      <contour>
        <pt x="90" y="0" on="1"/>
        <pt x="90" y="698" on="1"/>
        <pt x="187" y="698" on="1"/>
        <pt x="187" y="559" on="1"/>
        <pt x="378" y="559" on="1"/>
        <pt x="425" y="559" on="0"/>
        <pt x="499" y="530" on="0"/>
        <pt x="550" y="476" on="0"/>
        <pt x="577" y="400" on="0"/>
        <pt x="577" y="354" on="1"/>
        <pt x="577" y="307" on="0"/>
        <pt x="550" y="232" on="0"/>
        <pt x="499" y="178" on="0"/>
        <pt x="425" y="149" on="0"/>
        <pt x="378" y="149" on="1"/>
        <pt x="187" y="149" on="1"/>
        <pt x="187" y="0" on="1"/>
      </contour>
      <contour>
        <pt x="187" y="235" on="1"/>
        <pt x="374" y="235" on="1"/>
        <pt x="421" y="235" on="0"/>
        <pt x="473" y="284" on="0"/>
        <pt x="473" y="329" on="1"/>
        <pt x="473" y="379" on="1"/>
        <pt x="473" y="424" on="0"/>
        <pt x="421" y="473" on="0"/>
        <pt x="374" y="473" on="1"/>
        <pt x="187" y="473" on="1"/>
      </contour>
    </TTGlyph>
    <TTGlyph name="U" xMin="85" yMin="-12" xMax="597" yMax="698">
      <contour>
        <pt x="182" y="698" on="1"/>
        <pt x="182" y="267" on="1"/>
        <pt x="182" y="219" on="0"/>
        <pt x="198" y="147" on="0"/>
        <pt x="236" y="99" on="0"/>
        <pt x="297" y="75" on="0"/>
        <pt x="341" y="75" on="1"/>
        <pt x="429" y="75" on="0"/>
        <pt x="500" y="172" on="0"/>
        <pt x="500" y="267" on="1"/>
        <pt x="500" y="698" on="1"/>
        <pt x="597" y="698" on="1"/>
        <pt x="597" y="286" on="1"/>
        <pt x="597" y="209" on="0"/>
        <pt x="569" y="97" on="0"/>
        <pt x="508" y="24" on="0"/>
        <pt x="409" y="-12" on="0"/>
        <pt x="338" y="-12" on="1"/>
        <pt x="267" y="-12" on="0"/>
        <pt x="170" y="24" on="0"/>
        <pt x="111" y="97" on="0"/>
        <pt x="85" y="209" on="0"/>
        <pt x="85" y="286" on="1"/>
        <pt x="85" y="698" on="1"/>
      </contour>
    </TTGlyph>
    <TTGlyph name="Uacute" xMin="85" yMin="-12" xMax="597" yMax="954">
      <component glyphName="U" x="0" y="0" flags="0x204"/>
      <component glyphName="acute.case" x="39" y="0" flags="0x4"/>
    </TTGlyph>
    <TTGlyph name="Ubreve" xMin="85" yMin="-12" xMax="597" yMax="920">
      <component glyphName="U" x="0" y="0" flags="0x204"/>
      <component glyphName="breve.case" x="39" y="0" flags="0x4"/>
    </TTGlyph>
    <TTGlyph name="Ucircumflex" xMin="85" yMin="-12" xMax="597" yMax="939">
      <component glyphName="U" x="0" y="0" flags="0x204"/>
      <component glyphName="circumflex.case" x="39" y="0" flags="0x4"/>
    </TTGlyph>
    <TTGlyph name="Udieresis" xMin="85" yMin="-12" xMax="597" yMax="897">
      <component glyphName="U" x="0" y="0" flags="0x204"/>
      <component glyphName="dieresis.case" x="39" y="0" flags="0x4"/>
    </TTGlyph>
    <TTGlyph name="Ugrave" xMin="85" yMin="-12" xMax="597" yMax="954">
      <component glyphName="U" x="0" y="0" flags="0x204"/>
      <component glyphName="grave.case" x="39" y="0" flags="0x4"/>
    </TTGlyph>
    <TTGlyph name="Uhorn" xMin="85" yMin="-12" xMax="670" yMax="811">
      <contour>
        <pt x="182" y="698" on="1"/>
        <pt x="182" y="267" on="1"/>
        <pt x="182" y="219" on="0"/>
        <pt x="198" y="147" on="0"/>
        <pt x="236" y="99" on="0"/>
        <pt x="297" y="75" on="0"/>
        <pt x="341" y="75" on="1"/>
        <pt x="429" y="75" on="0"/>
        <pt x="500" y="172" on="0"/>
        <pt x="500" y="267" on="1"/>
        <pt x="500" y="698" on="1"/>
        <pt x="589" y="698" on="1"/>
        <pt x="589" y="811" on="1"/>
        <pt x="670" y="811" on="1"/>
        <pt x="670" y="708" on="1"/>
        <pt x="670" y="677" on="0"/>
        <pt x="641" y="638" on="0"/>
        <pt x="599" y="638" on="1"/>
        <pt x="597" y="638" on="1"/>
        <pt x="597" y="286" on="1"/>
        <pt x="597" y="209" on="0"/>
        <pt x="569" y="97" on="0"/>
        <pt x="508" y="24" on="0"/>
        <pt x="409" y="-12" on="0"/>
        <pt x="338" y="-12" on="1"/>
        <pt x="267" y="-12" on="0"/>
        <pt x="170" y="24" on="0"/>
        <pt x="111" y="97" on="0"/>
        <pt x="85" y="209" on="0"/>
        <pt x="85" y="286" on="1"/>
        <pt x="85" y="698" on="1"/>
      </contour>
    </TTGlyph>
    <TTGlyph name="Uhungarumlaut" xMin="85" yMin="-12" xMax="597" yMax="953">
      <component glyphName="U" x="0" y="0" flags="0x204"/>
      <component glyphName="hungarumlaut.case" x="39" y="0" flags="0x4"/>
    </TTGlyph>
    <TTGlyph name="Umacron" xMin="85" yMin="-12" xMax="597" yMax="877">
      <component glyphName="U" x="0" y="0" flags="0x204"/>
      <component glyphName="macron.case" x="39" y="0" flags="0x4"/>
    </TTGlyph>
    <TTGlyph name="Uogonek" xMin="85" yMin="-208" xMax="597" yMax="698">
      <contour>
        <pt x="182" y="698" on="1"/>
        <pt x="182" y="267" on="1"/>
        <pt x="182" y="219" on="0"/>
        <pt x="198" y="147" on="0"/>
        <pt x="236" y="99" on="0"/>
        <pt x="297" y="75" on="0"/>
        <pt x="341" y="75" on="1"/>
        <pt x="429" y="75" on="0"/>
        <pt x="500" y="172" on="0"/>
        <pt x="500" y="267" on="1"/>
        <pt x="500" y="698" on="1"/>
        <pt x="597" y="698" on="1"/>
        <pt x="597" y="286" on="1"/>
        <pt x="597" y="236" on="0"/>
        <pt x="586" y="155" on="0"/>
        <pt x="559" y="85" on="0"/>
        <pt x="513" y="22" on="0"/>
        <pt x="479" y="-11" on="1"/>
        <pt x="456" y="-33" on="0"/>
        <pt x="423" y="-64" on="0"/>
        <pt x="401" y="-88" on="0"/>
        <pt x="390" y="-109" on="0"/>
        <pt x="390" y="-120" on="1"/>
        <pt x="390" y="-137" on="0"/>
        <pt x="409" y="-150" on="0"/>
        <pt x="423" y="-150" on="1"/>
        <pt x="452" y="-150" on="0"/>
        <pt x="471" y="-125" on="1"/>
        <pt x="514" y="-167" on="1"/>
        <pt x="504" y="-184" on="0"/>
        <pt x="456" y="-208" on="0"/>
        <pt x="419" y="-208" on="1"/>
        <pt x="378" y="-208" on="0"/>
        <pt x="319" y="-172" on="0"/>
        <pt x="319" y="-132" on="1"/>
        <pt x="319" y="-111" on="0"/>
        <pt x="337" y="-77" on="0"/>
        <pt x="368" y="-47" on="0"/>
        <pt x="411" y="-18" on="0"/>
        <pt x="436" y="-3" on="1"/>
        <pt x="433" y="3" on="1"/>
        <pt x="411" y="-6" on="0"/>
        <pt x="364" y="-12" on="0"/>
        <pt x="338" y="-12" on="1"/>
        <pt x="267" y="-12" on="0"/>
        <pt x="170" y="24" on="0"/>
        <pt x="111" y="97" on="0"/>
        <pt x="85" y="209" on="0"/>
        <pt x="85" y="286" on="1"/>
        <pt x="85" y="698" on="1"/>
      </contour>
    </TTGlyph>
    <TTGlyph name="Upsilon" xMin="12" yMin="0" xMax="591" yMax="698">
      <component glyphName="Y" x="0" y="0" flags="0x204"/>
    </TTGlyph>
    <TTGlyph name="Upsilondieresis" xMin="12" yMin="0" xMax="591" yMax="897">
      <component glyphName="Y" x="0" y="0" flags="0x204"/>
      <component glyphName="dieresis.case" x="2" y="0" flags="0x4"/>
    </TTGlyph>
    <TTGlyph name="Upsilontonos" xMin="-22" yMin="0" xMax="686" yMax="787">
      <component glyphName="Y" x="95" y="0" flags="0x4"/>
      <component glyphName="tonos.case" x="-297" y="0" flags="0x4"/>
    </TTGlyph>
    <TTGlyph name="Uring" xMin="85" yMin="-12" xMax="597" yMax="982">
      <component glyphName="U" x="0" y="0" flags="0x204"/>
      <component glyphName="ring.case" x="39" y="0" flags="0x4"/>
    </TTGlyph>
    <TTGlyph name="Utilde" xMin="85" yMin="-12" xMax="597" yMax="900">
      <component glyphName="U" x="0" y="0" flags="0x204"/>
      <component glyphName="tilde.case" x="39" y="0" flags="0x4"/>
    </TTGlyph>
    <TTGlyph name="V" xMin="19" yMin="0" xMax="598" yMax="698">
      <contour>
        <pt x="250" y="0" on="1"/>
        <pt x="19" y="698" on="1"/>
        <pt x="121" y="698" on="1"/>
        <pt x="234" y="349" on="1"/>
        <pt x="307" y="95" on="1"/>
        <pt x="312" y="95" on="1"/>
        <pt x="386" y="349" on="1"/>
        <pt x="499" y="698" on="1"/>
        <pt x="598" y="698" on="1"/>
        <pt x="365" y="0" on="1"/>
      </contour>
    </TTGlyph>
    <TTGlyph name="W" xMin="22" yMin="0" xMax="885" yMax="698">
      <contour>
        <pt x="189" y="0" on="1"/>
        <pt x="22" y="698" on="1"/>
        <pt x="122" y="698" on="1"/>
        <pt x="196" y="362" on="1"/>
        <pt x="250" y="114" on="1"/>
        <pt x="252" y="114" on="1"/>
        <pt x="313" y="362" on="1"/>
        <pt x="399" y="698" on="1"/>
        <pt x="508" y="698" on="1"/>
        <pt x="592" y="362" on="1"/>
        <pt x="653" y="115" on="1"/>
        <pt x="656" y="115" on="1"/>
        <pt x="711" y="362" on="1"/>
        <pt x="788" y="698" on="1"/>
        <pt x="885" y="698" on="1"/>
        <pt x="709" y="0" on="1"/>
        <pt x="601" y="0" on="1"/>
        <pt x="510" y="354" on="1"/>
        <pt x="452" y="590" on="1"/>
        <pt x="450" y="590" on="1"/>
        <pt x="390" y="354" on="1"/>
        <pt x="298" y="0" on="1"/>
      </contour>
    </TTGlyph>
    <TTGlyph name="Wacute" xMin="22" yMin="0" xMax="885" yMax="954">
      <component glyphName="W" x="0" y="0" flags="0x204"/>
      <component glyphName="acute.case" x="154" y="0" flags="0x4"/>
    </TTGlyph>
    <TTGlyph name="Wcircumflex" xMin="22" yMin="0" xMax="885" yMax="939">
      <component glyphName="W" x="0" y="0" flags="0x204"/>
      <component glyphName="circumflex.case" x="154" y="0" flags="0x4"/>
    </TTGlyph>
    <TTGlyph name="Wdieresis" xMin="22" yMin="0" xMax="885" yMax="897">
      <component glyphName="W" x="0" y="0" flags="0x204"/>
      <component glyphName="dieresis.case" x="154" y="0" flags="0x4"/>
    </TTGlyph>
    <TTGlyph name="Wgrave" xMin="22" yMin="0" xMax="885" yMax="954">
      <component glyphName="W" x="0" y="0" flags="0x204"/>
      <component glyphName="grave.case" x="154" y="0" flags="0x4"/>
    </TTGlyph>
    <TTGlyph name="X" xMin="22" yMin="0" xMax="602" yMax="698">
      <contour>
        <pt x="602" y="0" on="1"/>
        <pt x="486" y="0" on="1"/>
        <pt x="310" y="286" on="1"/>
        <pt x="307" y="286" on="1"/>
        <pt x="131" y="0" on="1"/>
        <pt x="22" y="0" on="1"/>
        <pt x="250" y="357" on="1"/>
        <pt x="29" y="698" on="1"/>
        <pt x="145" y="698" on="1"/>
        <pt x="312" y="428" on="1"/>
        <pt x="315" y="428" on="1"/>
        <pt x="486" y="698" on="1"/>
        <pt x="595" y="698" on="1"/>
        <pt x="373" y="358" on="1"/>
      </contour>
    </TTGlyph>
    <TTGlyph name="Xi" xMin="62" yMin="0" xMax="526" yMax="698">
      <contour>
        <pt x="62" y="698" on="1"/>
        <pt x="526" y="698" on="1"/>
        <pt x="526" y="612" on="1"/>
        <pt x="62" y="612" on="1"/>
      </contour>
      <contour>
        <pt x="106" y="396" on="1"/>
        <pt x="482" y="396" on="1"/>
        <pt x="482" y="310" on="1"/>
        <pt x="106" y="310" on="1"/>
      </contour>
      <contour>
        <pt x="62" y="86" on="1"/>
        <pt x="526" y="86" on="1"/>
        <pt x="526" y="0" on="1"/>
        <pt x="62" y="0" on="1"/>
      </contour>
    </TTGlyph>
    <TTGlyph name="Y" xMin="12" yMin="0" xMax="591" yMax="698">
      <contour>
        <pt x="252" y="0" on="1"/>
        <pt x="252" y="275" on="1"/>
        <pt x="12" y="698" on="1"/>
        <pt x="123" y="698" on="1"/>
        <pt x="302" y="373" on="1"/>
        <pt x="305" y="373" on="1"/>
        <pt x="483" y="698" on="1"/>
        <pt x="591" y="698" on="1"/>
        <pt x="349" y="278" on="1"/>
        <pt x="349" y="0" on="1"/>
      </contour>
    </TTGlyph>
    <TTGlyph name="Yacute" xMin="12" yMin="0" xMax="591" yMax="954">
      <component glyphName="Y" x="0" y="0" flags="0x204"/>
      <component glyphName="acute.case" x="2" y="0" flags="0x4"/>
    </TTGlyph>
    <TTGlyph name="Ycircumflex" xMin="12" yMin="0" xMax="591" yMax="939">
      <component glyphName="Y" x="0" y="0" flags="0x204"/>
      <component glyphName="circumflex.case" x="2" y="0" flags="0x4"/>
    </TTGlyph>
    <TTGlyph name="Ydieresis" xMin="12" yMin="0" xMax="591" yMax="897">
      <component glyphName="Y" x="0" y="0" flags="0x204"/>
      <component glyphName="dieresis.case" x="2" y="0" flags="0x4"/>
    </TTGlyph>
    <TTGlyph name="Ygrave" xMin="12" yMin="0" xMax="591" yMax="954">
      <component glyphName="Y" x="0" y="0" flags="0x204"/>
      <component glyphName="grave.case" x="2" y="0" flags="0x4"/>
    </TTGlyph>
    <TTGlyph name="Z" xMin="37" yMin="0" xMax="549" yMax="698">
      <contour>
        <pt x="549" y="0" on="1"/>
        <pt x="37" y="0" on="1"/>
        <pt x="37" y="87" on="1"/>
        <pt x="427" y="612" on="1"/>
        <pt x="57" y="612" on="1"/>
        <pt x="57" y="698" on="1"/>
        <pt x="536" y="698" on="1"/>
        <pt x="536" y="611" on="1"/>
        <pt x="144" y="86" on="1"/>
        <pt x="549" y="86" on="1"/>
      </contour>
    </TTGlyph>
    <TTGlyph name="Zacute" xMin="37" yMin="0" xMax="549" yMax="954">
      <component glyphName="Z" x="0" y="0" flags="0x204"/>
      <component glyphName="acute.case" x="-1" y="0" flags="0x4"/>
    </TTGlyph>
    <TTGlyph name="Zcaron" xMin="37" yMin="0" xMax="549" yMax="947">
      <component glyphName="Z" x="0" y="0" flags="0x204"/>
      <component glyphName="caron.case" x="-1" y="0" flags="0x4"/>
    </TTGlyph>
    <TTGlyph name="Zdotaccent" xMin="37" yMin="0" xMax="549" yMax="904">
      <component glyphName="Z" x="0" y="0" flags="0x204"/>
      <component glyphName="dotaccent.case" x="-1" y="0" flags="0x4"/>
    </TTGlyph>
    <TTGlyph name="Zeta" xMin="37" yMin="0" xMax="549" yMax="698">
      <component glyphName="Z" x="0" y="0" flags="0x204"/>
    </TTGlyph>
    <TTGlyph name="a" xMin="42" yMin="-12" xMax="512" yMax="530">
      <contour>
        <pt x="459" y="0" on="1"/>
        <pt x="416" y="0" on="0"/>
        <pt x="373" y="48" on="0"/>
        <pt x="368" y="86" on="1"/>
        <pt x="363" y="86" on="1"/>
        <pt x="347" y="38" on="0"/>
        <pt x="269" y="-12" on="0"/>
        <pt x="213" y="-12" on="1"/>
        <pt x="132" y="-12" on="0"/>
        <pt x="42" y="71" on="0"/>
        <pt x="42" y="143" on="1"/>
        <pt x="42" y="218" on="0"/>
        <pt x="151" y="297" on="0"/>
        <pt x="263" y="297" on="1"/>
        <pt x="361" y="297" on="1"/>
        <pt x="361" y="344" on="1"/>
        <pt x="361" y="396" on="0"/>
        <pt x="305" y="452" on="0"/>
        <pt x="246" y="452" on="1"/>
        <pt x="200" y="452" on="0"/>
        <pt x="139" y="411" on="0"/>
        <pt x="119" y="378" on="1"/>
        <pt x="63" y="429" on="1"/>
        <pt x="86" y="471" on="0"/>
        <pt x="179" y="530" on="0"/>
        <pt x="251" y="530" on="1"/>
        <pt x="348" y="530" on="0"/>
        <pt x="454" y="437" on="0"/>
        <pt x="454" y="352" on="1"/>
        <pt x="454" y="79" on="1"/>
        <pt x="512" y="79" on="1"/>
        <pt x="512" y="0" on="1"/>
      </contour>
      <contour>
        <pt x="234" y="63" on="1"/>
        <pt x="289" y="63" on="0"/>
        <pt x="361" y="113" on="0"/>
        <pt x="361" y="152" on="1"/>
        <pt x="361" y="232" on="1"/>
        <pt x="262" y="232" on="1"/>
        <pt x="198" y="232" on="0"/>
        <pt x="139" y="194" on="0"/>
        <pt x="139" y="158" on="1"/>
        <pt x="139" y="138" on="1"/>
        <pt x="139" y="102" on="0"/>
        <pt x="190" y="63" on="0"/>
      </contour>
    </TTGlyph>
    <TTGlyph name="a.alt01" xMin="49" yMin="-12" xMax="503" yMax="530">
      <contour>
        <pt x="410" y="85" on="1"/>
        <pt x="406" y="85" on="1"/>
        <pt x="388" y="37" on="0"/>
        <pt x="311" y="-12" on="0"/>
        <pt x="257" y="-12" on="1"/>
        <pt x="208" y="-12" on="0"/>
        <pt x="131" y="25" on="0"/>
        <pt x="77" y="96" on="0"/>
        <pt x="49" y="196" on="0"/>
        <pt x="49" y="259" on="1"/>
        <pt x="49" y="322" on="0"/>
        <pt x="77" y="422" on="0"/>
        <pt x="131" y="493" on="0"/>
        <pt x="208" y="530" on="0"/>
        <pt x="257" y="530" on="1"/>
        <pt x="311" y="530" on="0"/>
        <pt x="388" y="481" on="0"/>
        <pt x="406" y="433" on="1"/>
        <pt x="410" y="433" on="1"/>
        <pt x="410" y="518" on="1"/>
        <pt x="503" y="518" on="1"/>
        <pt x="503" y="0" on="1"/>
        <pt x="410" y="0" on="1"/>
      </contour>
      <contour>
        <pt x="284" y="69" on="1"/>
        <pt x="310" y="69" on="0"/>
        <pt x="356" y="83" on="0"/>
        <pt x="390" y="109" on="0"/>
        <pt x="410" y="143" on="0"/>
        <pt x="410" y="164" on="1"/>
        <pt x="410" y="354" on="1"/>
        <pt x="410" y="375" on="0"/>
        <pt x="390" y="409" on="0"/>
        <pt x="356" y="435" on="0"/>
        <pt x="310" y="449" on="0"/>
        <pt x="284" y="449" on="1"/>
        <pt x="221" y="449" on="0"/>
        <pt x="148" y="369" on="0"/>
        <pt x="148" y="303" on="1"/>
        <pt x="148" y="215" on="1"/>
        <pt x="148" y="149" on="0"/>
        <pt x="221" y="69" on="0"/>
      </contour>
    </TTGlyph>
    <TTGlyph name="aacute" xMin="42" yMin="-12" xMax="512" yMax="786">
      <component glyphName="a" x="0" y="0" flags="0x204"/>
      <component glyphName="acute" x="-44" y="0" flags="0x4"/>
    </TTGlyph>
    <TTGlyph name="aacute.alt01" xMin="49" yMin="-12" xMax="503" yMax="786">
      <component glyphName="a.alt01" x="0" y="0" flags="0x204"/>
      <component glyphName="acute" x="-14" y="0" flags="0x4"/>
    </TTGlyph>
    <TTGlyph name="abreve" xMin="42" yMin="-12" xMax="512" yMax="752">
      <component glyphName="a" x="0" y="0" flags="0x204"/>
      <component glyphName="breve" x="-44" y="0" flags="0x4"/>
    </TTGlyph>
    <TTGlyph name="abreve.alt01" xMin="49" yMin="-12" xMax="503" yMax="752">
      <component glyphName="a.alt01" x="0" y="0" flags="0x204"/>
      <component glyphName="breve" x="-14" y="0" flags="0x4"/>
    </TTGlyph>
    <TTGlyph name="acircumflex" xMin="42" yMin="-12" xMax="512" yMax="771">
      <component glyphName="a" x="0" y="0" flags="0x204"/>
      <component glyphName="circumflex" x="-44" y="0" flags="0x4"/>
    </TTGlyph>
    <TTGlyph name="acircumflex.alt01" xMin="49" yMin="-12" xMax="503" yMax="771">
      <component glyphName="a.alt01" x="0" y="0" flags="0x204"/>
      <component glyphName="circumflex" x="-14" y="0" flags="0x4"/>
    </TTGlyph>
    <TTGlyph name="acute" xMin="250" yMin="584" xMax="420" yMax="786">
      <contour>
        <pt x="309" y="584" on="1"/>
        <pt x="250" y="611" on="1"/>
        <pt x="338" y="786" on="1"/>
        <pt x="420" y="746" on="1"/>
      </contour>
    </TTGlyph>
    <TTGlyph name="acute.case" xMin="250" yMin="752" xMax="420" yMax="954">
      <contour>
        <pt x="309" y="752" on="1"/>
        <pt x="250" y="780" on="1"/>
        <pt x="338" y="954" on="1"/>
        <pt x="420" y="914" on="1"/>
      </contour>
    </TTGlyph>
    <TTGlyph name="adieresis" xMin="42" yMin="-12" xMax="512" yMax="727">
      <component glyphName="a" x="0" y="0" flags="0x204"/>
      <component glyphName="dieresis" x="-44" y="0" flags="0x4"/>
    </TTGlyph>
    <TTGlyph name="adieresis.alt01" xMin="49" yMin="-12" xMax="503" yMax="727">
      <component glyphName="a.alt01" x="0" y="0" flags="0x204"/>
      <component glyphName="dieresis" x="-14" y="0" flags="0x4"/>
    </TTGlyph>
    <TTGlyph name="ae" xMin="42" yMin="-12" xMax="819" yMax="530">
      <contour>
        <pt x="262" y="236" on="1"/>
        <pt x="199" y="234" on="0"/>
        <pt x="139" y="194" on="0"/>
        <pt x="139" y="159" on="1"/>
        <pt x="139" y="139" on="1"/>
        <pt x="139" y="102" on="0"/>
        <pt x="189" y="63" on="0"/>
        <pt x="235" y="63" on="1"/>
        <pt x="262" y="63" on="0"/>
        <pt x="308" y="76" on="0"/>
        <pt x="342" y="100" on="0"/>
        <pt x="361" y="132" on="0"/>
        <pt x="361" y="152" on="1"/>
        <pt x="361" y="236" on="1"/>
      </contour>
      <contour>
        <pt x="720" y="301" on="1"/>
        <pt x="720" y="311" on="1"/>
        <pt x="720" y="376" on="0"/>
        <pt x="651" y="455" on="0"/>
        <pt x="593" y="455" on="1"/>
        <pt x="562" y="455" on="0"/>
        <pt x="511" y="433" on="0"/>
        <pt x="475" y="394" on="0"/>
        <pt x="455" y="340" on="0"/>
        <pt x="455" y="308" on="1"/>
        <pt x="455" y="301" on="1"/>
      </contour>
      <contour>
        <pt x="601" y="67" on="1"/>
        <pt x="650" y="67" on="0"/>
        <pt x="719" y="111" on="0"/>
        <pt x="741" y="150" on="1"/>
        <pt x="801" y="100" on="1"/>
        <pt x="774" y="49" on="0"/>
        <pt x="669" y="-12" on="0"/>
        <pt x="601" y="-12" on="1"/>
        <pt x="561" y="-12" on="0"/>
        <pt x="494" y="10" on="0"/>
        <pt x="445" y="43" on="0"/>
        <pt x="413" y="84" on="0"/>
        <pt x="408" y="102" on="1"/>
        <pt x="402" y="102" on="1"/>
        <pt x="397" y="84" on="0"/>
        <pt x="369" y="44" on="0"/>
        <pt x="321" y="10" on="0"/>
        <pt x="255" y="-12" on="0"/>
        <pt x="212" y="-12" on="1"/>
        <pt x="133" y="-12" on="0"/>
        <pt x="42" y="72" on="0"/>
        <pt x="42" y="142" on="1"/>
        <pt x="42" y="219" on="0"/>
        <pt x="155" y="301" on="0"/>
        <pt x="263" y="301" on="1"/>
        <pt x="361" y="301" on="1"/>
        <pt x="361" y="344" on="1"/>
        <pt x="361" y="396" on="0"/>
        <pt x="305" y="452" on="0"/>
        <pt x="249" y="452" on="1"/>
        <pt x="200" y="452" on="0"/>
        <pt x="139" y="412" on="0"/>
        <pt x="119" y="378" on="1"/>
        <pt x="63" y="429" on="1"/>
        <pt x="86" y="471" on="0"/>
        <pt x="179" y="530" on="0"/>
        <pt x="252" y="530" on="1"/>
        <pt x="292" y="530" on="0"/>
        <pt x="348" y="508" on="0"/>
        <pt x="385" y="476" on="0"/>
        <pt x="406" y="439" on="0"/>
        <pt x="412" y="423" on="1"/>
        <pt x="418" y="423" on="1"/>
        <pt x="424" y="440" on="0"/>
        <pt x="454" y="478" on="0"/>
        <pt x="501" y="509" on="0"/>
        <pt x="563" y="530" on="0"/>
        <pt x="600" y="530" on="1"/>
        <pt x="652" y="530" on="0"/>
        <pt x="734" y="491" on="0"/>
        <pt x="790" y="423" on="0"/>
        <pt x="819" y="329" on="0"/>
        <pt x="819" y="275" on="1"/>
        <pt x="819" y="236" on="1"/>
        <pt x="454" y="236" on="1"/>
        <pt x="454" y="215" on="1"/>
        <pt x="454" y="183" on="0"/>
        <pt x="474" y="129" on="0"/>
        <pt x="512" y="89" on="0"/>
        <pt x="566" y="67" on="0"/>
      </contour>
    </TTGlyph>
    <TTGlyph name="aeacute" xMin="42" yMin="-12" xMax="819" yMax="786">
      <component glyphName="ae" x="0" y="0" flags="0x204"/>
      <component glyphName="acute" x="117" y="0" flags="0x4"/>
    </TTGlyph>
    <TTGlyph name="agrave" xMin="42" yMin="-12" xMax="512" yMax="786">
      <component glyphName="a" x="0" y="0" flags="0x204"/>
      <component glyphName="grave" x="-44" y="0" flags="0x4"/>
    </TTGlyph>
    <TTGlyph name="agrave.alt01" xMin="49" yMin="-12" xMax="503" yMax="786">
      <component glyphName="a.alt01" x="0" y="0" flags="0x204"/>
      <component glyphName="grave" x="-14" y="0" flags="0x4"/>
    </TTGlyph>
    <TTGlyph name="alpha" xMin="49" yMin="-12" xMax="613" yMax="530">
      <contour>
        <pt x="613" y="0" on="1"/>
        <pt x="565" y="0" on="1"/>
        <pt x="521" y="0" on="0"/>
        <pt x="474" y="39" on="0"/>
        <pt x="466" y="87" on="1"/>
        <pt x="451" y="177" on="1"/>
        <pt x="447" y="177" on="1"/>
        <pt x="426" y="83" on="0"/>
        <pt x="336" y="-12" on="0"/>
        <pt x="256" y="-12" on="1"/>
        <pt x="209" y="-12" on="0"/>
        <pt x="133" y="26" on="0"/>
        <pt x="79" y="96" on="0"/>
        <pt x="49" y="197" on="0"/>
        <pt x="49" y="259" on="1"/>
        <pt x="49" y="321" on="0"/>
        <pt x="79" y="421" on="0"/>
        <pt x="133" y="492" on="0"/>
        <pt x="209" y="530" on="0"/>
        <pt x="256" y="530" on="1"/>
        <pt x="334" y="530" on="0"/>
        <pt x="428" y="437" on="0"/>
        <pt x="450" y="341" on="1"/>
        <pt x="454" y="341" on="1"/>
        <pt x="481" y="444" on="1"/>
        <pt x="507" y="518" on="1"/>
        <pt x="606" y="518" on="1"/>
        <pt x="496" y="261" on="1"/>
        <pt x="558" y="79" on="1"/>
        <pt x="613" y="79" on="1"/>
      </contour>
      <contour>
        <pt x="258" y="68" on="1"/>
        <pt x="299" y="68" on="0"/>
        <pt x="354" y="114" on="0"/>
        <pt x="377" y="178" on="1"/>
        <pt x="406" y="259" on="1"/>
        <pt x="377" y="340" on="1"/>
        <pt x="365" y="372" on="0"/>
        <pt x="341" y="414" on="0"/>
        <pt x="312" y="439" on="0"/>
        <pt x="279" y="449" on="0"/>
        <pt x="258" y="449" on="1"/>
        <pt x="236" y="449" on="0"/>
        <pt x="196" y="430" on="0"/>
        <pt x="166" y="392" on="0"/>
        <pt x="148" y="334" on="0"/>
        <pt x="148" y="296" on="1"/>
        <pt x="148" y="222" on="1"/>
        <pt x="148" y="184" on="0"/>
        <pt x="166" y="126" on="0"/>
        <pt x="196" y="87" on="0"/>
        <pt x="236" y="68" on="0"/>
      </contour>
    </TTGlyph>
    <TTGlyph name="alpha.alt01" xMin="49" yMin="-12" xMax="560" yMax="530">
      <contour>
        <pt x="560" y="0" on="1"/>
        <pt x="506" y="0" on="1"/>
        <pt x="461" y="0" on="0"/>
        <pt x="413" y="48" on="0"/>
        <pt x="411" y="86" on="1"/>
        <pt x="406" y="86" on="1"/>
        <pt x="388" y="37" on="0"/>
        <pt x="311" y="-12" on="0"/>
        <pt x="257" y="-12" on="1"/>
        <pt x="208" y="-12" on="0"/>
        <pt x="131" y="25" on="0"/>
        <pt x="77" y="96" on="0"/>
        <pt x="49" y="196" on="0"/>
        <pt x="49" y="259" on="1"/>
        <pt x="49" y="322" on="0"/>
        <pt x="77" y="422" on="0"/>
        <pt x="131" y="493" on="0"/>
        <pt x="208" y="530" on="0"/>
        <pt x="257" y="530" on="1"/>
        <pt x="311" y="530" on="0"/>
        <pt x="388" y="481" on="0"/>
        <pt x="406" y="433" on="1"/>
        <pt x="410" y="433" on="1"/>
        <pt x="410" y="518" on="1"/>
        <pt x="503" y="518" on="1"/>
        <pt x="503" y="79" on="1"/>
        <pt x="560" y="79" on="1"/>
      </contour>
      <contour>
        <pt x="284" y="69" on="1"/>
        <pt x="310" y="69" on="0"/>
        <pt x="356" y="83" on="0"/>
        <pt x="390" y="109" on="0"/>
        <pt x="410" y="143" on="0"/>
        <pt x="410" y="164" on="1"/>
        <pt x="410" y="354" on="1"/>
        <pt x="410" y="375" on="0"/>
        <pt x="390" y="409" on="0"/>
        <pt x="356" y="435" on="0"/>
        <pt x="310" y="449" on="0"/>
        <pt x="284" y="449" on="1"/>
        <pt x="221" y="449" on="0"/>
        <pt x="148" y="369" on="0"/>
        <pt x="148" y="303" on="1"/>
        <pt x="148" y="215" on="1"/>
        <pt x="148" y="149" on="0"/>
        <pt x="221" y="69" on="0"/>
      </contour>
    </TTGlyph>
    <TTGlyph name="alphatonos" xMin="49" yMin="-12" xMax="613" yMax="787">
      <component glyphName="alpha" x="0" y="0" flags="0x204"/>
      <component glyphName="tonos" x="-38" y="0" flags="0x4"/>
    </TTGlyph>
    <TTGlyph name="alphatonos.alt01" xMin="49" yMin="-12" xMax="560" yMax="787">
      <component glyphName="alpha.alt01" x="0" y="0" flags="0x204"/>
      <component glyphName="tonos" x="-25" y="0" flags="0x4"/>
    </TTGlyph>
    <TTGlyph name="amacron" xMin="42" yMin="-12" xMax="512" yMax="709">
      <component glyphName="a" x="0" y="0" flags="0x204"/>
      <component glyphName="macron" x="-44" y="0" flags="0x4"/>
    </TTGlyph>
    <TTGlyph name="amacron.alt01" xMin="49" yMin="-12" xMax="503" yMax="709">
      <component glyphName="a.alt01" x="0" y="0" flags="0x204"/>
      <component glyphName="macron" x="-14" y="0" flags="0x4"/>
    </TTGlyph>
    <TTGlyph name="ampersand" xMin="68" yMin="-12" xMax="678" yMax="710">
      <contour>
        <pt x="489" y="77" on="1"/>
        <pt x="477" y="64" on="0"/>
        <pt x="442" y="33" on="0"/>
        <pt x="392" y="6" on="0"/>
        <pt x="327" y="-12" on="0"/>
        <pt x="286" y="-12" on="1"/>
        <pt x="233" y="-12" on="0"/>
        <pt x="152" y="18" on="0"/>
        <pt x="96" y="70" on="0"/>
        <pt x="68" y="140" on="0"/>
        <pt x="68" y="181" on="1"/>
        <pt x="68" y="220" on="0"/>
        <pt x="92" y="279" on="0"/>
        <pt x="131" y="326" on="0"/>
        <pt x="183" y="363" on="0"/>
        <pt x="210" y="378" on="1"/>
        <pt x="175" y="415" on="0"/>
        <pt x="132" y="495" on="0"/>
        <pt x="132" y="542" on="1"/>
        <pt x="132" y="577" on="0"/>
        <pt x="158" y="639" on="0"/>
        <pt x="207" y="684" on="0"/>
        <pt x="276" y="710" on="0"/>
        <pt x="318" y="710" on="1"/>
        <pt x="356" y="710" on="0"/>
        <pt x="420" y="688" on="0"/>
        <pt x="466" y="649" on="0"/>
        <pt x="492" y="592" on="0"/>
        <pt x="492" y="558" on="1"/>
        <pt x="492" y="524" on="0"/>
        <pt x="467" y="469" on="0"/>
        <pt x="425" y="423" on="0"/>
        <pt x="368" y="384" on="0"/>
        <pt x="336" y="366" on="1"/>
        <pt x="484" y="207" on="1"/>
        <pt x="498" y="245" on="0"/>
        <pt x="514" y="328" on="0"/>
        <pt x="516" y="370" on="1"/>
        <pt x="658" y="370" on="1"/>
        <pt x="658" y="292" on="1"/>
        <pt x="589" y="292" on="1"/>
        <pt x="574" y="209" on="0"/>
        <pt x="541" y="146" on="1"/>
        <pt x="678" y="0" on="1"/>
        <pt x="559" y="0" on="1"/>
      </contour>
      <contour>
        <pt x="314" y="634" on="1"/>
        <pt x="274" y="634" on="0"/>
        <pt x="222" y="585" on="0"/>
        <pt x="222" y="547" on="1"/>
        <pt x="222" y="537" on="1"/>
        <pt x="222" y="508" on="0"/>
        <pt x="257" y="452" on="0"/>
        <pt x="288" y="418" on="1"/>
        <pt x="310" y="430" on="0"/>
        <pt x="352" y="458" on="0"/>
        <pt x="384" y="490" on="0"/>
        <pt x="403" y="524" on="0"/>
        <pt x="403" y="544" on="1"/>
        <pt x="403" y="555" on="1"/>
        <pt x="403" y="593" on="0"/>
        <pt x="350" y="634" on="0"/>
      </contour>
      <contour>
        <pt x="296" y="68" on="1"/>
        <pt x="343" y="68" on="0"/>
        <pt x="412" y="103" on="0"/>
        <pt x="438" y="132" on="1"/>
        <pt x="258" y="325" on="1"/>
        <pt x="238" y="314" on="0"/>
        <pt x="204" y="291" on="0"/>
        <pt x="179" y="261" on="0"/>
        <pt x="164" y="221" on="0"/>
        <pt x="164" y="195" on="1"/>
        <pt x="164" y="181" on="1"/>
        <pt x="164" y="129" on="0"/>
        <pt x="235" y="68" on="0"/>
      </contour>
    </TTGlyph>
    <TTGlyph name="anoteleia" xMin="83" yMin="387" xMax="215" yMax="526">
      <component glyphName="period" x="10" y="399" flags="0x4"/>
    </TTGlyph>
    <TTGlyph name="aogonek" xMin="42" yMin="-208" xMax="535" yMax="530">
      <contour>
        <pt x="512" y="0" on="1"/>
        <pt x="479" y="-28" on="0"/>
        <pt x="439" y="-66" on="0"/>
        <pt x="417" y="-93" on="0"/>
        <pt x="410" y="-111" on="0"/>
        <pt x="410" y="-120" on="1"/>
        <pt x="410" y="-137" on="0"/>
        <pt x="429" y="-150" on="0"/>
        <pt x="443" y="-150" on="1"/>
        <pt x="473" y="-150" on="0"/>
        <pt x="492" y="-125" on="1"/>
        <pt x="535" y="-167" on="1"/>
        <pt x="525" y="-184" on="0"/>
        <pt x="477" y="-208" on="0"/>
        <pt x="440" y="-208" on="1"/>
        <pt x="399" y="-208" on="0"/>
        <pt x="340" y="-171" on="0"/>
        <pt x="340" y="-130" on="1"/>
        <pt x="340" y="-91" on="0"/>
        <pt x="400" y="-31" on="0"/>
        <pt x="445" y="-2" on="1"/>
        <pt x="444" y="1" on="1"/>
        <pt x="409" y="6" on="0"/>
        <pt x="373" y="52" on="0"/>
        <pt x="368" y="86" on="1"/>
        <pt x="363" y="86" on="1"/>
        <pt x="347" y="38" on="0"/>
        <pt x="269" y="-12" on="0"/>
        <pt x="213" y="-12" on="1"/>
        <pt x="132" y="-12" on="0"/>
        <pt x="42" y="71" on="0"/>
        <pt x="42" y="143" on="1"/>
        <pt x="42" y="218" on="0"/>
        <pt x="151" y="297" on="0"/>
        <pt x="263" y="297" on="1"/>
        <pt x="361" y="297" on="1"/>
        <pt x="361" y="344" on="1"/>
        <pt x="361" y="396" on="0"/>
        <pt x="305" y="452" on="0"/>
        <pt x="246" y="452" on="1"/>
        <pt x="200" y="452" on="0"/>
        <pt x="139" y="411" on="0"/>
        <pt x="119" y="378" on="1"/>
        <pt x="63" y="429" on="1"/>
        <pt x="86" y="471" on="0"/>
        <pt x="179" y="530" on="0"/>
        <pt x="251" y="530" on="1"/>
        <pt x="348" y="530" on="0"/>
        <pt x="454" y="437" on="0"/>
        <pt x="454" y="352" on="1"/>
        <pt x="454" y="79" on="1"/>
        <pt x="512" y="79" on="1"/>
      </contour>
      <contour>
        <pt x="262" y="232" on="1"/>
        <pt x="198" y="232" on="0"/>
        <pt x="139" y="194" on="0"/>
        <pt x="139" y="158" on="1"/>
        <pt x="139" y="138" on="1"/>
        <pt x="139" y="102" on="0"/>
        <pt x="190" y="63" on="0"/>
        <pt x="234" y="63" on="1"/>
        <pt x="289" y="63" on="0"/>
        <pt x="361" y="113" on="0"/>
        <pt x="361" y="152" on="1"/>
        <pt x="361" y="232" on="1"/>
      </contour>
    </TTGlyph>
    <TTGlyph name="aogonek.alt01" xMin="49" yMin="-208" xMax="527" yMax="530">
      <contour>
        <pt x="503" y="0" on="1"/>
        <pt x="470" y="-28" on="0"/>
        <pt x="431" y="-66" on="0"/>
        <pt x="409" y="-93" on="0"/>
        <pt x="402" y="-111" on="0"/>
        <pt x="402" y="-120" on="1"/>
        <pt x="402" y="-137" on="0"/>
        <pt x="421" y="-150" on="0"/>
        <pt x="435" y="-150" on="1"/>
        <pt x="465" y="-150" on="0"/>
        <pt x="484" y="-125" on="1"/>
        <pt x="527" y="-167" on="1"/>
        <pt x="517" y="-184" on="0"/>
        <pt x="469" y="-208" on="0"/>
        <pt x="432" y="-208" on="1"/>
        <pt x="391" y="-208" on="0"/>
        <pt x="332" y="-171" on="0"/>
        <pt x="332" y="-130" on="1"/>
        <pt x="332" y="-91" on="0"/>
        <pt x="393" y="-32" on="0"/>
        <pt x="436" y="-3" on="1"/>
        <pt x="435" y="0" on="1"/>
        <pt x="410" y="0" on="1"/>
        <pt x="410" y="85" on="1"/>
        <pt x="406" y="85" on="1"/>
        <pt x="388" y="37" on="0"/>
        <pt x="311" y="-12" on="0"/>
        <pt x="257" y="-12" on="1"/>
        <pt x="208" y="-12" on="0"/>
        <pt x="131" y="25" on="0"/>
        <pt x="77" y="96" on="0"/>
        <pt x="49" y="196" on="0"/>
        <pt x="49" y="259" on="1"/>
        <pt x="49" y="322" on="0"/>
        <pt x="77" y="422" on="0"/>
        <pt x="131" y="493" on="0"/>
        <pt x="208" y="530" on="0"/>
        <pt x="257" y="530" on="1"/>
        <pt x="311" y="530" on="0"/>
        <pt x="388" y="481" on="0"/>
        <pt x="406" y="433" on="1"/>
        <pt x="410" y="433" on="1"/>
        <pt x="410" y="518" on="1"/>
        <pt x="503" y="518" on="1"/>
      </contour>
      <contour>
        <pt x="284" y="69" on="1"/>
        <pt x="310" y="69" on="0"/>
        <pt x="356" y="83" on="0"/>
        <pt x="390" y="109" on="0"/>
        <pt x="410" y="143" on="0"/>
        <pt x="410" y="164" on="1"/>
        <pt x="410" y="354" on="1"/>
        <pt x="410" y="375" on="0"/>
        <pt x="390" y="409" on="0"/>
        <pt x="356" y="435" on="0"/>
        <pt x="310" y="449" on="0"/>
        <pt x="284" y="449" on="1"/>
        <pt x="221" y="449" on="0"/>
        <pt x="148" y="369" on="0"/>
        <pt x="148" y="303" on="1"/>
        <pt x="148" y="215" on="1"/>
        <pt x="148" y="149" on="0"/>
        <pt x="221" y="69" on="0"/>
      </contour>
    </TTGlyph>
    <TTGlyph name="approxequal" xMin="59" yMin="130" xMax="541" yMax="482">
      <component glyphName="asciitilde" x="0" y="103" flags="0x204"/>
      <component glyphName="asciitilde" x="0" y="-101" flags="0x4"/>
    </TTGlyph>
    <TTGlyph name="aring" xMin="42" yMin="-12" xMax="512" yMax="813">
      <component glyphName="a" x="0" y="0" flags="0x204"/>
      <component glyphName="ring" x="-44" y="0" flags="0x4"/>
    </TTGlyph>
    <TTGlyph name="aring.alt01" xMin="49" yMin="-12" xMax="503" yMax="813">
      <component glyphName="a.alt01" x="0" y="0" flags="0x204"/>
      <component glyphName="ring" x="-14" y="0" flags="0x4"/>
    </TTGlyph>
    <TTGlyph name="aringacute" xMin="42" yMin="-12" xMax="512" yMax="962">
      <component glyphName="a" x="0" y="0" flags="0x204"/>
      <component glyphName="ringacute" x="-44" y="0" flags="0x4"/>
    </TTGlyph>
    <TTGlyph name="aringacute.alt01" xMin="49" yMin="-12" xMax="503" yMax="962">
      <component glyphName="a.alt01" x="0" y="0" flags="0x204"/>
      <component glyphName="ringacute" x="-14" y="0" flags="0x4"/>
    </TTGlyph>
    <TTGlyph name="asciicircum" xMin="48" yMin="292" xMax="552" yMax="698">
      <contour>
        <pt x="481" y="292" on="1"/>
        <pt x="302" y="607" on="1"/>
        <pt x="298" y="607" on="1"/>
        <pt x="119" y="292" on="1"/>
        <pt x="48" y="329" on="1"/>
        <pt x="254" y="698" on="1"/>
        <pt x="346" y="698" on="1"/>
        <pt x="552" y="329" on="1"/>
      </contour>
    </TTGlyph>
    <TTGlyph name="asciitilde" xMin="59" yMin="231" xMax="541" yMax="379">
      <contour>
        <pt x="418" y="231" on="1"/>
        <pt x="381" y="231" on="0"/>
        <pt x="325" y="251" on="0"/>
        <pt x="290" y="268" on="1"/>
        <pt x="262" y="282" on="0"/>
        <pt x="209" y="302" on="0"/>
        <pt x="178" y="302" on="1"/>
        <pt x="153" y="302" on="0"/>
        <pt x="118" y="287" on="0"/>
        <pt x="96" y="271" on="1"/>
        <pt x="59" y="323" on="1"/>
        <pt x="79" y="348" on="0"/>
        <pt x="136" y="379" on="0"/>
        <pt x="182" y="379" on="1"/>
        <pt x="219" y="379" on="0"/>
        <pt x="275" y="359" on="0"/>
        <pt x="310" y="342" on="1"/>
        <pt x="338" y="328" on="0"/>
        <pt x="391" y="308" on="0"/>
        <pt x="422" y="308" on="1"/>
        <pt x="447" y="308" on="0"/>
        <pt x="482" y="323" on="0"/>
        <pt x="504" y="339" on="1"/>
        <pt x="541" y="287" on="1"/>
        <pt x="521" y="262" on="0"/>
        <pt x="464" y="231" on="0"/>
      </contour>
    </TTGlyph>
    <TTGlyph name="asterisk" xMin="35" yMin="359" xMax="444" yMax="747">
      <contour>
        <pt x="153" y="359" on="1"/>
        <pt x="87" y="406" on="1"/>
        <pt x="185" y="529" on="1"/>
        <pt x="35" y="571" on="1"/>
        <pt x="61" y="647" on="1"/>
        <pt x="206" y="592" on="1"/>
        <pt x="199" y="747" on="1"/>
        <pt x="280" y="747" on="1"/>
        <pt x="274" y="592" on="1"/>
        <pt x="419" y="647" on="1"/>
        <pt x="444" y="571" on="1"/>
        <pt x="294" y="529" on="1"/>
        <pt x="392" y="406" on="1"/>
        <pt x="327" y="360" on="1"/>
        <pt x="240" y="490" on="1"/>
      </contour>
    </TTGlyph>
    <TTGlyph name="at" xMin="64" yMin="-121" xMax="830" yMax="708">
      <contour>
        <pt x="678" y="-121" on="1"/>
        <pt x="450" y="-121" on="1"/>
        <pt x="362" y="-121" on="0"/>
        <pt x="219" y="-62" on="0"/>
        <pt x="119" y="45" on="0"/>
        <pt x="64" y="196" on="0"/>
        <pt x="64" y="289" on="1"/>
        <pt x="64" y="382" on="0"/>
        <pt x="120" y="536" on="0"/>
        <pt x="223" y="647" on="0"/>
        <pt x="368" y="708" on="0"/>
        <pt x="457" y="708" on="1"/>
        <pt x="530" y="708" on="0"/>
        <pt x="665" y="663" on="0"/>
        <pt x="769" y="570" on="0"/>
        <pt x="830" y="425" on="0"/>
        <pt x="830" y="325" on="1"/>
        <pt x="830" y="272" on="0"/>
        <pt x="810" y="179" on="0"/>
        <pt x="766" y="110" on="0"/>
        <pt x="699" y="70" on="0"/>
        <pt x="653" y="70" on="1"/>
        <pt x="605" y="70" on="0"/>
        <pt x="552" y="119" on="0"/>
        <pt x="548" y="158" on="1"/>
        <pt x="544" y="158" on="1"/>
        <pt x="526" y="117" on="0"/>
        <pt x="467" y="70" on="0"/>
        <pt x="421" y="70" on="1"/>
        <pt x="386" y="70" on="0"/>
        <pt x="325" y="97" on="0"/>
        <pt x="278" y="151" on="0"/>
        <pt x="251" y="233" on="0"/>
        <pt x="251" y="289" on="1"/>
        <pt x="251" y="344" on="0"/>
        <pt x="278" y="427" on="0"/>
        <pt x="325" y="482" on="0"/>
        <pt x="386" y="509" on="0"/>
        <pt x="421" y="509" on="1"/>
        <pt x="467" y="509" on="0"/>
        <pt x="520" y="463" on="0"/>
        <pt x="533" y="430" on="1"/>
        <pt x="537" y="430" on="1"/>
        <pt x="537" y="500" on="1"/>
        <pt x="614" y="500" on="1"/>
        <pt x="614" y="200" on="1"/>
        <pt x="614" y="163" on="0"/>
        <pt x="641" y="137" on="0"/>
        <pt x="667" y="137" on="1"/>
        <pt x="712" y="137" on="0"/>
        <pt x="759" y="230" on="0"/>
        <pt x="759" y="312" on="1"/>
        <pt x="759" y="354" on="1"/>
        <pt x="759" y="420" on="0"/>
        <pt x="713" y="527" on="0"/>
        <pt x="631" y="602" on="0"/>
        <pt x="520" y="643" on="0"/>
        <pt x="456" y="643" on="1"/>
        <pt x="385" y="643" on="0"/>
        <pt x="267" y="593" on="0"/>
        <pt x="183" y="506" on="0"/>
        <pt x="136" y="388" on="0"/>
        <pt x="136" y="319" on="1"/>
        <pt x="136" y="264" on="1"/>
        <pt x="136" y="194" on="0"/>
        <pt x="181" y="77" on="0"/>
        <pt x="264" y="-8" on="0"/>
        <pt x="380" y="-55" on="0"/>
        <pt x="451" y="-55" on="1"/>
        <pt x="678" y="-55" on="1"/>
      </contour>
      <contour>
        <pt x="440" y="141" on="1"/>
        <pt x="488" y="141" on="0"/>
        <pt x="537" y="189" on="0"/>
        <pt x="537" y="231" on="1"/>
        <pt x="537" y="353" on="1"/>
        <pt x="537" y="389" on="0"/>
        <pt x="489" y="438" on="0"/>
        <pt x="440" y="438" on="1"/>
        <pt x="390" y="438" on="0"/>
        <pt x="341" y="378" on="0"/>
        <pt x="341" y="328" on="1"/>
        <pt x="341" y="250" on="1"/>
        <pt x="341" y="200" on="0"/>
        <pt x="390" y="141" on="0"/>
      </contour>
    </TTGlyph>
    <TTGlyph name="atilde" xMin="42" yMin="-12" xMax="512" yMax="732">
      <component glyphName="a" x="0" y="0" flags="0x204"/>
      <component glyphName="tilde" x="-44" y="0" flags="0x4"/>
    </TTGlyph>
    <TTGlyph name="atilde.alt01" xMin="49" yMin="-12" xMax="503" yMax="732">
      <component glyphName="a.alt01" x="0" y="0" flags="0x204"/>
      <component glyphName="tilde" x="-14" y="0" flags="0x4"/>
    </TTGlyph>
    <TTGlyph name="b" xMin="82" yMin="-12" xMax="536" yMax="740">
      <contour>
        <pt x="82" y="740" on="1"/>
        <pt x="175" y="740" on="1"/>
        <pt x="175" y="433" on="1"/>
        <pt x="179" y="433" on="1"/>
        <pt x="197" y="481" on="0"/>
        <pt x="274" y="530" on="0"/>
        <pt x="328" y="530" on="1"/>
        <pt x="377" y="530" on="0"/>
        <pt x="454" y="493" on="0"/>
        <pt x="508" y="422" on="0"/>
        <pt x="536" y="322" on="0"/>
        <pt x="536" y="259" on="1"/>
        <pt x="536" y="196" on="0"/>
        <pt x="508" y="96" on="0"/>
        <pt x="454" y="25" on="0"/>
        <pt x="377" y="-12" on="0"/>
        <pt x="328" y="-12" on="1"/>
        <pt x="274" y="-12" on="0"/>
        <pt x="197" y="37" on="0"/>
        <pt x="179" y="85" on="1"/>
        <pt x="175" y="85" on="1"/>
        <pt x="175" y="0" on="1"/>
        <pt x="82" y="0" on="1"/>
      </contour>
      <contour>
        <pt x="301" y="69" on="1"/>
        <pt x="364" y="69" on="0"/>
        <pt x="437" y="149" on="0"/>
        <pt x="437" y="215" on="1"/>
        <pt x="437" y="303" on="1"/>
        <pt x="437" y="369" on="0"/>
        <pt x="364" y="449" on="0"/>
        <pt x="301" y="449" on="1"/>
        <pt x="275" y="449" on="0"/>
        <pt x="229" y="435" on="0"/>
        <pt x="195" y="409" on="0"/>
        <pt x="175" y="375" on="0"/>
        <pt x="175" y="354" on="1"/>
        <pt x="175" y="164" on="1"/>
        <pt x="175" y="143" on="0"/>
        <pt x="195" y="109" on="0"/>
        <pt x="229" y="83" on="0"/>
        <pt x="275" y="69" on="0"/>
      </contour>
    </TTGlyph>
    <TTGlyph name="backslash" xMin="39" yMin="-151" xMax="390" yMax="740">
      <contour>
        <pt x="308" y="-151" on="1"/>
        <pt x="39" y="740" on="1"/>
        <pt x="121" y="740" on="1"/>
        <pt x="390" y="-151" on="1"/>
      </contour>
    </TTGlyph>
    <TTGlyph name="bar" xMin="126" yMin="-138" xMax="206" yMax="760">
      <contour>
        <pt x="126" y="-138" on="1"/>
        <pt x="126" y="760" on="1"/>
        <pt x="206" y="760" on="1"/>
        <pt x="206" y="-138" on="1"/>
      </contour>
    </TTGlyph>
    <TTGlyph name="beta" xMin="82" yMin="-200" xMax="537" yMax="752">
      <contour>
        <pt x="82" y="513" on="1"/>
        <pt x="82" y="624" on="0"/>
        <pt x="191" y="752" on="0"/>
        <pt x="297" y="752" on="1"/>
        <pt x="394" y="752" on="0"/>
        <pt x="502" y="653" on="0"/>
        <pt x="502" y="571" on="1"/>
        <pt x="502" y="534" on="0"/>
        <pt x="480" y="476" on="0"/>
        <pt x="443" y="434" on="0"/>
        <pt x="396" y="409" on="0"/>
        <pt x="371" y="404" on="1"/>
        <pt x="371" y="399" on="1"/>
        <pt x="402" y="395" on="0"/>
        <pt x="462" y="371" on="0"/>
        <pt x="508" y="327" on="0"/>
        <pt x="537" y="259" on="0"/>
        <pt x="537" y="212" on="1"/>
        <pt x="537" y="164" on="0"/>
        <pt x="508" y="82" on="0"/>
        <pt x="454" y="22" on="0"/>
        <pt x="375" y="-12" on="0"/>
        <pt x="325" y="-12" on="1"/>
        <pt x="274" y="-12" on="0"/>
        <pt x="199" y="28" on="0"/>
        <pt x="179" y="65" on="1"/>
        <pt x="175" y="65" on="1"/>
        <pt x="175" y="-200" on="1"/>
        <pt x="82" y="-200" on="1"/>
      </contour>
      <contour>
        <pt x="252" y="437" on="1"/>
        <pt x="296" y="437" on="1"/>
        <pt x="351" y="437" on="0"/>
        <pt x="404" y="496" on="0"/>
        <pt x="404" y="544" on="1"/>
        <pt x="404" y="569" on="1"/>
        <pt x="404" y="616" on="0"/>
        <pt x="350" y="671" on="0"/>
        <pt x="293" y="671" on="1"/>
        <pt x="234" y="671" on="0"/>
        <pt x="175" y="603" on="0"/>
        <pt x="175" y="528" on="1"/>
        <pt x="175" y="146" on="1"/>
        <pt x="175" y="128" on="0"/>
        <pt x="195" y="99" on="0"/>
        <pt x="229" y="79" on="0"/>
        <pt x="274" y="69" on="0"/>
        <pt x="300" y="69" on="1"/>
        <pt x="366" y="69" on="0"/>
        <pt x="439" y="138" on="0"/>
        <pt x="439" y="202" on="1"/>
        <pt x="439" y="228" on="1"/>
        <pt x="439" y="291" on="0"/>
        <pt x="365" y="359" on="0"/>
        <pt x="301" y="359" on="1"/>
        <pt x="252" y="359" on="1"/>
      </contour>
    </TTGlyph>
    <TTGlyph name="braceleft" xMin="22" yMin="-138" xMax="291" yMax="760">
      <contour>
        <pt x="205" y="-138" on="1"/>
        <pt x="164" y="-138" on="0"/>
        <pt x="119" y="-90" on="0"/>
        <pt x="119" y="-52" on="1"/>
        <pt x="119" y="180" on="1"/>
        <pt x="119" y="224" on="0"/>
        <pt x="64" y="269" on="0"/>
        <pt x="22" y="269" on="1"/>
        <pt x="22" y="353" on="1"/>
        <pt x="64" y="353" on="0"/>
        <pt x="119" y="398" on="0"/>
        <pt x="119" y="441" on="1"/>
        <pt x="119" y="674" on="1"/>
        <pt x="119" y="712" on="0"/>
        <pt x="164" y="760" on="0"/>
        <pt x="205" y="760" on="1"/>
        <pt x="291" y="760" on="1"/>
        <pt x="291" y="689" on="1"/>
        <pt x="201" y="689" on="1"/>
        <pt x="201" y="446" on="1"/>
        <pt x="201" y="422" on="0"/>
        <pt x="187" y="380" on="0"/>
        <pt x="162" y="345" on="0"/>
        <pt x="127" y="322" on="0"/>
        <pt x="105" y="318" on="1"/>
        <pt x="105" y="304" on="1"/>
        <pt x="127" y="300" on="0"/>
        <pt x="162" y="277" on="0"/>
        <pt x="187" y="242" on="0"/>
        <pt x="201" y="200" on="0"/>
        <pt x="201" y="176" on="1"/>
        <pt x="201" y="-67" on="1"/>
        <pt x="291" y="-67" on="1"/>
        <pt x="291" y="-138" on="1"/>
      </contour>
    </TTGlyph>
    <TTGlyph name="braceright" xMin="58" yMin="-138" xMax="327" yMax="760">
      <contour>
        <pt x="144" y="760" on="1"/>
        <pt x="185" y="760" on="0"/>
        <pt x="230" y="712" on="0"/>
        <pt x="230" y="674" on="1"/>
        <pt x="230" y="442" on="1"/>
        <pt x="230" y="398" on="0"/>
        <pt x="285" y="353" on="0"/>
        <pt x="327" y="353" on="1"/>
        <pt x="327" y="269" on="1"/>
        <pt x="285" y="269" on="0"/>
        <pt x="230" y="224" on="0"/>
        <pt x="230" y="181" on="1"/>
        <pt x="230" y="-52" on="1"/>
        <pt x="230" y="-90" on="0"/>
        <pt x="185" y="-138" on="0"/>
        <pt x="144" y="-138" on="1"/>
        <pt x="58" y="-138" on="1"/>
        <pt x="58" y="-67" on="1"/>
        <pt x="148" y="-67" on="1"/>
        <pt x="148" y="176" on="1"/>
        <pt x="148" y="223" on="0"/>
        <pt x="200" y="296" on="0"/>
        <pt x="244" y="304" on="1"/>
        <pt x="244" y="318" on="1"/>
        <pt x="200" y="326" on="0"/>
        <pt x="148" y="399" on="0"/>
        <pt x="148" y="446" on="1"/>
        <pt x="148" y="689" on="1"/>
        <pt x="58" y="689" on="1"/>
        <pt x="58" y="760" on="1"/>
      </contour>
    </TTGlyph>
    <TTGlyph name="bracketleft" xMin="90" yMin="-138" xMax="262" yMax="760">
      <contour>
        <pt x="90" y="-138" on="1"/>
        <pt x="90" y="760" on="1"/>
        <pt x="262" y="760" on="1"/>
        <pt x="262" y="689" on="1"/>
        <pt x="172" y="689" on="1"/>
        <pt x="172" y="-67" on="1"/>
        <pt x="262" y="-67" on="1"/>
        <pt x="262" y="-138" on="1"/>
      </contour>
    </TTGlyph>
    <TTGlyph name="bracketright" xMin="58" yMin="-138" xMax="230" yMax="760">
      <contour>
        <pt x="230" y="760" on="1"/>
        <pt x="230" y="-138" on="1"/>
        <pt x="58" y="-138" on="1"/>
        <pt x="58" y="-67" on="1"/>
        <pt x="148" y="-67" on="1"/>
        <pt x="148" y="689" on="1"/>
        <pt x="58" y="689" on="1"/>
        <pt x="58" y="760" on="1"/>
      </contour>
    </TTGlyph>
    <TTGlyph name="breve" xMin="141" yMin="593" xMax="459" yMax="752">
      <contour>
        <pt x="300" y="593" on="1"/>
        <pt x="259" y="593" on="0"/>
        <pt x="205" y="618" on="0"/>
        <pt x="169" y="657" on="0"/>
        <pt x="148" y="704" on="0"/>
        <pt x="141" y="726" on="1"/>
        <pt x="193" y="752" on="1"/>
        <pt x="213" y="719" on="1"/>
        <pt x="228" y="695" on="0"/>
        <pt x="264" y="663" on="0"/>
        <pt x="300" y="663" on="1"/>
        <pt x="336" y="663" on="0"/>
        <pt x="372" y="695" on="0"/>
        <pt x="387" y="719" on="1"/>
        <pt x="407" y="752" on="1"/>
        <pt x="459" y="726" on="1"/>
        <pt x="452" y="704" on="0"/>
        <pt x="431" y="657" on="0"/>
        <pt x="395" y="618" on="0"/>
        <pt x="341" y="593" on="0"/>
      </contour>
    </TTGlyph>
    <TTGlyph name="breve.case" xMin="141" yMin="761" xMax="459" yMax="920">
      <contour>
        <pt x="300" y="761" on="1"/>
        <pt x="259" y="761" on="0"/>
        <pt x="205" y="787" on="0"/>
        <pt x="169" y="826" on="0"/>
        <pt x="148" y="873" on="0"/>
        <pt x="141" y="895" on="1"/>
        <pt x="193" y="920" on="1"/>
        <pt x="213" y="887" on="1"/>
        <pt x="228" y="863" on="0"/>
        <pt x="264" y="832" on="0"/>
        <pt x="300" y="832" on="1"/>
        <pt x="336" y="832" on="0"/>
        <pt x="372" y="863" on="0"/>
        <pt x="387" y="887" on="1"/>
        <pt x="407" y="920" on="1"/>
        <pt x="459" y="895" on="1"/>
        <pt x="452" y="873" on="0"/>
        <pt x="431" y="826" on="0"/>
        <pt x="395" y="787" on="0"/>
        <pt x="341" y="761" on="0"/>
      </contour>
    </TTGlyph>
    <TTGlyph name="breve.cyrl" xMin="136" yMin="593" xMax="464" yMax="751">
      <contour>
        <pt x="300" y="593" on="1"/>
        <pt x="243" y="593" on="0"/>
        <pt x="176" y="638" on="0"/>
        <pt x="157" y="677" on="1"/>
        <pt x="136" y="718" on="1"/>
        <pt x="215" y="751" on="1"/>
        <pt x="249" y="665" on="1"/>
        <pt x="260" y="662" on="0"/>
        <pt x="288" y="659" on="0"/>
        <pt x="300" y="659" on="1"/>
        <pt x="312" y="659" on="0"/>
        <pt x="340" y="662" on="0"/>
        <pt x="351" y="665" on="1"/>
        <pt x="385" y="751" on="1"/>
        <pt x="464" y="718" on="1"/>
        <pt x="443" y="677" on="1"/>
        <pt x="424" y="638" on="0"/>
        <pt x="357" y="593" on="0"/>
      </contour>
    </TTGlyph>
    <TTGlyph name="breve.cyrl_case" xMin="136" yMin="761" xMax="464" yMax="919">
      <contour>
        <pt x="300" y="761" on="1"/>
        <pt x="243" y="761" on="0"/>
        <pt x="176" y="806" on="0"/>
        <pt x="157" y="845" on="1"/>
        <pt x="136" y="886" on="1"/>
        <pt x="215" y="919" on="1"/>
        <pt x="249" y="833" on="1"/>
        <pt x="260" y="830" on="0"/>
        <pt x="288" y="827" on="0"/>
        <pt x="300" y="827" on="1"/>
        <pt x="312" y="827" on="0"/>
        <pt x="340" y="830" on="0"/>
        <pt x="351" y="833" on="1"/>
        <pt x="385" y="919" on="1"/>
        <pt x="464" y="886" on="1"/>
        <pt x="443" y="845" on="1"/>
        <pt x="424" y="806" on="0"/>
        <pt x="357" y="761" on="0"/>
      </contour>
    </TTGlyph>
    <TTGlyph name="breveacute" xMin="-162" yMin="583" xMax="162" yMax="905">
      <contour>
        <pt x="0" y="583" on="1"/>
        <pt x="-41" y="583" on="0"/>
        <pt x="-96" y="607" on="0"/>
        <pt x="-133" y="645" on="0"/>
        <pt x="-155" y="691" on="0"/>
        <pt x="-162" y="713" on="1"/>
        <pt x="-112" y="740" on="1"/>
        <pt x="-90" y="706" on="1"/>
        <pt x="-74" y="681" on="0"/>
        <pt x="-36" y="650" on="0"/>
        <pt x="0" y="650" on="1"/>
        <pt x="36" y="650" on="0"/>
        <pt x="74" y="681" on="0"/>
        <pt x="90" y="706" on="1"/>
        <pt x="112" y="740" on="1"/>
        <pt x="162" y="713" on="1"/>
        <pt x="155" y="691" on="0"/>
        <pt x="133" y="645" on="0"/>
        <pt x="96" y="607" on="0"/>
        <pt x="41" y="583" on="0"/>
      </contour>
      <contour>
        <pt x="7" y="705" on="1"/>
        <pt x="-48" y="731" on="1"/>
        <pt x="39" y="905" on="1"/>
        <pt x="118" y="867" on="1"/>
      </contour>
    </TTGlyph>
    <TTGlyph name="breveacute.case" xMin="-161" yMin="752" xMax="161" yMax="1074">
      <contour>
        <pt x="0" y="752" on="1"/>
        <pt x="-41" y="752" on="0"/>
        <pt x="-96" y="776" on="0"/>
        <pt x="-132" y="813" on="0"/>
        <pt x="-154" y="859" on="0"/>
        <pt x="-161" y="881" on="1"/>
        <pt x="-110" y="908" on="1"/>
        <pt x="-90" y="873" on="1"/>
        <pt x="-76" y="847" on="0"/>
        <pt x="-36" y="818" on="0"/>
        <pt x="0" y="818" on="1"/>
        <pt x="36" y="818" on="0"/>
        <pt x="76" y="847" on="0"/>
        <pt x="90" y="873" on="1"/>
        <pt x="110" y="908" on="1"/>
        <pt x="161" y="881" on="1"/>
        <pt x="154" y="859" on="0"/>
        <pt x="132" y="813" on="0"/>
        <pt x="96" y="776" on="0"/>
        <pt x="41" y="752" on="0"/>
      </contour>
      <contour>
        <pt x="7" y="873" on="1"/>
        <pt x="-48" y="899" on="1"/>
        <pt x="39" y="1074" on="1"/>
        <pt x="118" y="1035" on="1"/>
      </contour>
    </TTGlyph>
    <TTGlyph name="brevegrave" xMin="-162" yMin="583" xMax="162" yMax="905">
      <contour>
        <pt x="0" y="583" on="1"/>
        <pt x="-41" y="583" on="0"/>
        <pt x="-96" y="607" on="0"/>
        <pt x="-133" y="645" on="0"/>
        <pt x="-155" y="691" on="0"/>
        <pt x="-162" y="713" on="1"/>
        <pt x="-112" y="740" on="1"/>
        <pt x="-90" y="706" on="1"/>
        <pt x="-74" y="681" on="0"/>
        <pt x="-36" y="650" on="0"/>
        <pt x="0" y="650" on="1"/>
        <pt x="36" y="650" on="0"/>
        <pt x="74" y="681" on="0"/>
        <pt x="90" y="706" on="1"/>
        <pt x="112" y="740" on="1"/>
        <pt x="162" y="713" on="1"/>
        <pt x="155" y="691" on="0"/>
        <pt x="133" y="645" on="0"/>
        <pt x="96" y="607" on="0"/>
        <pt x="41" y="583" on="0"/>
      </contour>
      <contour>
        <pt x="-117" y="867" on="1"/>
        <pt x="-39" y="905" on="1"/>
        <pt x="48" y="731" on="1"/>
        <pt x="-7" y="705" on="1"/>
      </contour>
    </TTGlyph>
    <TTGlyph name="brevegrave.case" xMin="-161" yMin="752" xMax="161" yMax="1074">
      <contour>
        <pt x="0" y="752" on="1"/>
        <pt x="-41" y="752" on="0"/>
        <pt x="-96" y="776" on="0"/>
        <pt x="-132" y="813" on="0"/>
        <pt x="-154" y="859" on="0"/>
        <pt x="-161" y="881" on="1"/>
        <pt x="-110" y="908" on="1"/>
        <pt x="-90" y="873" on="1"/>
        <pt x="-76" y="847" on="0"/>
        <pt x="-36" y="818" on="0"/>
        <pt x="0" y="818" on="1"/>
        <pt x="36" y="818" on="0"/>
        <pt x="76" y="847" on="0"/>
        <pt x="90" y="873" on="1"/>
        <pt x="110" y="908" on="1"/>
        <pt x="161" y="881" on="1"/>
        <pt x="154" y="859" on="0"/>
        <pt x="132" y="813" on="0"/>
        <pt x="96" y="776" on="0"/>
        <pt x="41" y="752" on="0"/>
      </contour>
      <contour>
        <pt x="-117" y="1035" on="1"/>
        <pt x="-39" y="1074" on="1"/>
        <pt x="48" y="899" on="1"/>
        <pt x="-7" y="873" on="1"/>
      </contour>
    </TTGlyph>
    <TTGlyph name="brevehook" xMin="-162" yMin="583" xMax="162" yMax="894">
      <contour>
        <pt x="0" y="583" on="1"/>
        <pt x="-41" y="583" on="0"/>
        <pt x="-96" y="607" on="0"/>
        <pt x="-133" y="645" on="0"/>
        <pt x="-155" y="691" on="0"/>
        <pt x="-162" y="713" on="1"/>
        <pt x="-112" y="740" on="1"/>
        <pt x="-90" y="706" on="1"/>
        <pt x="-74" y="681" on="0"/>
        <pt x="-36" y="650" on="0"/>
        <pt x="0" y="650" on="1"/>
        <pt x="36" y="650" on="0"/>
        <pt x="74" y="681" on="0"/>
        <pt x="90" y="706" on="1"/>
        <pt x="112" y="740" on="1"/>
        <pt x="162" y="713" on="1"/>
        <pt x="155" y="691" on="0"/>
        <pt x="133" y="645" on="0"/>
        <pt x="96" y="607" on="0"/>
        <pt x="41" y="583" on="0"/>
      </contour>
      <contour>
        <pt x="-97" y="894" on="1"/>
        <pt x="5" y="894" on="1"/>
        <pt x="47" y="894" on="0"/>
        <pt x="81" y="859" on="0"/>
        <pt x="81" y="836" on="1"/>
        <pt x="81" y="812" on="0"/>
        <pt x="52" y="757" on="0"/>
        <pt x="29" y="728" on="1"/>
        <pt x="4" y="697" on="1"/>
        <pt x="-44" y="722" on="1"/>
        <pt x="13" y="828" on="1"/>
        <pt x="-97" y="828" on="1"/>
      </contour>
    </TTGlyph>
    <TTGlyph name="brevehook.case" xMin="-161" yMin="752" xMax="161" yMax="1062">
      <contour>
        <pt x="-97" y="1062" on="1"/>
        <pt x="5" y="1062" on="1"/>
        <pt x="47" y="1062" on="0"/>
        <pt x="81" y="1027" on="0"/>
        <pt x="81" y="1004" on="1"/>
        <pt x="81" y="981" on="0"/>
        <pt x="52" y="926" on="0"/>
        <pt x="29" y="896" on="1"/>
        <pt x="4" y="866" on="1"/>
        <pt x="-44" y="890" on="1"/>
        <pt x="13" y="996" on="1"/>
        <pt x="-97" y="996" on="1"/>
      </contour>
      <contour>
        <pt x="0" y="752" on="1"/>
        <pt x="-41" y="752" on="0"/>
        <pt x="-96" y="776" on="0"/>
        <pt x="-132" y="813" on="0"/>
        <pt x="-154" y="859" on="0"/>
        <pt x="-161" y="881" on="1"/>
        <pt x="-110" y="908" on="1"/>
        <pt x="-90" y="873" on="1"/>
        <pt x="-76" y="847" on="0"/>
        <pt x="-36" y="818" on="0"/>
        <pt x="0" y="818" on="1"/>
        <pt x="36" y="818" on="0"/>
        <pt x="76" y="847" on="0"/>
        <pt x="90" y="873" on="1"/>
        <pt x="110" y="908" on="1"/>
        <pt x="161" y="881" on="1"/>
        <pt x="154" y="859" on="0"/>
        <pt x="132" y="813" on="0"/>
        <pt x="96" y="776" on="0"/>
        <pt x="41" y="752" on="0"/>
      </contour>
    </TTGlyph>
    <TTGlyph name="brevetilde" xMin="-172" yMin="583" xMax="172" yMax="893">
      <contour>
        <pt x="0" y="583" on="1"/>
        <pt x="-41" y="583" on="0"/>
        <pt x="-96" y="607" on="0"/>
        <pt x="-133" y="645" on="0"/>
        <pt x="-155" y="691" on="0"/>
        <pt x="-162" y="713" on="1"/>
        <pt x="-112" y="740" on="1"/>
        <pt x="-90" y="706" on="1"/>
        <pt x="-74" y="681" on="0"/>
        <pt x="-36" y="650" on="0"/>
        <pt x="0" y="650" on="1"/>
        <pt x="36" y="650" on="0"/>
        <pt x="74" y="681" on="0"/>
        <pt x="90" y="706" on="1"/>
        <pt x="112" y="740" on="1"/>
        <pt x="162" y="713" on="1"/>
        <pt x="155" y="691" on="0"/>
        <pt x="133" y="645" on="0"/>
        <pt x="96" y="607" on="0"/>
        <pt x="41" y="583" on="0"/>
      </contour>
      <contour>
        <pt x="74" y="775" on="1"/>
        <pt x="48" y="775" on="0"/>
        <pt x="11" y="792" on="0"/>
        <pt x="-6" y="800" on="1"/>
        <pt x="-51" y="823" on="0"/>
        <pt x="-77" y="823" on="1"/>
        <pt x="-94" y="823" on="0"/>
        <pt x="-120" y="810" on="0"/>
        <pt x="-136" y="797" on="1"/>
        <pt x="-172" y="838" on="1"/>
        <pt x="-158" y="860" on="0"/>
        <pt x="-109" y="893" on="0"/>
        <pt x="-74" y="893" on="1"/>
        <pt x="-48" y="893" on="0"/>
        <pt x="-11" y="876" on="0"/>
        <pt x="6" y="868" on="1"/>
        <pt x="51" y="845" on="0"/>
        <pt x="77" y="845" on="1"/>
        <pt x="94" y="845" on="0"/>
        <pt x="120" y="858" on="0"/>
        <pt x="136" y="871" on="1"/>
        <pt x="172" y="830" on="1"/>
        <pt x="158" y="808" on="0"/>
        <pt x="109" y="775" on="0"/>
      </contour>
    </TTGlyph>
    <TTGlyph name="brevetilde.case" xMin="-172" yMin="752" xMax="172" yMax="1061">
      <contour>
        <pt x="74" y="943" on="1"/>
        <pt x="48" y="943" on="0"/>
        <pt x="11" y="960" on="0"/>
        <pt x="-6" y="968" on="1"/>
        <pt x="-51" y="991" on="0"/>
        <pt x="-77" y="991" on="1"/>
        <pt x="-94" y="991" on="0"/>
        <pt x="-120" y="978" on="0"/>
        <pt x="-136" y="965" on="1"/>
        <pt x="-172" y="1006" on="1"/>
        <pt x="-158" y="1028" on="0"/>
        <pt x="-109" y="1061" on="0"/>
        <pt x="-74" y="1061" on="1"/>
        <pt x="-48" y="1061" on="0"/>
        <pt x="-11" y="1044" on="0"/>
        <pt x="6" y="1036" on="1"/>
        <pt x="51" y="1013" on="0"/>
        <pt x="77" y="1013" on="1"/>
        <pt x="94" y="1013" on="0"/>
        <pt x="120" y="1026" on="0"/>
        <pt x="136" y="1039" on="1"/>
        <pt x="172" y="998" on="1"/>
        <pt x="158" y="976" on="0"/>
        <pt x="109" y="943" on="0"/>
      </contour>
      <contour>
        <pt x="0" y="752" on="1"/>
        <pt x="-41" y="752" on="0"/>
        <pt x="-96" y="776" on="0"/>
        <pt x="-132" y="813" on="0"/>
        <pt x="-154" y="859" on="0"/>
        <pt x="-161" y="881" on="1"/>
        <pt x="-110" y="908" on="1"/>
        <pt x="-90" y="873" on="1"/>
        <pt x="-76" y="847" on="0"/>
        <pt x="-36" y="818" on="0"/>
        <pt x="0" y="818" on="1"/>
        <pt x="36" y="818" on="0"/>
        <pt x="76" y="847" on="0"/>
        <pt x="90" y="873" on="1"/>
        <pt x="110" y="908" on="1"/>
        <pt x="161" y="881" on="1"/>
        <pt x="154" y="859" on="0"/>
        <pt x="132" y="813" on="0"/>
        <pt x="96" y="776" on="0"/>
        <pt x="41" y="752" on="0"/>
      </contour>
    </TTGlyph>
    <TTGlyph name="brokenbar" xMin="126" yMin="-138" xMax="206" yMax="760">
      <contour>
        <pt x="126" y="405" on="1"/>
        <pt x="126" y="760" on="1"/>
        <pt x="206" y="760" on="1"/>
        <pt x="206" y="405" on="1"/>
      </contour>
      <contour>
        <pt x="126" y="-138" on="1"/>
        <pt x="126" y="217" on="1"/>
        <pt x="206" y="217" on="1"/>
        <pt x="206" y="-138" on="1"/>
      </contour>
    </TTGlyph>
    <TTGlyph name="bullet" xMin="73" yMin="177" xMax="329" yMax="424">
      <contour>
        <pt x="201" y="177" on="1"/>
        <pt x="166" y="177" on="0"/>
        <pt x="117" y="194" on="0"/>
        <pt x="87" y="223" on="0"/>
        <pt x="73" y="263" on="0"/>
        <pt x="73" y="286" on="1"/>
        <pt x="73" y="315" on="1"/>
        <pt x="73" y="338" on="0"/>
        <pt x="87" y="378" on="0"/>
        <pt x="117" y="407" on="0"/>
        <pt x="166" y="424" on="0"/>
        <pt x="201" y="424" on="1"/>
        <pt x="236" y="424" on="0"/>
        <pt x="285" y="407" on="0"/>
        <pt x="315" y="378" on="0"/>
        <pt x="329" y="338" on="0"/>
        <pt x="329" y="315" on="1"/>
        <pt x="329" y="286" on="1"/>
        <pt x="329" y="263" on="0"/>
        <pt x="315" y="223" on="0"/>
        <pt x="285" y="194" on="0"/>
        <pt x="236" y="177" on="0"/>
      </contour>
    </TTGlyph>
    <TTGlyph name="c" xMin="45" yMin="-12" xMax="478" yMax="530">
      <contour>
        <pt x="278" y="-12" on="1"/>
        <pt x="222" y="-12" on="0"/>
        <pt x="136" y="26" on="0"/>
        <pt x="76" y="96" on="0"/>
        <pt x="45" y="197" on="0"/>
        <pt x="45" y="259" on="1"/>
        <pt x="45" y="321" on="0"/>
        <pt x="76" y="421" on="0"/>
        <pt x="136" y="492" on="0"/>
        <pt x="222" y="530" on="0"/>
        <pt x="278" y="530" on="1"/>
        <pt x="355" y="530" on="0"/>
        <pt x="451" y="462" on="0"/>
        <pt x="474" y="406" on="1"/>
        <pt x="397" y="368" on="1"/>
        <pt x="384" y="406" on="0"/>
        <pt x="323" y="450" on="0"/>
        <pt x="278" y="450" on="1"/>
        <pt x="211" y="450" on="0"/>
        <pt x="144" y="368" on="0"/>
        <pt x="144" y="304" on="1"/>
        <pt x="144" y="214" on="1"/>
        <pt x="144" y="150" on="0"/>
        <pt x="211" y="68" on="0"/>
        <pt x="278" y="68" on="1"/>
        <pt x="326" y="68" on="0"/>
        <pt x="390" y="114" on="0"/>
        <pt x="410" y="156" on="1"/>
        <pt x="478" y="114" on="1"/>
        <pt x="453" y="55" on="0"/>
        <pt x="353" y="-12" on="0"/>
      </contour>
    </TTGlyph>
    <TTGlyph name="cacute" xMin="45" yMin="-12" xMax="478" yMax="786">
      <component glyphName="c" x="0" y="0" flags="0x204"/>
      <component glyphName="acute" x="-24" y="0" flags="0x4"/>
    </TTGlyph>
    <TTGlyph name="caron" xMin="133" yMin="597" xMax="467" yMax="779">
      <contour>
        <pt x="248" y="597" on="1"/>
        <pt x="133" y="743" on="1"/>
        <pt x="182" y="779" on="1"/>
        <pt x="300" y="662" on="1"/>
        <pt x="418" y="779" on="1"/>
        <pt x="467" y="743" on="1"/>
        <pt x="352" y="597" on="1"/>
      </contour>
    </TTGlyph>
    <TTGlyph name="caron.case" xMin="133" yMin="765" xMax="467" yMax="947">
      <contour>
        <pt x="248" y="765" on="1"/>
        <pt x="133" y="911" on="1"/>
        <pt x="182" y="947" on="1"/>
        <pt x="300" y="831" on="1"/>
        <pt x="418" y="947" on="1"/>
        <pt x="467" y="911" on="1"/>
        <pt x="352" y="765" on="1"/>
      </contour>
    </TTGlyph>
    <TTGlyph name="ccaron" xMin="45" yMin="-12" xMax="478" yMax="779">
      <component glyphName="c" x="0" y="0" flags="0x204"/>
      <component glyphName="caron" x="-24" y="0" flags="0x4"/>
    </TTGlyph>
    <TTGlyph name="ccedilla" xMin="45" yMin="-208" xMax="478" yMax="530">
      <contour>
        <pt x="278" y="530" on="1"/>
        <pt x="355" y="530" on="0"/>
        <pt x="451" y="462" on="0"/>
        <pt x="474" y="406" on="1"/>
        <pt x="397" y="368" on="1"/>
        <pt x="384" y="406" on="0"/>
        <pt x="323" y="450" on="0"/>
        <pt x="278" y="450" on="1"/>
        <pt x="211" y="450" on="0"/>
        <pt x="144" y="368" on="0"/>
        <pt x="144" y="304" on="1"/>
        <pt x="144" y="214" on="1"/>
        <pt x="144" y="150" on="0"/>
        <pt x="211" y="68" on="0"/>
        <pt x="278" y="68" on="1"/>
        <pt x="326" y="68" on="0"/>
        <pt x="390" y="114" on="0"/>
        <pt x="410" y="156" on="1"/>
        <pt x="478" y="114" on="1"/>
        <pt x="455" y="59" on="0"/>
        <pt x="364" y="-7" on="0"/>
        <pt x="297" y="-11" on="1"/>
        <pt x="287" y="-60" on="1"/>
        <pt x="291" y="-63" on="1"/>
        <pt x="301" y="-60" on="0"/>
        <pt x="322" y="-57" on="0"/>
        <pt x="331" y="-57" on="1"/>
        <pt x="361" y="-57" on="0"/>
        <pt x="400" y="-90" on="0"/>
        <pt x="400" y="-123" on="1"/>
        <pt x="400" y="-146" on="0"/>
        <pt x="381" y="-178" on="0"/>
        <pt x="350" y="-198" on="0"/>
        <pt x="308" y="-208" on="0"/>
        <pt x="285" y="-208" on="1"/>
        <pt x="242" y="-208" on="0"/>
        <pt x="193" y="-181" on="0"/>
        <pt x="182" y="-166" on="1"/>
        <pt x="221" y="-123" on="1"/>
        <pt x="230" y="-134" on="0"/>
        <pt x="261" y="-151" on="0"/>
        <pt x="283" y="-151" on="1"/>
        <pt x="302" y="-151" on="0"/>
        <pt x="327" y="-136" on="0"/>
        <pt x="327" y="-121" on="1"/>
        <pt x="327" y="-107" on="0"/>
        <pt x="301" y="-86" on="0"/>
        <pt x="258" y="-80" on="1"/>
        <pt x="231" y="-76" on="1"/>
        <pt x="244" y="-10" on="1"/>
        <pt x="148" y="1" on="0"/>
        <pt x="45" y="144" on="0"/>
        <pt x="45" y="259" on="1"/>
        <pt x="45" y="321" on="0"/>
        <pt x="76" y="421" on="0"/>
        <pt x="136" y="492" on="0"/>
        <pt x="222" y="530" on="0"/>
      </contour>
    </TTGlyph>
    <TTGlyph name="ccircumflex" xMin="45" yMin="-12" xMax="478" yMax="771">
      <component glyphName="c" x="0" y="0" flags="0x204"/>
      <component glyphName="circumflex" x="-24" y="0" flags="0x4"/>
    </TTGlyph>
    <TTGlyph name="cdotaccent" xMin="45" yMin="-12" xMax="478" yMax="727">
      <component glyphName="c" x="0" y="0" flags="0x204"/>
      <component glyphName="dotaccent" x="-24" y="0" flags="0x4"/>
    </TTGlyph>
    <TTGlyph name="cedilla" xMin="209" yMin="-208" xMax="427" yMax="22">
      <contour>
        <pt x="312" y="-208" on="1"/>
        <pt x="270" y="-208" on="0"/>
        <pt x="220" y="-181" on="0"/>
        <pt x="209" y="-166" on="1"/>
        <pt x="248" y="-123" on="1"/>
        <pt x="257" y="-134" on="0"/>
        <pt x="288" y="-151" on="0"/>
        <pt x="310" y="-151" on="1"/>
        <pt x="329" y="-151" on="0"/>
        <pt x="354" y="-136" on="0"/>
        <pt x="354" y="-121" on="1"/>
        <pt x="354" y="-107" on="0"/>
        <pt x="328" y="-86" on="0"/>
        <pt x="285" y="-80" on="1"/>
        <pt x="258" y="-76" on="1"/>
        <pt x="278" y="22" on="1"/>
        <pt x="331" y="22" on="1"/>
        <pt x="315" y="-60" on="1"/>
        <pt x="318" y="-63" on="1"/>
        <pt x="328" y="-60" on="0"/>
        <pt x="349" y="-57" on="0"/>
        <pt x="358" y="-57" on="1"/>
        <pt x="388" y="-57" on="0"/>
        <pt x="427" y="-90" on="0"/>
        <pt x="427" y="-123" on="1"/>
        <pt x="427" y="-146" on="0"/>
        <pt x="408" y="-178" on="0"/>
        <pt x="377" y="-198" on="0"/>
        <pt x="335" y="-208" on="0"/>
      </contour>
    </TTGlyph>
    <TTGlyph name="cent" xMin="46" yMin="-114" xMax="484" yMax="630">
      <contour>
        <pt x="236" y="-114" on="1"/>
        <pt x="236" y="-9" on="1"/>
        <pt x="145" y="5" on="0"/>
        <pt x="46" y="146" on="0"/>
        <pt x="46" y="258" on="1"/>
        <pt x="46" y="370" on="0"/>
        <pt x="145" y="511" on="0"/>
        <pt x="236" y="525" on="1"/>
        <pt x="236" y="630" on="1"/>
        <pt x="313" y="630" on="1"/>
        <pt x="313" y="526" on="1"/>
        <pt x="376" y="520" on="0"/>
        <pt x="456" y="456" on="0"/>
        <pt x="477" y="408" on="1"/>
        <pt x="405" y="368" on="1"/>
        <pt x="379" y="435" on="0"/>
        <pt x="311" y="447" on="1"/>
        <pt x="311" y="68" on="1"/>
        <pt x="384" y="80" on="0"/>
        <pt x="417" y="153" on="1"/>
        <pt x="484" y="110" on="1"/>
        <pt x="462" y="60" on="0"/>
        <pt x="376" y="-4" on="0"/>
        <pt x="313" y="-10" on="1"/>
        <pt x="313" y="-114" on="1"/>
      </contour>
      <contour>
        <pt x="143" y="214" on="1"/>
        <pt x="143" y="160" on="0"/>
        <pt x="190" y="83" on="0"/>
        <pt x="238" y="71" on="1"/>
        <pt x="238" y="445" on="1"/>
        <pt x="191" y="434" on="0"/>
        <pt x="143" y="356" on="0"/>
        <pt x="143" y="302" on="1"/>
      </contour>
    </TTGlyph>
    <TTGlyph name="chi" xMin="13" yMin="-200" xMax="502" yMax="518">
      <contour>
        <pt x="75" y="518" on="1"/>
        <pt x="115" y="518" on="0"/>
        <pt x="156" y="490" on="0"/>
        <pt x="170" y="454" on="1"/>
        <pt x="256" y="247" on="1"/>
        <pt x="259" y="247" on="1"/>
        <pt x="386" y="518" on="1"/>
        <pt x="487" y="518" on="1"/>
        <pt x="310" y="172" on="1"/>
        <pt x="434" y="-121" on="1"/>
        <pt x="502" y="-121" on="1"/>
        <pt x="502" y="-200" on="1"/>
        <pt x="440" y="-200" on="1"/>
        <pt x="400" y="-200" on="0"/>
        <pt x="360" y="-172" on="0"/>
        <pt x="346" y="-137" on="1"/>
        <pt x="253" y="92" on="1"/>
        <pt x="250" y="92" on="1"/>
        <pt x="117" y="-200" on="1"/>
        <pt x="16" y="-200" on="1"/>
        <pt x="200" y="167" on="1"/>
        <pt x="82" y="439" on="1"/>
        <pt x="13" y="439" on="1"/>
        <pt x="13" y="518" on="1"/>
      </contour>
    </TTGlyph>
    <TTGlyph name="circumflex" xMin="133" yMin="589" xMax="467" yMax="771">
      <contour>
        <pt x="352" y="771" on="1"/>
        <pt x="467" y="625" on="1"/>
        <pt x="418" y="589" on="1"/>
        <pt x="300" y="705" on="1"/>
        <pt x="182" y="589" on="1"/>
        <pt x="133" y="625" on="1"/>
        <pt x="248" y="771" on="1"/>
      </contour>
    </TTGlyph>
    <TTGlyph name="circumflex.case" xMin="133" yMin="757" xMax="467" yMax="939">
      <contour>
        <pt x="352" y="939" on="1"/>
        <pt x="467" y="793" on="1"/>
        <pt x="418" y="757" on="1"/>
        <pt x="300" y="873" on="1"/>
        <pt x="182" y="757" on="1"/>
        <pt x="133" y="793" on="1"/>
        <pt x="248" y="939" on="1"/>
      </contour>
    </TTGlyph>
    <TTGlyph name="circumflexacute" xMin="-166" yMin="579" xMax="269" yMax="905">
      <contour>
        <pt x="158" y="705" on="1"/>
        <pt x="103" y="731" on="1"/>
        <pt x="191" y="905" on="1"/>
        <pt x="269" y="867" on="1"/>
      </contour>
      <contour>
        <pt x="49" y="752" on="1"/>
        <pt x="166" y="615" on="1"/>
        <pt x="120" y="579" on="1"/>
        <pt x="0" y="689" on="1"/>
        <pt x="-120" y="579" on="1"/>
        <pt x="-166" y="615" on="1"/>
        <pt x="-49" y="752" on="1"/>
      </contour>
    </TTGlyph>
    <TTGlyph name="circumflexacute.case" xMin="-166" yMin="747" xMax="269" yMax="1074">
      <contour>
        <pt x="158" y="873" on="1"/>
        <pt x="103" y="899" on="1"/>
        <pt x="191" y="1074" on="1"/>
        <pt x="269" y="1035" on="1"/>
      </contour>
      <contour>
        <pt x="49" y="920" on="1"/>
        <pt x="166" y="784" on="1"/>
        <pt x="120" y="747" on="1"/>
        <pt x="0" y="858" on="1"/>
        <pt x="-120" y="747" on="1"/>
        <pt x="-166" y="784" on="1"/>
        <pt x="-49" y="920" on="1"/>
      </contour>
    </TTGlyph>
    <TTGlyph name="circumflexbreve" xMin="-163" yMin="582" xMax="163" yMax="907">
      <contour>
        <pt x="46" y="727" on="1"/>
        <pt x="163" y="622" on="1"/>
        <pt x="125" y="582" on="1"/>
        <pt x="0" y="668" on="1"/>
        <pt x="-125" y="582" on="1"/>
        <pt x="-163" y="622" on="1"/>
        <pt x="-46" y="727" on="1"/>
      </contour>
      <contour>
        <pt x="0" y="754" on="1"/>
        <pt x="-40" y="754" on="0"/>
        <pt x="-94" y="778" on="0"/>
        <pt x="-131" y="815" on="0"/>
        <pt x="-153" y="860" on="0"/>
        <pt x="-160" y="881" on="1"/>
        <pt x="-110" y="907" on="1"/>
        <pt x="-89" y="876" on="1"/>
        <pt x="-73" y="852" on="0"/>
        <pt x="-36" y="819" on="0"/>
        <pt x="0" y="819" on="1"/>
        <pt x="36" y="819" on="0"/>
        <pt x="73" y="852" on="0"/>
        <pt x="89" y="876" on="1"/>
        <pt x="110" y="907" on="1"/>
        <pt x="160" y="881" on="1"/>
        <pt x="153" y="860" on="0"/>
        <pt x="131" y="815" on="0"/>
        <pt x="94" y="778" on="0"/>
        <pt x="40" y="754" on="0"/>
      </contour>
    </TTGlyph>
    <TTGlyph name="circumflexbreve.case" xMin="-164" yMin="750" xMax="164" yMax="1075">
      <contour>
        <pt x="46" y="896" on="1"/>
        <pt x="164" y="790" on="1"/>
        <pt x="125" y="750" on="1"/>
        <pt x="0" y="836" on="1"/>
        <pt x="-125" y="750" on="1"/>
        <pt x="-164" y="790" on="1"/>
        <pt x="-46" y="896" on="1"/>
      </contour>
      <contour>
        <pt x="0" y="922" on="1"/>
        <pt x="-41" y="922" on="0"/>
        <pt x="-95" y="945" on="0"/>
        <pt x="-131" y="982" on="0"/>
        <pt x="-152" y="1027" on="0"/>
        <pt x="-159" y="1049" on="1"/>
        <pt x="-109" y="1075" on="1"/>
        <pt x="-89" y="1040" on="1"/>
        <pt x="-75" y="1014" on="0"/>
        <pt x="-36" y="987" on="0"/>
        <pt x="0" y="987" on="1"/>
        <pt x="36" y="987" on="0"/>
        <pt x="75" y="1014" on="0"/>
        <pt x="89" y="1040" on="1"/>
        <pt x="109" y="1075" on="1"/>
        <pt x="159" y="1049" on="1"/>
        <pt x="152" y="1027" on="0"/>
        <pt x="131" y="982" on="0"/>
        <pt x="95" y="945" on="0"/>
        <pt x="41" y="922" on="0"/>
      </contour>
    </TTGlyph>
    <TTGlyph name="circumflexgrave" xMin="-269" yMin="579" xMax="166" yMax="905">
      <contour>
        <pt x="-269" y="867" on="1"/>
        <pt x="-191" y="905" on="1"/>
        <pt x="-103" y="731" on="1"/>
        <pt x="-158" y="705" on="1"/>
      </contour>
      <contour>
        <pt x="49" y="752" on="1"/>
        <pt x="166" y="615" on="1"/>
        <pt x="120" y="579" on="1"/>
        <pt x="0" y="689" on="1"/>
        <pt x="-120" y="579" on="1"/>
        <pt x="-166" y="615" on="1"/>
        <pt x="-49" y="752" on="1"/>
      </contour>
    </TTGlyph>
    <TTGlyph name="circumflexgrave.case" xMin="-269" yMin="747" xMax="166" yMax="1074">
      <contour>
        <pt x="-269" y="1035" on="1"/>
        <pt x="-191" y="1074" on="1"/>
        <pt x="-103" y="899" on="1"/>
        <pt x="-158" y="873" on="1"/>
      </contour>
      <contour>
        <pt x="49" y="920" on="1"/>
        <pt x="166" y="784" on="1"/>
        <pt x="120" y="747" on="1"/>
        <pt x="0" y="858" on="1"/>
        <pt x="-120" y="747" on="1"/>
        <pt x="-166" y="784" on="1"/>
        <pt x="-49" y="920" on="1"/>
      </contour>
    </TTGlyph>
    <TTGlyph name="circumflexhook" xMin="-166" yMin="579" xMax="237" yMax="894">
      <contour>
        <pt x="48" y="894" on="1"/>
        <pt x="161" y="894" on="1"/>
        <pt x="203" y="894" on="0"/>
        <pt x="237" y="859" on="0"/>
        <pt x="237" y="836" on="1"/>
        <pt x="237" y="812" on="0"/>
        <pt x="209" y="757" on="0"/>
        <pt x="185" y="728" on="1"/>
        <pt x="161" y="697" on="1"/>
        <pt x="112" y="722" on="1"/>
        <pt x="169" y="828" on="1"/>
        <pt x="48" y="828" on="1"/>
      </contour>
      <contour>
        <pt x="49" y="752" on="1"/>
        <pt x="166" y="615" on="1"/>
        <pt x="120" y="579" on="1"/>
        <pt x="0" y="689" on="1"/>
        <pt x="-120" y="579" on="1"/>
        <pt x="-166" y="615" on="1"/>
        <pt x="-49" y="752" on="1"/>
      </contour>
    </TTGlyph>
    <TTGlyph name="circumflexhook.case" xMin="-166" yMin="747" xMax="237" yMax="1062">
      <contour>
        <pt x="48" y="1062" on="1"/>
        <pt x="161" y="1062" on="1"/>
        <pt x="203" y="1062" on="0"/>
        <pt x="237" y="1027" on="0"/>
        <pt x="237" y="1004" on="1"/>
        <pt x="237" y="981" on="0"/>
        <pt x="209" y="925" on="0"/>
        <pt x="185" y="896" on="1"/>
        <pt x="161" y="866" on="1"/>
        <pt x="112" y="891" on="1"/>
        <pt x="169" y="996" on="1"/>
        <pt x="48" y="996" on="1"/>
      </contour>
      <contour>
        <pt x="49" y="920" on="1"/>
        <pt x="166" y="784" on="1"/>
        <pt x="120" y="747" on="1"/>
        <pt x="0" y="858" on="1"/>
        <pt x="-120" y="747" on="1"/>
        <pt x="-166" y="784" on="1"/>
        <pt x="-49" y="920" on="1"/>
      </contour>
    </TTGlyph>
    <TTGlyph name="circumflextilde" xMin="-172" yMin="579" xMax="172" yMax="895">
      <contour>
        <pt x="-74" y="895" on="1"/>
        <pt x="-48" y="895" on="0"/>
        <pt x="-11" y="878" on="0"/>
        <pt x="6" y="870" on="1"/>
        <pt x="51" y="847" on="0"/>
        <pt x="77" y="847" on="1"/>
        <pt x="94" y="847" on="0"/>
        <pt x="120" y="860" on="0"/>
        <pt x="136" y="873" on="1"/>
        <pt x="172" y="832" on="1"/>
        <pt x="158" y="810" on="0"/>
        <pt x="109" y="777" on="0"/>
        <pt x="74" y="777" on="1"/>
        <pt x="48" y="777" on="0"/>
        <pt x="11" y="794" on="0"/>
        <pt x="-6" y="802" on="1"/>
        <pt x="-51" y="825" on="0"/>
        <pt x="-77" y="825" on="1"/>
        <pt x="-94" y="825" on="0"/>
        <pt x="-120" y="812" on="0"/>
        <pt x="-136" y="799" on="1"/>
        <pt x="-172" y="840" on="1"/>
        <pt x="-158" y="862" on="0"/>
        <pt x="-109" y="895" on="0"/>
      </contour>
      <contour>
        <pt x="50" y="749" on="1"/>
        <pt x="166" y="615" on="1"/>
        <pt x="120" y="579" on="1"/>
        <pt x="0" y="688" on="1"/>
        <pt x="-120" y="579" on="1"/>
        <pt x="-166" y="615" on="1"/>
        <pt x="-50" y="749" on="1"/>
      </contour>
    </TTGlyph>
    <TTGlyph name="circumflextilde.case" xMin="-172" yMin="747" xMax="172" yMax="1063">
      <contour>
        <pt x="-74" y="1063" on="1"/>
        <pt x="-48" y="1063" on="0"/>
        <pt x="-11" y="1046" on="0"/>
        <pt x="6" y="1038" on="1"/>
        <pt x="51" y="1015" on="0"/>
        <pt x="77" y="1015" on="1"/>
        <pt x="94" y="1015" on="0"/>
        <pt x="120" y="1028" on="0"/>
        <pt x="136" y="1041" on="1"/>
        <pt x="172" y="1000" on="1"/>
        <pt x="158" y="978" on="0"/>
        <pt x="109" y="945" on="0"/>
        <pt x="74" y="945" on="1"/>
        <pt x="48" y="945" on="0"/>
        <pt x="11" y="962" on="0"/>
        <pt x="-6" y="970" on="1"/>
        <pt x="-51" y="993" on="0"/>
        <pt x="-77" y="993" on="1"/>
        <pt x="-94" y="993" on="0"/>
        <pt x="-120" y="980" on="0"/>
        <pt x="-136" y="967" on="1"/>
        <pt x="-172" y="1008" on="1"/>
        <pt x="-158" y="1030" on="0"/>
        <pt x="-109" y="1063" on="0"/>
      </contour>
      <contour>
        <pt x="50" y="918" on="1"/>
        <pt x="166" y="784" on="1"/>
        <pt x="120" y="747" on="1"/>
        <pt x="0" y="856" on="1"/>
        <pt x="-120" y="747" on="1"/>
        <pt x="-166" y="784" on="1"/>
        <pt x="-50" y="918" on="1"/>
      </contour>
    </TTGlyph>
    <TTGlyph name="colon" xMin="83" yMin="-12" xMax="215" yMax="530">
      <component glyphName="period" x="10" y="0" flags="0x4"/>
      <component glyphName="period" x="10" y="403" flags="0x4"/>
    </TTGlyph>
    <TTGlyph name="comma" xMin="39" yMin="-134" xMax="206" yMax="127">
      <contour>
        <pt x="140" y="127" on="1"/>
        <pt x="175" y="127" on="0"/>
        <pt x="206" y="92" on="0"/>
        <pt x="206" y="64" on="1"/>
        <pt x="206" y="49" on="1"/>
        <pt x="206" y="4" on="0"/>
        <pt x="157" y="-97" on="0"/>
        <pt x="112" y="-134" on="1"/>
        <pt x="39" y="-134" on="1"/>
        <pt x="70" y="-102" on="0"/>
        <pt x="109" y="-44" on="0"/>
        <pt x="118" y="-9" on="1"/>
        <pt x="95" y="-4" on="0"/>
        <pt x="74" y="26" on="0"/>
        <pt x="74" y="49" on="1"/>
        <pt x="74" y="64" on="1"/>
        <pt x="74" y="92" on="0"/>
        <pt x="105" y="127" on="0"/>
      </contour>
    </TTGlyph>
    <TTGlyph name="copyright" xMin="52" yMin="-12" xMax="725" yMax="708">
      <contour>
        <pt x="389" y="-12" on="1"/>
        <pt x="317" y="-12" on="0"/>
        <pt x="194" y="38" on="0"/>
        <pt x="104" y="131" on="0"/>
        <pt x="52" y="265" on="0"/>
        <pt x="52" y="348" on="1"/>
        <pt x="52" y="431" on="0"/>
        <pt x="104" y="565" on="0"/>
        <pt x="194" y="658" on="0"/>
        <pt x="317" y="708" on="0"/>
        <pt x="389" y="708" on="1"/>
        <pt x="460" y="708" on="0"/>
        <pt x="583" y="658" on="0"/>
        <pt x="673" y="565" on="0"/>
        <pt x="725" y="431" on="0"/>
        <pt x="725" y="348" on="1"/>
        <pt x="725" y="265" on="0"/>
        <pt x="673" y="131" on="0"/>
        <pt x="583" y="38" on="0"/>
        <pt x="460" y="-12" on="0"/>
      </contour>
      <contour>
        <pt x="389" y="49" on="1"/>
        <pt x="447" y="49" on="0"/>
        <pt x="546" y="90" on="0"/>
        <pt x="616" y="162" on="0"/>
        <pt x="656" y="260" on="0"/>
        <pt x="656" y="317" on="1"/>
        <pt x="656" y="379" on="1"/>
        <pt x="656" y="436" on="0"/>
        <pt x="616" y="534" on="0"/>
        <pt x="546" y="606" on="0"/>
        <pt x="447" y="647" on="0"/>
        <pt x="389" y="647" on="1"/>
        <pt x="330" y="647" on="0"/>
        <pt x="232" y="606" on="0"/>
        <pt x="161" y="534" on="0"/>
        <pt x="121" y="436" on="0"/>
        <pt x="121" y="379" on="1"/>
        <pt x="121" y="317" on="1"/>
        <pt x="121" y="260" on="0"/>
        <pt x="161" y="162" on="0"/>
        <pt x="232" y="90" on="0"/>
        <pt x="330" y="49" on="0"/>
      </contour>
      <contour>
        <pt x="396" y="150" on="1"/>
        <pt x="314" y="150" on="0"/>
        <pt x="223" y="258" on="0"/>
        <pt x="223" y="348" on="1"/>
        <pt x="223" y="439" on="0"/>
        <pt x="314" y="546" on="0"/>
        <pt x="396" y="546" on="1"/>
        <pt x="451" y="546" on="0"/>
        <pt x="521" y="496" on="0"/>
        <pt x="538" y="454" on="1"/>
        <pt x="473" y="419" on="1"/>
        <pt x="462" y="445" on="0"/>
        <pt x="426" y="476" on="0"/>
        <pt x="396" y="476" on="1"/>
        <pt x="354" y="476" on="0"/>
        <pt x="311" y="424" on="0"/>
        <pt x="311" y="382" on="1"/>
        <pt x="311" y="314" on="1"/>
        <pt x="311" y="272" on="0"/>
        <pt x="354" y="220" on="0"/>
        <pt x="396" y="220" on="1"/>
        <pt x="428" y="220" on="0"/>
        <pt x="467" y="253" on="0"/>
        <pt x="482" y="280" on="1"/>
        <pt x="545" y="243" on="1"/>
        <pt x="527" y="203" on="0"/>
        <pt x="454" y="150" on="0"/>
      </contour>
    </TTGlyph>
    <TTGlyph name="currency" xMin="16" yMin="59" xMax="600" yMax="639">
      <contour>
        <pt x="308" y="117" on="1"/>
        <pt x="225" y="117" on="0"/>
        <pt x="171" y="159" on="1"/>
        <pt x="71" y="59" on="1"/>
        <pt x="16" y="112" on="1"/>
        <pt x="120" y="215" on="1"/>
        <pt x="88" y="271" on="0"/>
        <pt x="88" y="349" on="1"/>
        <pt x="88" y="427" on="0"/>
        <pt x="120" y="483" on="1"/>
        <pt x="16" y="586" on="1"/>
        <pt x="71" y="639" on="1"/>
        <pt x="171" y="539" on="1"/>
        <pt x="225" y="581" on="0"/>
        <pt x="308" y="581" on="1"/>
        <pt x="391" y="581" on="0"/>
        <pt x="445" y="539" on="1"/>
        <pt x="545" y="639" on="1"/>
        <pt x="600" y="586" on="1"/>
        <pt x="496" y="483" on="1"/>
        <pt x="528" y="427" on="0"/>
        <pt x="528" y="349" on="1"/>
        <pt x="528" y="271" on="0"/>
        <pt x="496" y="215" on="1"/>
        <pt x="600" y="112" on="1"/>
        <pt x="545" y="59" on="1"/>
        <pt x="445" y="159" on="1"/>
        <pt x="391" y="117" on="0"/>
      </contour>
      <contour>
        <pt x="308" y="191" on="1"/>
        <pt x="364" y="191" on="0"/>
        <pt x="431" y="255" on="0"/>
        <pt x="431" y="318" on="1"/>
        <pt x="431" y="380" on="1"/>
        <pt x="431" y="443" on="0"/>
        <pt x="364" y="507" on="0"/>
        <pt x="308" y="507" on="1"/>
        <pt x="252" y="507" on="0"/>
        <pt x="185" y="443" on="0"/>
        <pt x="185" y="380" on="1"/>
        <pt x="185" y="318" on="1"/>
        <pt x="185" y="255" on="0"/>
        <pt x="252" y="191" on="0"/>
      </contour>
    </TTGlyph>
    <TTGlyph name="d" xMin="49" yMin="-12" xMax="503" yMax="740">
      <contour>
        <pt x="410" y="85" on="1"/>
        <pt x="406" y="85" on="1"/>
        <pt x="388" y="37" on="0"/>
        <pt x="311" y="-12" on="0"/>
        <pt x="257" y="-12" on="1"/>
        <pt x="208" y="-12" on="0"/>
        <pt x="131" y="25" on="0"/>
        <pt x="77" y="96" on="0"/>
        <pt x="49" y="196" on="0"/>
        <pt x="49" y="259" on="1"/>
        <pt x="49" y="322" on="0"/>
        <pt x="77" y="422" on="0"/>
        <pt x="131" y="493" on="0"/>
        <pt x="208" y="530" on="0"/>
        <pt x="257" y="530" on="1"/>
        <pt x="311" y="530" on="0"/>
        <pt x="388" y="481" on="0"/>
        <pt x="406" y="433" on="1"/>
        <pt x="410" y="433" on="1"/>
        <pt x="410" y="740" on="1"/>
        <pt x="503" y="740" on="1"/>
        <pt x="503" y="0" on="1"/>
        <pt x="410" y="0" on="1"/>
      </contour>
      <contour>
        <pt x="284" y="69" on="1"/>
        <pt x="310" y="69" on="0"/>
        <pt x="356" y="83" on="0"/>
        <pt x="390" y="109" on="0"/>
        <pt x="410" y="143" on="0"/>
        <pt x="410" y="164" on="1"/>
        <pt x="410" y="354" on="1"/>
        <pt x="410" y="375" on="0"/>
        <pt x="390" y="409" on="0"/>
        <pt x="356" y="435" on="0"/>
        <pt x="310" y="449" on="0"/>
        <pt x="284" y="449" on="1"/>
        <pt x="221" y="449" on="0"/>
        <pt x="148" y="369" on="0"/>
        <pt x="148" y="303" on="1"/>
        <pt x="148" y="215" on="1"/>
        <pt x="148" y="149" on="0"/>
        <pt x="221" y="69" on="0"/>
      </contour>
    </TTGlyph>
    <TTGlyph name="dagger" xMin="45" yMin="-200" xMax="501" yMax="740">
      <contour>
        <pt x="233" y="-200" on="1"/>
        <pt x="233" y="446" on="1"/>
        <pt x="45" y="446" on="1"/>
        <pt x="45" y="518" on="1"/>
        <pt x="233" y="518" on="1"/>
        <pt x="233" y="740" on="1"/>
        <pt x="313" y="740" on="1"/>
        <pt x="313" y="518" on="1"/>
        <pt x="501" y="518" on="1"/>
        <pt x="501" y="446" on="1"/>
        <pt x="313" y="446" on="1"/>
        <pt x="313" y="-200" on="1"/>
      </contour>
    </TTGlyph>
    <TTGlyph name="daggerdbl" xMin="47" yMin="-200" xMax="503" yMax="740">
      <contour>
        <pt x="234" y="-200" on="1"/>
        <pt x="234" y="22" on="1"/>
        <pt x="47" y="22" on="1"/>
        <pt x="47" y="94" on="1"/>
        <pt x="234" y="94" on="1"/>
        <pt x="234" y="446" on="1"/>
        <pt x="47" y="446" on="1"/>
        <pt x="47" y="518" on="1"/>
        <pt x="234" y="518" on="1"/>
        <pt x="234" y="740" on="1"/>
        <pt x="315" y="740" on="1"/>
        <pt x="315" y="518" on="1"/>
        <pt x="503" y="518" on="1"/>
        <pt x="503" y="446" on="1"/>
        <pt x="315" y="446" on="1"/>
        <pt x="315" y="94" on="1"/>
        <pt x="503" y="94" on="1"/>
        <pt x="503" y="22" on="1"/>
        <pt x="315" y="22" on="1"/>
        <pt x="315" y="-200" on="1"/>
      </contour>
    </TTGlyph>
    <TTGlyph name="dcaron" xMin="49" yMin="-12" xMax="676" yMax="740">
      <component glyphName="uni02BC" x="291" y="0" flags="0x4"/>
      <component glyphName="d" x="0" y="0" flags="0x4"/>
    </TTGlyph>
    <TTGlyph name="dcroat" xMin="49" yMin="-12" xMax="567" yMax="740">
      <contour>
        <pt x="410" y="85" on="1"/>
        <pt x="406" y="85" on="1"/>
        <pt x="388" y="37" on="0"/>
        <pt x="311" y="-12" on="0"/>
        <pt x="257" y="-12" on="1"/>
        <pt x="208" y="-12" on="0"/>
        <pt x="131" y="25" on="0"/>
        <pt x="77" y="96" on="0"/>
        <pt x="49" y="196" on="0"/>
        <pt x="49" y="259" on="1"/>
        <pt x="49" y="322" on="0"/>
        <pt x="77" y="422" on="0"/>
        <pt x="131" y="493" on="0"/>
        <pt x="208" y="530" on="0"/>
        <pt x="257" y="530" on="1"/>
        <pt x="311" y="530" on="0"/>
        <pt x="388" y="481" on="0"/>
        <pt x="406" y="433" on="1"/>
        <pt x="410" y="433" on="1"/>
        <pt x="410" y="606" on="1"/>
        <pt x="262" y="606" on="1"/>
        <pt x="262" y="674" on="1"/>
        <pt x="410" y="674" on="1"/>
        <pt x="410" y="740" on="1"/>
        <pt x="503" y="740" on="1"/>
        <pt x="503" y="674" on="1"/>
        <pt x="567" y="674" on="1"/>
        <pt x="567" y="606" on="1"/>
        <pt x="503" y="606" on="1"/>
        <pt x="503" y="0" on="1"/>
        <pt x="410" y="0" on="1"/>
      </contour>
      <contour>
        <pt x="284" y="69" on="1"/>
        <pt x="310" y="69" on="0"/>
        <pt x="356" y="83" on="0"/>
        <pt x="390" y="109" on="0"/>
        <pt x="410" y="143" on="0"/>
        <pt x="410" y="164" on="1"/>
        <pt x="410" y="354" on="1"/>
        <pt x="410" y="375" on="0"/>
        <pt x="390" y="409" on="0"/>
        <pt x="356" y="435" on="0"/>
        <pt x="310" y="449" on="0"/>
        <pt x="284" y="449" on="1"/>
        <pt x="221" y="449" on="0"/>
        <pt x="148" y="369" on="0"/>
        <pt x="148" y="303" on="1"/>
        <pt x="148" y="215" on="1"/>
        <pt x="148" y="149" on="0"/>
        <pt x="221" y="69" on="0"/>
      </contour>
    </TTGlyph>
    <TTGlyph name="degree" xMin="63" yMin="360" xMax="405" yMax="710">
      <contour>
        <pt x="234" y="360" on="1"/>
        <pt x="198" y="360" on="0"/>
        <pt x="135" y="387" on="0"/>
        <pt x="89" y="433" on="0"/>
        <pt x="63" y="497" on="0"/>
        <pt x="63" y="535" on="1"/>
        <pt x="63" y="572" on="0"/>
        <pt x="89" y="637" on="0"/>
        <pt x="135" y="683" on="0"/>
        <pt x="198" y="710" on="0"/>
        <pt x="234" y="710" on="1"/>
        <pt x="270" y="710" on="0"/>
        <pt x="333" y="683" on="0"/>
        <pt x="379" y="637" on="0"/>
        <pt x="405" y="572" on="0"/>
        <pt x="405" y="535" on="1"/>
        <pt x="405" y="497" on="0"/>
        <pt x="379" y="433" on="0"/>
        <pt x="333" y="387" on="0"/>
        <pt x="270" y="360" on="0"/>
      </contour>
      <contour>
        <pt x="234" y="430" on="1"/>
        <pt x="278" y="430" on="0"/>
        <pt x="329" y="490" on="0"/>
        <pt x="329" y="535" on="1"/>
        <pt x="329" y="580" on="0"/>
        <pt x="278" y="640" on="0"/>
        <pt x="234" y="640" on="1"/>
        <pt x="190" y="640" on="0"/>
        <pt x="139" y="580" on="0"/>
        <pt x="139" y="535" on="1"/>
        <pt x="139" y="490" on="0"/>
        <pt x="190" y="430" on="0"/>
      </contour>
    </TTGlyph>
    <TTGlyph name="delta" xMin="45" yMin="-12" xMax="517" yMax="740">
      <contour>
        <pt x="271" y="661" on="1"/>
        <pt x="197" y="668" on="1"/>
        <pt x="197" y="664" on="1"/>
        <pt x="333" y="559" on="1"/>
        <pt x="384" y="520" on="0"/>
        <pt x="455" y="448" on="0"/>
        <pt x="498" y="376" on="0"/>
        <pt x="517" y="301" on="0"/>
        <pt x="517" y="260" on="1"/>
        <pt x="517" y="197" on="0"/>
        <pt x="483" y="96" on="0"/>
        <pt x="421" y="25" on="0"/>
        <pt x="333" y="-12" on="0"/>
        <pt x="280" y="-12" on="1"/>
        <pt x="227" y="-12" on="0"/>
        <pt x="140" y="26" on="0"/>
        <pt x="79" y="95" on="0"/>
        <pt x="45" y="192" on="0"/>
        <pt x="45" y="250" on="1"/>
        <pt x="45" y="314" on="0"/>
        <pt x="79" y="412" on="0"/>
        <pt x="137" y="478" on="0"/>
        <pt x="212" y="511" on="0"/>
        <pt x="254" y="511" on="1"/>
        <pt x="254" y="516" on="1"/>
        <pt x="112" y="638" on="1"/>
        <pt x="112" y="740" on="1"/>
        <pt x="463" y="740" on="1"/>
        <pt x="463" y="661" on="1"/>
      </contour>
      <contour>
        <pt x="418" y="243" on="1"/>
        <pt x="418" y="279" on="0"/>
        <pt x="408" y="337" on="0"/>
        <pt x="382" y="391" on="0"/>
        <pt x="335" y="445" on="0"/>
        <pt x="298" y="478" on="1"/>
        <pt x="231" y="470" on="0"/>
        <pt x="144" y="370" on="0"/>
        <pt x="144" y="282" on="1"/>
        <pt x="144" y="220" on="1"/>
        <pt x="144" y="143" on="0"/>
        <pt x="220" y="68" on="0"/>
        <pt x="280" y="68" on="1"/>
        <pt x="342" y="68" on="0"/>
        <pt x="418" y="143" on="0"/>
        <pt x="418" y="220" on="1"/>
      </contour>
    </TTGlyph>
    <TTGlyph name="dieresis" xMin="149" yMin="615" xMax="451" yMax="727">
      <contour>
        <pt x="204" y="615" on="1"/>
        <pt x="175" y="615" on="0"/>
        <pt x="149" y="641" on="0"/>
        <pt x="149" y="664" on="1"/>
        <pt x="149" y="678" on="1"/>
        <pt x="149" y="701" on="0"/>
        <pt x="175" y="727" on="0"/>
        <pt x="204" y="727" on="1"/>
        <pt x="233" y="727" on="0"/>
        <pt x="259" y="701" on="0"/>
        <pt x="259" y="678" on="1"/>
        <pt x="259" y="664" on="1"/>
        <pt x="259" y="641" on="0"/>
        <pt x="233" y="615" on="0"/>
      </contour>
      <contour>
        <pt x="396" y="615" on="1"/>
        <pt x="367" y="615" on="0"/>
        <pt x="341" y="641" on="0"/>
        <pt x="341" y="664" on="1"/>
        <pt x="341" y="678" on="1"/>
        <pt x="341" y="701" on="0"/>
        <pt x="367" y="727" on="0"/>
        <pt x="396" y="727" on="1"/>
        <pt x="425" y="727" on="0"/>
        <pt x="451" y="701" on="0"/>
        <pt x="451" y="678" on="1"/>
        <pt x="451" y="664" on="1"/>
        <pt x="451" y="641" on="0"/>
        <pt x="425" y="615" on="0"/>
      </contour>
    </TTGlyph>
    <TTGlyph name="dieresis.case" xMin="149" yMin="783" xMax="451" yMax="897">
      <contour>
        <pt x="204" y="783" on="1"/>
        <pt x="175" y="783" on="0"/>
        <pt x="149" y="809" on="0"/>
        <pt x="149" y="832" on="1"/>
        <pt x="149" y="848" on="1"/>
        <pt x="149" y="871" on="0"/>
        <pt x="175" y="897" on="0"/>
        <pt x="204" y="897" on="1"/>
        <pt x="233" y="897" on="0"/>
        <pt x="259" y="871" on="0"/>
        <pt x="259" y="848" on="1"/>
        <pt x="259" y="832" on="1"/>
        <pt x="259" y="809" on="0"/>
        <pt x="233" y="783" on="0"/>
      </contour>
      <contour>
        <pt x="396" y="783" on="1"/>
        <pt x="367" y="783" on="0"/>
        <pt x="341" y="809" on="0"/>
        <pt x="341" y="832" on="1"/>
        <pt x="341" y="848" on="1"/>
        <pt x="341" y="871" on="0"/>
        <pt x="367" y="897" on="0"/>
        <pt x="396" y="897" on="1"/>
        <pt x="425" y="897" on="0"/>
        <pt x="451" y="871" on="0"/>
        <pt x="451" y="848" on="1"/>
        <pt x="451" y="832" on="1"/>
        <pt x="451" y="809" on="0"/>
        <pt x="425" y="783" on="0"/>
      </contour>
    </TTGlyph>
    <TTGlyph name="dieresisacute" xMin="-156" yMin="595" xMax="156" yMax="905">
      <contour>
        <pt x="12" y="705" on="1"/>
        <pt x="-43" y="731" on="1"/>
        <pt x="45" y="905" on="1"/>
        <pt x="123" y="867" on="1"/>
      </contour>
      <contour>
        <pt x="-101" y="595" on="1"/>
        <pt x="-130" y="595" on="0"/>
        <pt x="-156" y="622" on="0"/>
        <pt x="-156" y="644" on="1"/>
        <pt x="-156" y="658" on="1"/>
        <pt x="-156" y="680" on="0"/>
        <pt x="-130" y="707" on="0"/>
        <pt x="-101" y="707" on="1"/>
        <pt x="-72" y="707" on="0"/>
        <pt x="-46" y="680" on="0"/>
        <pt x="-46" y="658" on="1"/>
        <pt x="-46" y="644" on="1"/>
        <pt x="-46" y="622" on="0"/>
        <pt x="-72" y="595" on="0"/>
      </contour>
      <contour>
        <pt x="101" y="595" on="1"/>
        <pt x="72" y="595" on="0"/>
        <pt x="46" y="622" on="0"/>
        <pt x="46" y="644" on="1"/>
        <pt x="46" y="658" on="1"/>
        <pt x="46" y="680" on="0"/>
        <pt x="72" y="707" on="0"/>
        <pt x="101" y="707" on="1"/>
        <pt x="130" y="707" on="0"/>
        <pt x="156" y="680" on="0"/>
        <pt x="156" y="658" on="1"/>
        <pt x="156" y="644" on="1"/>
        <pt x="156" y="622" on="0"/>
        <pt x="130" y="595" on="0"/>
      </contour>
    </TTGlyph>
    <TTGlyph name="dieresisacute.case" xMin="-157" yMin="763" xMax="157" yMax="1074">
      <contour>
        <pt x="12" y="873" on="1"/>
        <pt x="-43" y="899" on="1"/>
        <pt x="45" y="1074" on="1"/>
        <pt x="123" y="1035" on="1"/>
      </contour>
      <contour>
        <pt x="-101" y="763" on="1"/>
        <pt x="-130" y="763" on="0"/>
        <pt x="-157" y="791" on="0"/>
        <pt x="-157" y="813" on="1"/>
        <pt x="-157" y="828" on="1"/>
        <pt x="-157" y="850" on="0"/>
        <pt x="-130" y="878" on="0"/>
        <pt x="-101" y="878" on="1"/>
        <pt x="-72" y="878" on="0"/>
        <pt x="-45" y="850" on="0"/>
        <pt x="-45" y="828" on="1"/>
        <pt x="-45" y="813" on="1"/>
        <pt x="-45" y="791" on="0"/>
        <pt x="-72" y="763" on="0"/>
      </contour>
      <contour>
        <pt x="101" y="763" on="1"/>
        <pt x="72" y="763" on="0"/>
        <pt x="45" y="791" on="0"/>
        <pt x="45" y="813" on="1"/>
        <pt x="45" y="828" on="1"/>
        <pt x="45" y="850" on="0"/>
        <pt x="72" y="878" on="0"/>
        <pt x="101" y="878" on="1"/>
        <pt x="130" y="878" on="0"/>
        <pt x="157" y="850" on="0"/>
        <pt x="157" y="828" on="1"/>
        <pt x="157" y="813" on="1"/>
        <pt x="157" y="791" on="0"/>
        <pt x="130" y="763" on="0"/>
      </contour>
    </TTGlyph>
    <TTGlyph name="dieresiscaron" xMin="-166" yMin="595" xMax="166" yMax="904">
      <contour>
        <pt x="-49" y="731" on="1"/>
        <pt x="-166" y="868" on="1"/>
        <pt x="-120" y="904" on="1"/>
        <pt x="0" y="794" on="1"/>
        <pt x="120" y="904" on="1"/>
        <pt x="166" y="868" on="1"/>
        <pt x="49" y="731" on="1"/>
      </contour>
      <contour>
        <pt x="-101" y="595" on="1"/>
        <pt x="-130" y="595" on="0"/>
        <pt x="-156" y="622" on="0"/>
        <pt x="-156" y="644" on="1"/>
        <pt x="-156" y="658" on="1"/>
        <pt x="-156" y="680" on="0"/>
        <pt x="-130" y="707" on="0"/>
        <pt x="-101" y="707" on="1"/>
        <pt x="-72" y="707" on="0"/>
        <pt x="-46" y="680" on="0"/>
        <pt x="-46" y="658" on="1"/>
        <pt x="-46" y="644" on="1"/>
        <pt x="-46" y="622" on="0"/>
        <pt x="-72" y="595" on="0"/>
      </contour>
      <contour>
        <pt x="101" y="595" on="1"/>
        <pt x="72" y="595" on="0"/>
        <pt x="46" y="622" on="0"/>
        <pt x="46" y="644" on="1"/>
        <pt x="46" y="658" on="1"/>
        <pt x="46" y="680" on="0"/>
        <pt x="72" y="707" on="0"/>
        <pt x="101" y="707" on="1"/>
        <pt x="130" y="707" on="0"/>
        <pt x="156" y="680" on="0"/>
        <pt x="156" y="658" on="1"/>
        <pt x="156" y="644" on="1"/>
        <pt x="156" y="622" on="0"/>
        <pt x="130" y="595" on="0"/>
      </contour>
    </TTGlyph>
    <TTGlyph name="dieresiscaron.case" xMin="-166" yMin="763" xMax="166" yMax="1072">
      <contour>
        <pt x="-49" y="899" on="1"/>
        <pt x="-166" y="1036" on="1"/>
        <pt x="-120" y="1072" on="1"/>
        <pt x="0" y="962" on="1"/>
        <pt x="120" y="1072" on="1"/>
        <pt x="166" y="1036" on="1"/>
        <pt x="49" y="899" on="1"/>
      </contour>
      <contour>
        <pt x="-101" y="763" on="1"/>
        <pt x="-130" y="763" on="0"/>
        <pt x="-157" y="791" on="0"/>
        <pt x="-157" y="813" on="1"/>
        <pt x="-157" y="828" on="1"/>
        <pt x="-157" y="850" on="0"/>
        <pt x="-130" y="878" on="0"/>
        <pt x="-101" y="878" on="1"/>
        <pt x="-72" y="878" on="0"/>
        <pt x="-45" y="850" on="0"/>
        <pt x="-45" y="828" on="1"/>
        <pt x="-45" y="813" on="1"/>
        <pt x="-45" y="791" on="0"/>
        <pt x="-72" y="763" on="0"/>
      </contour>
      <contour>
        <pt x="101" y="763" on="1"/>
        <pt x="72" y="763" on="0"/>
        <pt x="45" y="791" on="0"/>
        <pt x="45" y="813" on="1"/>
        <pt x="45" y="828" on="1"/>
        <pt x="45" y="850" on="0"/>
        <pt x="72" y="878" on="0"/>
        <pt x="101" y="878" on="1"/>
        <pt x="130" y="878" on="0"/>
        <pt x="157" y="850" on="0"/>
        <pt x="157" y="828" on="1"/>
        <pt x="157" y="813" on="1"/>
        <pt x="157" y="791" on="0"/>
        <pt x="130" y="763" on="0"/>
      </contour>
    </TTGlyph>
    <TTGlyph name="dieresisgrave" xMin="-156" yMin="595" xMax="156" yMax="905">
      <contour>
        <pt x="-123" y="867" on="1"/>
        <pt x="-45" y="905" on="1"/>
        <pt x="43" y="731" on="1"/>
        <pt x="-12" y="705" on="1"/>
      </contour>
      <contour>
        <pt x="-101" y="595" on="1"/>
        <pt x="-130" y="595" on="0"/>
        <pt x="-156" y="622" on="0"/>
        <pt x="-156" y="644" on="1"/>
        <pt x="-156" y="658" on="1"/>
        <pt x="-156" y="680" on="0"/>
        <pt x="-130" y="707" on="0"/>
        <pt x="-101" y="707" on="1"/>
        <pt x="-72" y="707" on="0"/>
        <pt x="-46" y="680" on="0"/>
        <pt x="-46" y="658" on="1"/>
        <pt x="-46" y="644" on="1"/>
        <pt x="-46" y="622" on="0"/>
        <pt x="-72" y="595" on="0"/>
      </contour>
      <contour>
        <pt x="101" y="595" on="1"/>
        <pt x="72" y="595" on="0"/>
        <pt x="46" y="622" on="0"/>
        <pt x="46" y="644" on="1"/>
        <pt x="46" y="658" on="1"/>
        <pt x="46" y="680" on="0"/>
        <pt x="72" y="707" on="0"/>
        <pt x="101" y="707" on="1"/>
        <pt x="130" y="707" on="0"/>
        <pt x="156" y="680" on="0"/>
        <pt x="156" y="658" on="1"/>
        <pt x="156" y="644" on="1"/>
        <pt x="156" y="622" on="0"/>
        <pt x="130" y="595" on="0"/>
      </contour>
    </TTGlyph>
    <TTGlyph name="dieresisgrave.case" xMin="-157" yMin="763" xMax="157" yMax="1074">
      <contour>
        <pt x="-123" y="1035" on="1"/>
        <pt x="-45" y="1074" on="1"/>
        <pt x="43" y="899" on="1"/>
        <pt x="-12" y="873" on="1"/>
      </contour>
      <contour>
        <pt x="-101" y="763" on="1"/>
        <pt x="-130" y="763" on="0"/>
        <pt x="-157" y="791" on="0"/>
        <pt x="-157" y="813" on="1"/>
        <pt x="-157" y="828" on="1"/>
        <pt x="-157" y="850" on="0"/>
        <pt x="-130" y="878" on="0"/>
        <pt x="-101" y="878" on="1"/>
        <pt x="-72" y="878" on="0"/>
        <pt x="-45" y="850" on="0"/>
        <pt x="-45" y="828" on="1"/>
        <pt x="-45" y="813" on="1"/>
        <pt x="-45" y="791" on="0"/>
        <pt x="-72" y="763" on="0"/>
      </contour>
      <contour>
        <pt x="101" y="763" on="1"/>
        <pt x="72" y="763" on="0"/>
        <pt x="45" y="791" on="0"/>
        <pt x="45" y="813" on="1"/>
        <pt x="45" y="828" on="1"/>
        <pt x="45" y="850" on="0"/>
        <pt x="72" y="878" on="0"/>
        <pt x="101" y="878" on="1"/>
        <pt x="130" y="878" on="0"/>
        <pt x="157" y="850" on="0"/>
        <pt x="157" y="828" on="1"/>
        <pt x="157" y="813" on="1"/>
        <pt x="157" y="791" on="0"/>
        <pt x="130" y="763" on="0"/>
      </contour>
    </TTGlyph>
    <TTGlyph name="dieresismacron" xMin="-156" yMin="595" xMax="156" yMax="831">
      <contour>
        <pt x="-142" y="831" on="1"/>
        <pt x="142" y="831" on="1"/>
        <pt x="142" y="756" on="1"/>
        <pt x="-142" y="756" on="1"/>
      </contour>
      <contour>
        <pt x="-101" y="595" on="1"/>
        <pt x="-130" y="595" on="0"/>
        <pt x="-156" y="622" on="0"/>
        <pt x="-156" y="644" on="1"/>
        <pt x="-156" y="658" on="1"/>
        <pt x="-156" y="680" on="0"/>
        <pt x="-130" y="707" on="0"/>
        <pt x="-101" y="707" on="1"/>
        <pt x="-72" y="707" on="0"/>
        <pt x="-46" y="680" on="0"/>
        <pt x="-46" y="658" on="1"/>
        <pt x="-46" y="644" on="1"/>
        <pt x="-46" y="622" on="0"/>
        <pt x="-72" y="595" on="0"/>
      </contour>
      <contour>
        <pt x="101" y="595" on="1"/>
        <pt x="72" y="595" on="0"/>
        <pt x="46" y="622" on="0"/>
        <pt x="46" y="644" on="1"/>
        <pt x="46" y="658" on="1"/>
        <pt x="46" y="680" on="0"/>
        <pt x="72" y="707" on="0"/>
        <pt x="101" y="707" on="1"/>
        <pt x="130" y="707" on="0"/>
        <pt x="156" y="680" on="0"/>
        <pt x="156" y="658" on="1"/>
        <pt x="156" y="644" on="1"/>
        <pt x="156" y="622" on="0"/>
        <pt x="130" y="595" on="0"/>
      </contour>
    </TTGlyph>
    <TTGlyph name="dieresismacron.case" xMin="-157" yMin="763" xMax="157" yMax="999">
      <contour>
        <pt x="-142" y="999" on="1"/>
        <pt x="142" y="999" on="1"/>
        <pt x="142" y="924" on="1"/>
        <pt x="-142" y="924" on="1"/>
      </contour>
      <contour>
        <pt x="-101" y="763" on="1"/>
        <pt x="-130" y="763" on="0"/>
        <pt x="-157" y="791" on="0"/>
        <pt x="-157" y="813" on="1"/>
        <pt x="-157" y="828" on="1"/>
        <pt x="-157" y="850" on="0"/>
        <pt x="-130" y="878" on="0"/>
        <pt x="-101" y="878" on="1"/>
        <pt x="-72" y="878" on="0"/>
        <pt x="-45" y="850" on="0"/>
        <pt x="-45" y="828" on="1"/>
        <pt x="-45" y="813" on="1"/>
        <pt x="-45" y="791" on="0"/>
        <pt x="-72" y="763" on="0"/>
      </contour>
      <contour>
        <pt x="101" y="763" on="1"/>
        <pt x="72" y="763" on="0"/>
        <pt x="45" y="791" on="0"/>
        <pt x="45" y="813" on="1"/>
        <pt x="45" y="828" on="1"/>
        <pt x="45" y="850" on="0"/>
        <pt x="72" y="878" on="0"/>
        <pt x="101" y="878" on="1"/>
        <pt x="130" y="878" on="0"/>
        <pt x="157" y="850" on="0"/>
        <pt x="157" y="828" on="1"/>
        <pt x="157" y="813" on="1"/>
        <pt x="157" y="791" on="0"/>
        <pt x="130" y="763" on="0"/>
      </contour>
    </TTGlyph>
    <TTGlyph name="dieresistonos" xMin="134" yMin="584" xMax="477" yMax="787">
      <contour>
        <pt x="183" y="616" on="1"/>
        <pt x="159" y="616" on="0"/>
        <pt x="134" y="641" on="0"/>
        <pt x="134" y="664" on="1"/>
        <pt x="134" y="677" on="1"/>
        <pt x="134" y="700" on="0"/>
        <pt x="159" y="726" on="0"/>
        <pt x="183" y="726" on="1"/>
        <pt x="207" y="726" on="0"/>
        <pt x="232" y="700" on="0"/>
        <pt x="232" y="677" on="1"/>
        <pt x="232" y="664" on="1"/>
        <pt x="232" y="641" on="0"/>
        <pt x="207" y="616" on="0"/>
      </contour>
      <contour>
        <pt x="311" y="584" on="1"/>
        <pt x="260" y="592" on="1"/>
        <pt x="290" y="787" on="1"/>
        <pt x="367" y="775" on="1"/>
      </contour>
      <contour>
        <pt x="428" y="616" on="1"/>
        <pt x="404" y="616" on="0"/>
        <pt x="380" y="641" on="0"/>
        <pt x="380" y="664" on="1"/>
        <pt x="380" y="677" on="1"/>
        <pt x="380" y="700" on="0"/>
        <pt x="404" y="726" on="0"/>
        <pt x="428" y="726" on="1"/>
        <pt x="453" y="726" on="0"/>
        <pt x="477" y="700" on="0"/>
        <pt x="477" y="677" on="1"/>
        <pt x="477" y="664" on="1"/>
        <pt x="477" y="641" on="0"/>
        <pt x="453" y="616" on="0"/>
      </contour>
    </TTGlyph>
    <TTGlyph name="divide" xMin="67" yMin="47" xMax="533" yMax="563">
      <contour>
        <pt x="67" y="266" on="1"/>
        <pt x="67" y="344" on="1"/>
        <pt x="533" y="344" on="1"/>
        <pt x="533" y="266" on="1"/>
      </contour>
      <contour>
        <pt x="300" y="47" on="1"/>
        <pt x="263" y="47" on="0"/>
        <pt x="233" y="78" on="0"/>
        <pt x="233" y="99" on="1"/>
        <pt x="233" y="122" on="1"/>
        <pt x="233" y="143" on="0"/>
        <pt x="263" y="174" on="0"/>
        <pt x="300" y="174" on="1"/>
        <pt x="337" y="174" on="0"/>
        <pt x="367" y="143" on="0"/>
        <pt x="367" y="122" on="1"/>
        <pt x="367" y="99" on="1"/>
        <pt x="367" y="78" on="0"/>
        <pt x="337" y="47" on="0"/>
      </contour>
      <contour>
        <pt x="300" y="436" on="1"/>
        <pt x="263" y="436" on="0"/>
        <pt x="233" y="467" on="0"/>
        <pt x="233" y="488" on="1"/>
        <pt x="233" y="511" on="1"/>
        <pt x="233" y="532" on="0"/>
        <pt x="263" y="563" on="0"/>
        <pt x="300" y="563" on="1"/>
        <pt x="337" y="563" on="0"/>
        <pt x="367" y="532" on="0"/>
        <pt x="367" y="511" on="1"/>
        <pt x="367" y="488" on="1"/>
        <pt x="367" y="467" on="0"/>
        <pt x="337" y="436" on="0"/>
      </contour>
    </TTGlyph>
    <TTGlyph name="dollar" xMin="48" yMin="-82" xMax="543" yMax="780">
      <contour>
        <pt x="266" y="-82" on="1"/>
        <pt x="266" y="2" on="1"/>
        <pt x="190" y="7" on="0"/>
        <pt x="85" y="70" on="0"/>
        <pt x="48" y="118" on="1"/>
        <pt x="113" y="177" on="1"/>
        <pt x="145" y="136" on="0"/>
        <pt x="221" y="88" on="0"/>
        <pt x="269" y="81" on="1"/>
        <pt x="269" y="323" on="1"/>
        <pt x="164" y="346" on="0"/>
        <pt x="69" y="437" on="0"/>
        <pt x="69" y="514" on="1"/>
        <pt x="69" y="594" on="0"/>
        <pt x="177" y="687" on="0"/>
        <pt x="266" y="696" on="1"/>
        <pt x="266" y="780" on="1"/>
        <pt x="338" y="780" on="1"/>
        <pt x="338" y="697" on="1"/>
        <pt x="404" y="690" on="0"/>
        <pt x="502" y="636" on="0"/>
        <pt x="537" y="588" on="1"/>
        <pt x="471" y="535" on="1"/>
        <pt x="447" y="567" on="0"/>
        <pt x="381" y="609" on="0"/>
        <pt x="335" y="617" on="1"/>
        <pt x="335" y="396" on="1"/>
        <pt x="393" y="383" on="0"/>
        <pt x="470" y="349" on="0"/>
        <pt x="519" y="303" on="0"/>
        <pt x="543" y="243" on="0"/>
        <pt x="543" y="203" on="1"/>
        <pt x="543" y="119" on="0"/>
        <pt x="435" y="14" on="0"/>
        <pt x="338" y="3" on="1"/>
        <pt x="338" y="-82" on="1"/>
      </contour>
      <contour>
        <pt x="453" y="197" on="1"/>
        <pt x="453" y="242" on="0"/>
        <pt x="400" y="294" on="0"/>
        <pt x="335" y="310" on="1"/>
        <pt x="335" y="81" on="1"/>
        <pt x="390" y="89" on="0"/>
        <pt x="453" y="150" on="0"/>
      </contour>
      <contour>
        <pt x="159" y="519" on="1"/>
        <pt x="159" y="472" on="0"/>
        <pt x="213" y="426" on="0"/>
        <pt x="269" y="410" on="1"/>
        <pt x="269" y="617" on="1"/>
        <pt x="218" y="610" on="0"/>
        <pt x="159" y="561" on="0"/>
      </contour>
    </TTGlyph>
    <TTGlyph name="dotaccent" xMin="242" yMin="611" xMax="358" yMax="727">
      <contour>
        <pt x="300" y="611" on="1"/>
        <pt x="270" y="611" on="0"/>
        <pt x="242" y="639" on="0"/>
        <pt x="242" y="662" on="1"/>
        <pt x="242" y="676" on="1"/>
        <pt x="242" y="699" on="0"/>
        <pt x="270" y="727" on="0"/>
        <pt x="300" y="727" on="1"/>
        <pt x="330" y="727" on="0"/>
        <pt x="358" y="699" on="0"/>
        <pt x="358" y="676" on="1"/>
        <pt x="358" y="662" on="1"/>
        <pt x="358" y="639" on="0"/>
        <pt x="330" y="611" on="0"/>
      </contour>
    </TTGlyph>
    <TTGlyph name="dotaccent.case" xMin="238" yMin="775" xMax="362" yMax="904">
      <contour>
        <pt x="300" y="775" on="1"/>
        <pt x="268" y="775" on="0"/>
        <pt x="238" y="806" on="0"/>
        <pt x="238" y="831" on="1"/>
        <pt x="238" y="848" on="1"/>
        <pt x="238" y="873" on="0"/>
        <pt x="268" y="904" on="0"/>
        <pt x="300" y="904" on="1"/>
        <pt x="332" y="904" on="0"/>
        <pt x="362" y="873" on="0"/>
        <pt x="362" y="848" on="1"/>
        <pt x="362" y="831" on="1"/>
        <pt x="362" y="806" on="0"/>
        <pt x="332" y="775" on="0"/>
      </contour>
    </TTGlyph>
    <TTGlyph name="dotlessi" xMin="82" yMin="0" xMax="175" yMax="518">
      <contour>
        <pt x="82" y="0" on="1"/>
        <pt x="82" y="518" on="1"/>
        <pt x="175" y="518" on="1"/>
        <pt x="175" y="0" on="1"/>
      </contour>
    </TTGlyph>
    <TTGlyph name="e" xMin="45" yMin="-12" xMax="507" yMax="530">
      <contour>
        <pt x="280" y="-12" on="1"/>
        <pt x="226" y="-12" on="0"/>
        <pt x="139" y="27" on="0"/>
        <pt x="78" y="97" on="0"/>
        <pt x="45" y="197" on="0"/>
        <pt x="45" y="259" on="1"/>
        <pt x="45" y="320" on="0"/>
        <pt x="78" y="421" on="0"/>
        <pt x="139" y="491" on="0"/>
        <pt x="226" y="530" on="0"/>
        <pt x="280" y="530" on="1"/>
        <pt x="334" y="530" on="0"/>
        <pt x="419" y="491" on="0"/>
        <pt x="477" y="423" on="0"/>
        <pt x="507" y="329" on="0"/>
        <pt x="507" y="275" on="1"/>
        <pt x="507" y="236" on="1"/>
        <pt x="142" y="236" on="1"/>
        <pt x="142" y="215" on="1"/>
        <pt x="142" y="150" on="0"/>
        <pt x="218" y="67" on="0"/>
        <pt x="288" y="67" on="1"/>
        <pt x="337" y="67" on="0"/>
        <pt x="407" y="111" on="0"/>
        <pt x="428" y="151" on="1"/>
        <pt x="488" y="100" on="1"/>
        <pt x="461" y="49" on="0"/>
        <pt x="353" y="-12" on="0"/>
      </contour>
      <contour>
        <pt x="280" y="455" on="1"/>
        <pt x="250" y="455" on="0"/>
        <pt x="199" y="433" on="0"/>
        <pt x="162" y="394" on="0"/>
        <pt x="142" y="340" on="0"/>
        <pt x="142" y="308" on="1"/>
        <pt x="142" y="301" on="1"/>
        <pt x="408" y="301" on="1"/>
        <pt x="408" y="311" on="1"/>
        <pt x="408" y="376" on="0"/>
        <pt x="339" y="455" on="0"/>
      </contour>
    </TTGlyph>
    <TTGlyph name="eacute" xMin="45" yMin="-12" xMax="507" yMax="786">
      <component glyphName="e" x="0" y="0" flags="0x204"/>
      <component glyphName="acute" x="-18" y="0" flags="0x4"/>
    </TTGlyph>
    <TTGlyph name="ebreve" xMin="45" yMin="-12" xMax="507" yMax="752">
      <component glyphName="e" x="0" y="0" flags="0x204"/>
      <component glyphName="breve" x="-18" y="0" flags="0x4"/>
    </TTGlyph>
    <TTGlyph name="ecaron" xMin="45" yMin="-12" xMax="507" yMax="779">
      <component glyphName="e" x="0" y="0" flags="0x204"/>
      <component glyphName="caron" x="-18" y="0" flags="0x4"/>
    </TTGlyph>
    <TTGlyph name="ecircumflex" xMin="45" yMin="-12" xMax="507" yMax="771">
      <component glyphName="e" x="0" y="0" flags="0x204"/>
      <component glyphName="circumflex" x="-18" y="0" flags="0x4"/>
    </TTGlyph>
    <TTGlyph name="edieresis" xMin="45" yMin="-12" xMax="507" yMax="727">
      <component glyphName="e" x="0" y="0" flags="0x204"/>
      <component glyphName="dieresis" x="-18" y="0" flags="0x4"/>
    </TTGlyph>
    <TTGlyph name="edotaccent" xMin="45" yMin="-12" xMax="507" yMax="727">
      <component glyphName="e" x="0" y="0" flags="0x204"/>
      <component glyphName="dotaccent" x="-18" y="0" flags="0x4"/>
    </TTGlyph>
    <TTGlyph name="egrave" xMin="45" yMin="-12" xMax="507" yMax="786">
      <component glyphName="e" x="0" y="0" flags="0x204"/>
      <component glyphName="grave" x="-18" y="0" flags="0x4"/>
    </TTGlyph>
    <TTGlyph name="eight" xMin="55" yMin="-12" xMax="545" yMax="710">
      <contour>
        <pt x="300" y="-12" on="1"/>
        <pt x="240" y="-12" on="0"/>
        <pt x="148" y="19" on="0"/>
        <pt x="87" y="73" on="0"/>
        <pt x="55" y="147" on="0"/>
        <pt x="55" y="190" on="1"/>
        <pt x="55" y="261" on="0"/>
        <pt x="132" y="345" on="0"/>
        <pt x="195" y="362" on="1"/>
        <pt x="195" y="370" on="1"/>
        <pt x="141" y="389" on="0"/>
        <pt x="76" y="473" on="0"/>
        <pt x="76" y="533" on="1"/>
        <pt x="76" y="613" on="0"/>
        <pt x="193" y="710" on="0"/>
        <pt x="300" y="710" on="1"/>
        <pt x="407" y="710" on="0"/>
        <pt x="524" y="613" on="0"/>
        <pt x="524" y="533" on="1"/>
        <pt x="524" y="473" on="0"/>
        <pt x="459" y="389" on="0"/>
        <pt x="405" y="370" on="1"/>
        <pt x="405" y="362" on="1"/>
        <pt x="468" y="345" on="0"/>
        <pt x="545" y="261" on="0"/>
        <pt x="545" y="190" on="1"/>
        <pt x="545" y="147" on="0"/>
        <pt x="513" y="73" on="0"/>
        <pt x="452" y="19" on="0"/>
        <pt x="360" y="-12" on="0"/>
      </contour>
      <contour>
        <pt x="300" y="69" on="1"/>
        <pt x="369" y="69" on="0"/>
        <pt x="443" y="131" on="0"/>
        <pt x="443" y="187" on="1"/>
        <pt x="443" y="208" on="1"/>
        <pt x="443" y="264" on="0"/>
        <pt x="369" y="326" on="0"/>
        <pt x="300" y="326" on="1"/>
        <pt x="231" y="326" on="0"/>
        <pt x="157" y="264" on="0"/>
        <pt x="157" y="208" on="1"/>
        <pt x="157" y="187" on="1"/>
        <pt x="157" y="131" on="0"/>
        <pt x="231" y="69" on="0"/>
      </contour>
      <contour>
        <pt x="300" y="404" on="1"/>
        <pt x="362" y="404" on="0"/>
        <pt x="427" y="458" on="0"/>
        <pt x="427" y="509" on="1"/>
        <pt x="427" y="524" on="1"/>
        <pt x="427" y="575" on="0"/>
        <pt x="362" y="629" on="0"/>
        <pt x="300" y="629" on="1"/>
        <pt x="238" y="629" on="0"/>
        <pt x="173" y="575" on="0"/>
        <pt x="173" y="524" on="1"/>
        <pt x="173" y="509" on="1"/>
        <pt x="173" y="458" on="0"/>
        <pt x="238" y="404" on="0"/>
      </contour>
    </TTGlyph>
    <TTGlyph name="ellipsis" xMin="73" yMin="-12" xMax="745" yMax="127">
      <component glyphName="period" x="0" y="0" flags="0x4"/>
      <component glyphName="period" x="270" y="0" flags="0x4"/>
      <component glyphName="period" x="540" y="0" flags="0x4"/>
    </TTGlyph>
    <TTGlyph name="emacron" xMin="45" yMin="-12" xMax="507" yMax="709">
      <component glyphName="e" x="0" y="0" flags="0x204"/>
      <component glyphName="macron" x="-18" y="0" flags="0x4"/>
    </TTGlyph>
    <TTGlyph name="emdash" xMin="36" yMin="262" xMax="744" yMax="346">
      <contour>
        <pt x="36" y="262" on="1"/>
        <pt x="36" y="346" on="1"/>
        <pt x="744" y="346" on="1"/>
        <pt x="744" y="262" on="1"/>
      </contour>
    </TTGlyph>
    <TTGlyph name="endash" xMin="36" yMin="262" xMax="552" yMax="346">
      <contour>
        <pt x="36" y="262" on="1"/>
        <pt x="36" y="346" on="1"/>
        <pt x="552" y="346" on="1"/>
        <pt x="552" y="262" on="1"/>
      </contour>
    </TTGlyph>
    <TTGlyph name="eng" xMin="82" yMin="-200" xMax="497" yMax="530">
      <contour>
        <pt x="321" y="-121" on="1"/>
        <pt x="404" y="-121" on="1"/>
        <pt x="404" y="317" on="1"/>
        <pt x="404" y="449" on="0"/>
        <pt x="295" y="449" on="1"/>
        <pt x="272" y="449" on="0"/>
        <pt x="229" y="437" on="0"/>
        <pt x="195" y="414" on="0"/>
        <pt x="175" y="379" on="0"/>
        <pt x="175" y="355" on="1"/>
        <pt x="175" y="0" on="1"/>
        <pt x="82" y="0" on="1"/>
        <pt x="82" y="518" on="1"/>
        <pt x="175" y="518" on="1"/>
        <pt x="175" y="433" on="1"/>
        <pt x="180" y="433" on="1"/>
        <pt x="198" y="476" on="0"/>
        <pt x="267" y="530" on="0"/>
        <pt x="326" y="530" on="1"/>
        <pt x="406" y="530" on="0"/>
        <pt x="497" y="426" on="0"/>
        <pt x="497" y="331" on="1"/>
        <pt x="497" y="-77" on="1"/>
        <pt x="497" y="-134" on="0"/>
        <pt x="440" y="-200" on="0"/>
        <pt x="379" y="-200" on="1"/>
        <pt x="321" y="-200" on="1"/>
      </contour>
    </TTGlyph>
    <TTGlyph name="eogonek" xMin="45" yMin="-208" xMax="505" yMax="530">
      <contour>
        <pt x="352" y="-208" on="1"/>
        <pt x="311" y="-208" on="0"/>
        <pt x="252" y="-171" on="0"/>
        <pt x="252" y="-130" on="1"/>
        <pt x="252" y="-108" on="0"/>
        <pt x="270" y="-71" on="0"/>
        <pt x="299" y="-40" on="0"/>
        <pt x="336" y="-14" on="0"/>
        <pt x="356" y="-2" on="1"/>
        <pt x="353" y="3" on="1"/>
        <pt x="340" y="-4" on="0"/>
        <pt x="304" y="-12" on="0"/>
        <pt x="279" y="-12" on="1"/>
        <pt x="225" y="-12" on="0"/>
        <pt x="139" y="27" on="0"/>
        <pt x="78" y="97" on="0"/>
        <pt x="45" y="197" on="0"/>
        <pt x="45" y="259" on="1"/>
        <pt x="45" y="320" on="0"/>
        <pt x="78" y="421" on="0"/>
        <pt x="139" y="491" on="0"/>
        <pt x="225" y="530" on="0"/>
        <pt x="279" y="530" on="1"/>
        <pt x="333" y="530" on="0"/>
        <pt x="418" y="491" on="0"/>
        <pt x="475" y="423" on="0"/>
        <pt x="505" y="329" on="0"/>
        <pt x="505" y="275" on="1"/>
        <pt x="505" y="236" on="1"/>
        <pt x="141" y="236" on="1"/>
        <pt x="141" y="215" on="1"/>
        <pt x="141" y="150" on="0"/>
        <pt x="218" y="67" on="0"/>
        <pt x="288" y="67" on="1"/>
        <pt x="336" y="67" on="0"/>
        <pt x="407" y="111" on="0"/>
        <pt x="427" y="150" on="1"/>
        <pt x="487" y="100" on="1"/>
        <pt x="479" y="84" on="0"/>
        <pt x="456" y="58" on="0"/>
        <pt x="439" y="41" on="1"/>
        <pt x="423" y="23" on="0"/>
        <pt x="383" y="-17" on="0"/>
        <pt x="347" y="-57" on="0"/>
        <pt x="323" y="-99" on="0"/>
        <pt x="323" y="-119" on="1"/>
        <pt x="323" y="-136" on="0"/>
        <pt x="341" y="-150" on="0"/>
        <pt x="355" y="-150" on="1"/>
        <pt x="385" y="-150" on="0"/>
        <pt x="404" y="-125" on="1"/>
        <pt x="446" y="-167" on="1"/>
        <pt x="436" y="-184" on="0"/>
        <pt x="390" y="-208" on="0"/>
      </contour>
      <contour>
        <pt x="407" y="301" on="1"/>
        <pt x="407" y="311" on="1"/>
        <pt x="407" y="376" on="0"/>
        <pt x="338" y="455" on="0"/>
        <pt x="280" y="455" on="1"/>
        <pt x="249" y="455" on="0"/>
        <pt x="198" y="433" on="0"/>
        <pt x="161" y="394" on="0"/>
        <pt x="141" y="340" on="0"/>
        <pt x="141" y="308" on="1"/>
        <pt x="141" y="301" on="1"/>
      </contour>
    </TTGlyph>
    <TTGlyph name="epsilon" xMin="56" yMin="-12" xMax="493" yMax="530">
      <contour>
        <pt x="493" y="94" on="1"/>
        <pt x="460" y="41" on="0"/>
        <pt x="348" y="-12" on="0"/>
        <pt x="267" y="-12" on="1"/>
        <pt x="161" y="-12" on="0"/>
        <pt x="56" y="71" on="0"/>
        <pt x="56" y="139" on="1"/>
        <pt x="56" y="193" on="0"/>
        <pt x="121" y="256" on="0"/>
        <pt x="183" y="267" on="1"/>
        <pt x="183" y="271" on="1"/>
        <pt x="128" y="277" on="0"/>
        <pt x="68" y="333" on="0"/>
        <pt x="68" y="381" on="1"/>
        <pt x="68" y="413" on="0"/>
        <pt x="96" y="467" on="0"/>
        <pt x="149" y="507" on="0"/>
        <pt x="226" y="530" on="0"/>
        <pt x="274" y="530" on="1"/>
        <pt x="349" y="530" on="0"/>
        <pt x="457" y="478" on="0"/>
        <pt x="487" y="432" on="1"/>
        <pt x="424" y="379" on="1"/>
        <pt x="403" y="413" on="0"/>
        <pt x="328" y="450" on="0"/>
        <pt x="276" y="450" on="1"/>
        <pt x="246" y="450" on="0"/>
        <pt x="205" y="439" on="0"/>
        <pt x="178" y="420" on="0"/>
        <pt x="166" y="396" on="0"/>
        <pt x="166" y="383" on="1"/>
        <pt x="166" y="372" on="1"/>
        <pt x="166" y="341" on="0"/>
        <pt x="214" y="303" on="0"/>
        <pt x="256" y="303" on="1"/>
        <pt x="375" y="303" on="1"/>
        <pt x="375" y="230" on="1"/>
        <pt x="254" y="230" on="1"/>
        <pt x="154" y="230" on="0"/>
        <pt x="154" y="157" on="1"/>
        <pt x="154" y="145" on="1"/>
        <pt x="154" y="108" on="0"/>
        <pt x="214" y="68" on="0"/>
        <pt x="274" y="68" on="1"/>
        <pt x="332" y="68" on="0"/>
        <pt x="410" y="107" on="0"/>
        <pt x="433" y="145" on="1"/>
      </contour>
    </TTGlyph>
    <TTGlyph name="epsilontonos" xMin="56" yMin="-12" xMax="493" yMax="787">
      <component glyphName="epsilon" x="0" y="0" flags="0x204"/>
      <component glyphName="tonos" x="-35" y="0" flags="0x4"/>
    </TTGlyph>
</ttFont>
